%TF.GenerationSoftware,KiCad,Pcbnew,(6.0.7)*%
%TF.CreationDate,2022-11-10T22:18:01-08:00*%
%TF.ProjectId,Gimbal,47696d62-616c-42e6-9b69-6361645f7063,rev?*%
%TF.SameCoordinates,Original*%
%TF.FileFunction,Drillmap*%
%TF.FilePolarity,Positive*%
%FSLAX45Y45*%
G04 Gerber Fmt 4.5, Leading zero omitted, Abs format (unit mm)*
G04 Created by KiCad (PCBNEW (6.0.7)) date 2022-11-10 22:18:01*
%MOMM*%
%LPD*%
G01*
G04 APERTURE LIST*
%ADD10C,0.100000*%
%ADD11C,0.200000*%
%ADD12C,0.030480*%
%ADD13C,0.050000*%
%ADD14C,0.080000*%
%ADD15C,0.170000*%
%ADD16C,0.455000*%
G04 APERTURE END LIST*
D10*
X11684000Y-12446000D02*
X18034000Y-12446000D01*
X11430000Y-12192000D02*
X11430000Y-4826000D01*
X11684000Y-4572000D02*
G75*
G03*
X11430000Y-4826000I0J-254000D01*
G01*
X11430000Y-12192000D02*
G75*
G03*
X11684000Y-12446000I254000J0D01*
G01*
X18288000Y-12192000D02*
X18288000Y-4826000D01*
X18288000Y-4826000D02*
G75*
G03*
X18034000Y-4572000I-254000J0D01*
G01*
X18034000Y-4572000D02*
X11684000Y-4572000D01*
X18034000Y-12446000D02*
G75*
G03*
X18288000Y-12192000I0J254000D01*
G01*
D11*
D12*
X11969760Y-9611360D02*
X12000240Y-9641840D01*
X12000240Y-9611360D02*
X11969760Y-9641840D01*
X11969760Y-10728960D02*
X12000240Y-10759440D01*
X12000240Y-10728960D02*
X11969760Y-10759440D01*
X11969760Y-11008360D02*
X12000240Y-11038840D01*
X12000240Y-11008360D02*
X11969760Y-11038840D01*
X12045960Y-5953760D02*
X12076440Y-5984240D01*
X12076440Y-5953760D02*
X12045960Y-5984240D01*
X12045960Y-6487160D02*
X12076440Y-6517640D01*
X12076440Y-6487160D02*
X12045960Y-6517640D01*
X12045960Y-8239760D02*
X12076440Y-8270240D01*
X12076440Y-8239760D02*
X12045960Y-8270240D01*
X12045960Y-8696960D02*
X12076440Y-8727440D01*
X12076440Y-8696960D02*
X12045960Y-8727440D01*
X12198360Y-6233160D02*
X12228840Y-6263640D01*
X12228840Y-6233160D02*
X12198360Y-6263640D01*
X12350760Y-9535160D02*
X12381240Y-9565640D01*
X12381240Y-9535160D02*
X12350760Y-9565640D01*
X12426960Y-10398760D02*
X12457440Y-10429240D01*
X12457440Y-10398760D02*
X12426960Y-10429240D01*
X12426960Y-11135360D02*
X12457440Y-11165840D01*
X12457440Y-11135360D02*
X12426960Y-11165840D01*
X12503160Y-11287760D02*
X12533640Y-11318240D01*
X12533640Y-11287760D02*
X12503160Y-11318240D01*
X12604760Y-6309360D02*
X12635240Y-6339840D01*
X12635240Y-6309360D02*
X12604760Y-6339840D01*
X12604760Y-6614160D02*
X12635240Y-6644640D01*
X12635240Y-6614160D02*
X12604760Y-6644640D01*
X12604760Y-8392160D02*
X12635240Y-8422640D01*
X12635240Y-8392160D02*
X12604760Y-8422640D01*
X12680960Y-6182360D02*
X12711440Y-6212840D01*
X12711440Y-6182360D02*
X12680960Y-6212840D01*
X12680960Y-7401560D02*
X12711440Y-7432040D01*
X12711440Y-7401560D02*
X12680960Y-7432040D01*
X12706360Y-9611360D02*
X12736840Y-9641840D01*
X12736840Y-9611360D02*
X12706360Y-9641840D01*
X12782560Y-6258560D02*
X12813040Y-6289040D01*
X12813040Y-6258560D02*
X12782560Y-6289040D01*
X12807960Y-6791960D02*
X12838440Y-6822440D01*
X12838440Y-6791960D02*
X12807960Y-6822440D01*
X12807960Y-8112760D02*
X12838440Y-8143240D01*
X12838440Y-8112760D02*
X12807960Y-8143240D01*
X12807960Y-8569960D02*
X12838440Y-8600440D01*
X12838440Y-8569960D02*
X12807960Y-8600440D01*
X12807960Y-10474960D02*
X12838440Y-10505440D01*
X12838440Y-10474960D02*
X12807960Y-10505440D01*
X12833360Y-10576560D02*
X12863840Y-10607040D01*
X12863840Y-10576560D02*
X12833360Y-10607040D01*
X12833360Y-11135360D02*
X12863840Y-11165840D01*
X12863840Y-11135360D02*
X12833360Y-11165840D01*
X12909560Y-8646160D02*
X12940040Y-8676640D01*
X12940040Y-8646160D02*
X12909560Y-8676640D01*
X12909560Y-9154160D02*
X12940040Y-9184640D01*
X12940040Y-9154160D02*
X12909560Y-9184640D01*
X12909560Y-9865360D02*
X12940040Y-9895840D01*
X12940040Y-9865360D02*
X12909560Y-9895840D01*
X12909560Y-10068560D02*
X12940040Y-10099040D01*
X12940040Y-10068560D02*
X12909560Y-10099040D01*
X12909560Y-10627360D02*
X12940040Y-10657840D01*
X12940040Y-10627360D02*
X12909560Y-10657840D01*
X13065760Y-11668760D02*
X13096240Y-11699240D01*
X13096240Y-11668760D02*
X13065760Y-11699240D01*
X13138160Y-5674360D02*
X13168640Y-5704840D01*
X13168640Y-5674360D02*
X13138160Y-5704840D01*
X13138160Y-5953760D02*
X13168640Y-5984240D01*
X13168640Y-5953760D02*
X13138160Y-5984240D01*
X13138160Y-8087360D02*
X13168640Y-8117840D01*
X13168640Y-8087360D02*
X13138160Y-8117840D01*
X13141960Y-8798560D02*
X13172440Y-8829040D01*
X13172440Y-8798560D02*
X13141960Y-8829040D01*
X13218160Y-8188960D02*
X13248640Y-8219440D01*
X13248640Y-8188960D02*
X13218160Y-8219440D01*
X13265160Y-5445760D02*
X13295640Y-5476240D01*
X13295640Y-5445760D02*
X13265160Y-5476240D01*
X13265160Y-6677450D02*
X13295640Y-6707930D01*
X13295640Y-6677450D02*
X13265160Y-6707930D01*
X13341360Y-8544560D02*
X13371840Y-8575040D01*
X13371840Y-8544560D02*
X13341360Y-8575040D01*
X13366760Y-8087360D02*
X13397240Y-8117840D01*
X13397240Y-8087360D02*
X13366760Y-8117840D01*
X13417560Y-7528560D02*
X13448040Y-7559040D01*
X13448040Y-7528560D02*
X13417560Y-7559040D01*
X13442960Y-8544560D02*
X13473440Y-8575040D01*
X13473440Y-8544560D02*
X13442960Y-8575040D01*
X13442960Y-8798560D02*
X13473440Y-8829040D01*
X13473440Y-8798560D02*
X13442960Y-8829040D01*
X13468360Y-7731760D02*
X13498840Y-7762240D01*
X13498840Y-7731760D02*
X13468360Y-7762240D01*
X13544560Y-7604760D02*
X13575040Y-7635240D01*
X13575040Y-7604760D02*
X13544560Y-7635240D01*
X13557310Y-8265160D02*
X13587790Y-8295640D01*
X13587790Y-8265160D02*
X13557310Y-8295640D01*
X13620760Y-7858760D02*
X13651240Y-7889240D01*
X13651240Y-7858760D02*
X13620760Y-7889240D01*
X13620760Y-8671560D02*
X13651240Y-8702040D01*
X13651240Y-8671560D02*
X13620760Y-8702040D01*
X13696960Y-8138160D02*
X13727440Y-8168640D01*
X13727440Y-8138160D02*
X13696960Y-8168640D01*
X13696960Y-8773160D02*
X13727440Y-8803640D01*
X13727440Y-8773160D02*
X13696960Y-8803640D01*
X13798560Y-7934960D02*
X13829040Y-7965440D01*
X13829040Y-7934960D02*
X13798560Y-7965440D01*
X13798560Y-8747760D02*
X13829040Y-8778240D01*
X13829040Y-8747760D02*
X13798560Y-8778240D01*
X13827760Y-11668760D02*
X13858240Y-11699240D01*
X13858240Y-11668760D02*
X13827760Y-11699240D01*
X13950960Y-5699760D02*
X13981440Y-5730240D01*
X13981440Y-5699760D02*
X13950960Y-5730240D01*
X13950960Y-6080760D02*
X13981440Y-6111240D01*
X13981440Y-6080760D02*
X13950960Y-6111240D01*
X14077960Y-7782560D02*
X14108440Y-7813040D01*
X14108440Y-7782560D02*
X14077960Y-7813040D01*
X14081760Y-9128760D02*
X14112240Y-9159240D01*
X14112240Y-9128760D02*
X14081760Y-9159240D01*
X14103360Y-6791960D02*
X14133840Y-6822440D01*
X14133840Y-6791960D02*
X14103360Y-6822440D01*
X14103360Y-8468360D02*
X14133840Y-8498840D01*
X14133840Y-8468360D02*
X14103360Y-8498840D01*
X14154160Y-8341360D02*
X14184640Y-8371840D01*
X14184640Y-8341360D02*
X14154160Y-8371840D01*
X14179560Y-7528560D02*
X14210040Y-7559040D01*
X14210040Y-7528560D02*
X14179560Y-7559040D01*
X14179560Y-7858760D02*
X14210040Y-7889240D01*
X14210040Y-7858760D02*
X14179560Y-7889240D01*
X14230360Y-8798560D02*
X14260840Y-8829040D01*
X14260840Y-8798560D02*
X14230360Y-8829040D01*
X14255760Y-8379510D02*
X14286240Y-8409990D01*
X14286240Y-8379510D02*
X14255760Y-8409990D01*
X14331960Y-7731760D02*
X14362440Y-7762240D01*
X14362440Y-7731760D02*
X14331960Y-7762240D01*
X14331960Y-7884160D02*
X14362440Y-7914640D01*
X14362440Y-7884160D02*
X14331960Y-7914640D01*
X14335760Y-11668760D02*
X14366240Y-11699240D01*
X14366240Y-11668760D02*
X14335760Y-11699240D01*
X14484360Y-8138160D02*
X14514840Y-8168640D01*
X14514840Y-8138160D02*
X14484360Y-8168640D01*
X14484360Y-8544560D02*
X14514840Y-8575040D01*
X14514840Y-8544560D02*
X14484360Y-8575040D01*
X14636760Y-7807960D02*
X14667240Y-7838440D01*
X14667240Y-7807960D02*
X14636760Y-7838440D01*
X14636760Y-8519160D02*
X14667240Y-8549640D01*
X14667240Y-8519160D02*
X14636760Y-8549640D01*
X14687560Y-6512560D02*
X14718040Y-6543040D01*
X14718040Y-6512560D02*
X14687560Y-6543040D01*
X14789160Y-8595360D02*
X14819640Y-8625840D01*
X14819640Y-8595360D02*
X14789160Y-8625840D01*
X14789160Y-8823960D02*
X14819640Y-8854440D01*
X14819640Y-8823960D02*
X14789160Y-8854440D01*
X14865360Y-6614160D02*
X14895840Y-6644640D01*
X14895840Y-6614160D02*
X14865360Y-6644640D01*
X14992360Y-8442960D02*
X15022840Y-8473440D01*
X15022840Y-8442960D02*
X14992360Y-8473440D01*
X15068560Y-8976360D02*
X15099040Y-9006840D01*
X15099040Y-8976360D02*
X15068560Y-9006840D01*
X15068560Y-10347960D02*
X15099040Y-10378440D01*
X15099040Y-10347960D02*
X15068560Y-10378440D01*
X15093960Y-10627360D02*
X15124440Y-10657840D01*
X15124440Y-10627360D02*
X15093960Y-10657840D01*
X15093960Y-11008360D02*
X15124440Y-11038840D01*
X15124440Y-11008360D02*
X15093960Y-11038840D01*
X15119360Y-9204960D02*
X15149840Y-9235440D01*
X15149840Y-9204960D02*
X15119360Y-9235440D01*
X15195560Y-10500360D02*
X15226040Y-10530840D01*
X15226040Y-10500360D02*
X15195560Y-10530840D01*
X15195560Y-11287760D02*
X15226040Y-11318240D01*
X15226040Y-11287760D02*
X15195560Y-11318240D01*
X15220960Y-9027160D02*
X15251440Y-9057640D01*
X15251440Y-9027160D02*
X15220960Y-9057640D01*
X15220960Y-9839960D02*
X15251440Y-9870440D01*
X15251440Y-9839960D02*
X15220960Y-9870440D01*
X15271760Y-8392160D02*
X15302240Y-8422640D01*
X15302240Y-8392160D02*
X15271760Y-8422640D01*
X15297160Y-5699760D02*
X15327640Y-5730240D01*
X15327640Y-5699760D02*
X15297160Y-5730240D01*
X15297160Y-7706360D02*
X15327640Y-7736840D01*
X15327640Y-7706360D02*
X15297160Y-7736840D01*
X15297160Y-9255760D02*
X15327640Y-9286240D01*
X15327640Y-9255760D02*
X15297160Y-9286240D01*
X15322560Y-9357360D02*
X15353040Y-9387840D01*
X15353040Y-9357360D02*
X15322560Y-9387840D01*
X15322560Y-9916160D02*
X15353040Y-9946640D01*
X15353040Y-9916160D02*
X15322560Y-9946640D01*
X15347960Y-8671560D02*
X15378440Y-8702040D01*
X15378440Y-8671560D02*
X15347960Y-8702040D01*
X15347960Y-8823960D02*
X15378440Y-8854440D01*
X15378440Y-8823960D02*
X15347960Y-8854440D01*
X15398760Y-10906760D02*
X15429240Y-10937240D01*
X15429240Y-10906760D02*
X15398760Y-10937240D01*
X15427960Y-9382760D02*
X15458440Y-9413240D01*
X15458440Y-9382760D02*
X15427960Y-9413240D01*
X15467290Y-10737563D02*
X15497770Y-10768043D01*
X15497770Y-10737563D02*
X15467290Y-10768043D01*
X15474960Y-7147560D02*
X15505440Y-7178040D01*
X15505440Y-7147560D02*
X15474960Y-7178040D01*
X15474960Y-11008360D02*
X15505440Y-11038840D01*
X15505440Y-11008360D02*
X15474960Y-11038840D01*
X15474960Y-11236960D02*
X15505440Y-11267440D01*
X15505440Y-11236960D02*
X15474960Y-11267440D01*
X15508960Y-7723160D02*
X15539440Y-7753640D01*
X15539440Y-7723160D02*
X15508960Y-7753640D01*
X15525760Y-7426960D02*
X15556240Y-7457440D01*
X15556240Y-7426960D02*
X15525760Y-7457440D01*
X15551160Y-10119360D02*
X15581640Y-10149840D01*
X15581640Y-10119360D02*
X15551160Y-10149840D01*
X15551160Y-10779760D02*
X15581640Y-10810240D01*
X15581640Y-10779760D02*
X15551160Y-10810240D01*
X15551160Y-11071810D02*
X15581640Y-11102290D01*
X15581640Y-11071810D02*
X15551160Y-11102290D01*
X15576560Y-9281160D02*
X15607040Y-9311640D01*
X15607040Y-9281160D02*
X15576560Y-9311640D01*
X15576560Y-9484360D02*
X15607040Y-9514840D01*
X15607040Y-9484360D02*
X15576560Y-9514840D01*
X15576560Y-9789160D02*
X15607040Y-9819640D01*
X15607040Y-9789160D02*
X15576560Y-9819640D01*
X15703560Y-10068560D02*
X15734040Y-10099040D01*
X15734040Y-10068560D02*
X15703560Y-10099040D01*
X15728960Y-10576560D02*
X15759440Y-10607040D01*
X15759440Y-10576560D02*
X15728960Y-10607040D01*
X15805160Y-10525760D02*
X15835640Y-10556240D01*
X15835640Y-10525760D02*
X15805160Y-10556240D01*
X15855960Y-8747760D02*
X15886440Y-8778240D01*
X15886440Y-8747760D02*
X15855960Y-8778240D01*
X15906760Y-9027160D02*
X15937240Y-9057640D01*
X15937240Y-9027160D02*
X15906760Y-9057640D01*
X15957560Y-10195560D02*
X15988040Y-10226040D01*
X15988040Y-10195560D02*
X15957560Y-10226040D01*
X15957560Y-10576560D02*
X15988040Y-10607040D01*
X15988040Y-10576560D02*
X15957560Y-10607040D01*
X16033760Y-8823960D02*
X16064240Y-8854440D01*
X16064240Y-8823960D02*
X16033760Y-8854440D01*
X16033760Y-9027160D02*
X16064240Y-9057640D01*
X16064240Y-9027160D02*
X16033760Y-9057640D01*
X16084560Y-9128760D02*
X16115040Y-9159240D01*
X16115040Y-9128760D02*
X16084560Y-9159240D01*
X16084560Y-9255760D02*
X16115040Y-9286240D01*
X16115040Y-9255760D02*
X16084560Y-9286240D01*
X16135360Y-7426960D02*
X16165840Y-7457440D01*
X16165840Y-7426960D02*
X16135360Y-7457440D01*
X16135360Y-8392160D02*
X16165840Y-8422640D01*
X16165840Y-8392160D02*
X16135360Y-8422640D01*
X16186160Y-9306560D02*
X16216640Y-9337040D01*
X16216640Y-9306560D02*
X16186160Y-9337040D01*
X16186160Y-9789160D02*
X16216640Y-9819640D01*
X16216640Y-9789160D02*
X16186160Y-9819640D01*
X16211560Y-7223760D02*
X16242040Y-7254240D01*
X16242040Y-7223760D02*
X16211560Y-7254240D01*
X16211560Y-7553960D02*
X16242040Y-7584440D01*
X16242040Y-7553960D02*
X16211560Y-7584440D01*
X16313160Y-10576560D02*
X16343640Y-10607040D01*
X16343640Y-10576560D02*
X16313160Y-10607040D01*
X16313160Y-10779760D02*
X16343640Y-10810240D01*
X16343640Y-10779760D02*
X16313160Y-10810240D01*
X16363960Y-11008360D02*
X16394440Y-11038840D01*
X16394440Y-11008360D02*
X16363960Y-11038840D01*
X16363960Y-11440160D02*
X16394440Y-11470640D01*
X16394440Y-11440160D02*
X16363960Y-11470640D01*
X16440160Y-9027160D02*
X16470640Y-9057640D01*
X16470640Y-9027160D02*
X16440160Y-9057640D01*
X16490960Y-10093960D02*
X16521440Y-10124440D01*
X16521440Y-10093960D02*
X16490960Y-10124440D01*
X16490960Y-11084560D02*
X16521440Y-11115040D01*
X16521440Y-11084560D02*
X16490960Y-11115040D01*
X16520160Y-9479330D02*
X16550640Y-9509810D01*
X16550640Y-9479330D02*
X16520160Y-9509810D01*
X16567160Y-10474960D02*
X16597640Y-10505440D01*
X16597640Y-10474960D02*
X16567160Y-10505440D01*
X16570960Y-10982960D02*
X16601440Y-11013440D01*
X16601440Y-10982960D02*
X16570960Y-11013440D01*
X16617960Y-5852160D02*
X16648440Y-5882640D01*
X16648440Y-5852160D02*
X16617960Y-5882640D01*
X16617960Y-7426960D02*
X16648440Y-7457440D01*
X16648440Y-7426960D02*
X16617960Y-7457440D01*
X16799560Y-8696960D02*
X16830040Y-8727440D01*
X16830040Y-8696960D02*
X16799560Y-8727440D01*
X16846560Y-9408160D02*
X16877040Y-9438640D01*
X16877040Y-9408160D02*
X16846560Y-9438640D01*
X16922760Y-8315960D02*
X16953240Y-8346440D01*
X16953240Y-8315960D02*
X16922760Y-8346440D01*
X16922760Y-9535160D02*
X16953240Y-9565640D01*
X16953240Y-9535160D02*
X16922760Y-9565640D01*
D13*
X11726000Y-5799400D02*
G75*
G03*
X11726000Y-5799400I-25000J0D01*
G01*
D11*
X11731000Y-5774400D02*
X11671000Y-5774400D01*
X11731000Y-5824400D02*
X11671000Y-5824400D01*
X11671000Y-5774400D02*
G75*
G03*
X11671000Y-5824400I0J-25000D01*
G01*
X11731000Y-5824400D02*
G75*
G03*
X11731000Y-5774400I0J25000D01*
G01*
D13*
X11726000Y-6697400D02*
G75*
G03*
X11726000Y-6697400I-25000J0D01*
G01*
D11*
X11731000Y-6672400D02*
X11671000Y-6672400D01*
X11731000Y-6722400D02*
X11671000Y-6722400D01*
X11671000Y-6672400D02*
G75*
G03*
X11671000Y-6722400I0J-25000D01*
G01*
X11731000Y-6722400D02*
G75*
G03*
X11731000Y-6672400I0J25000D01*
G01*
D13*
X12321000Y-5835400D02*
G75*
G03*
X12321000Y-5835400I-25000J0D01*
G01*
D11*
X12326000Y-5810400D02*
X12266000Y-5810400D01*
X12326000Y-5860400D02*
X12266000Y-5860400D01*
X12266000Y-5810400D02*
G75*
G03*
X12266000Y-5860400I0J-25000D01*
G01*
X12326000Y-5860400D02*
G75*
G03*
X12326000Y-5810400I0J25000D01*
G01*
D13*
X12321000Y-6661400D02*
G75*
G03*
X12321000Y-6661400I-25000J0D01*
G01*
D11*
X12326000Y-6636400D02*
X12266000Y-6636400D01*
X12326000Y-6686400D02*
X12266000Y-6686400D01*
X12266000Y-6636400D02*
G75*
G03*
X12266000Y-6686400I0J-25000D01*
G01*
X12326000Y-6686400D02*
G75*
G03*
X12326000Y-6636400I0J25000D01*
G01*
D14*
X11688200Y-7605400D02*
X11688200Y-7685400D01*
X11648200Y-7645400D02*
X11728200Y-7645400D01*
X11781800Y-9840600D02*
X11781800Y-9920600D01*
X11741800Y-9880600D02*
X11821800Y-9880600D01*
X11781800Y-10040600D02*
X11781800Y-10120600D01*
X11741800Y-10080600D02*
X11821800Y-10080600D01*
X11787000Y-10505800D02*
X11787000Y-10585800D01*
X11747000Y-10545800D02*
X11827000Y-10545800D01*
X11787000Y-10705800D02*
X11787000Y-10785800D01*
X11747000Y-10745800D02*
X11827000Y-10745800D01*
X11787000Y-10905800D02*
X11787000Y-10985800D01*
X11747000Y-10945800D02*
X11827000Y-10945800D01*
X11787000Y-11105800D02*
X11787000Y-11185800D01*
X11747000Y-11145800D02*
X11827000Y-11145800D01*
X12188200Y-7605400D02*
X12188200Y-7685400D01*
X12148200Y-7645400D02*
X12228200Y-7645400D01*
X12696200Y-7605400D02*
X12696200Y-7685400D01*
X12656200Y-7645400D02*
X12736200Y-7645400D01*
X13196200Y-7605400D02*
X13196200Y-7685400D01*
X13156200Y-7645400D02*
X13236200Y-7645400D01*
D15*
X17571805Y-8381505D02*
X17571805Y-8261295D01*
X17451595Y-8261295D01*
X17451595Y-8381505D01*
X17571805Y-8381505D01*
X17571805Y-8777505D02*
X17571805Y-8657295D01*
X17451595Y-8657295D01*
X17451595Y-8777505D01*
X17571805Y-8777505D01*
X17571805Y-9173505D02*
X17571805Y-9053295D01*
X17451595Y-9053295D01*
X17451595Y-9173505D01*
X17571805Y-9173505D01*
X17571805Y-9569505D02*
X17571805Y-9449295D01*
X17451595Y-9449295D01*
X17451595Y-9569505D01*
X17571805Y-9569505D01*
X17571805Y-10159505D02*
X17571805Y-10039295D01*
X17451595Y-10039295D01*
X17451595Y-10159505D01*
X17571805Y-10159505D01*
X17571805Y-10555505D02*
X17571805Y-10435295D01*
X17451595Y-10435295D01*
X17451595Y-10555505D01*
X17571805Y-10555505D01*
X17571805Y-10951505D02*
X17571805Y-10831295D01*
X17451595Y-10831295D01*
X17451595Y-10951505D01*
X17571805Y-10951505D01*
X17571805Y-11347505D02*
X17571805Y-11227295D01*
X17451595Y-11227295D01*
X17451595Y-11347505D01*
X17571805Y-11347505D01*
D11*
X13081000Y-12165000D02*
X13181000Y-12065000D01*
X13081000Y-11965000D01*
X12981000Y-12065000D01*
X13081000Y-12165000D01*
X13589000Y-5053000D02*
X13689000Y-4953000D01*
X13589000Y-4853000D01*
X13489000Y-4953000D01*
X13589000Y-5053000D01*
X13843000Y-12165000D02*
X13943000Y-12065000D01*
X13843000Y-11965000D01*
X13743000Y-12065000D01*
X13843000Y-12165000D01*
X14478000Y-5053000D02*
X14578000Y-4953000D01*
X14478000Y-4853000D01*
X14378000Y-4953000D01*
X14478000Y-5053000D01*
X14605000Y-12165000D02*
X14705000Y-12065000D01*
X14605000Y-11965000D01*
X14505000Y-12065000D01*
X14605000Y-12165000D01*
D16*
X17323900Y-6422900D02*
X17778900Y-6877900D01*
X17778900Y-6422900D02*
X17323900Y-6877900D01*
X17778900Y-6650400D02*
G75*
G03*
X17778900Y-6650400I-227500J0D01*
G01*
X17323900Y-7142900D02*
X17778900Y-7597900D01*
X17778900Y-7142900D02*
X17323900Y-7597900D01*
X17778900Y-7370400D02*
G75*
G03*
X17778900Y-7370400I-227500J0D01*
G01*
D11*
X11682619Y-12761476D02*
X11682619Y-12561476D01*
X11730238Y-12561476D01*
X11758809Y-12571000D01*
X11777857Y-12590048D01*
X11787381Y-12609095D01*
X11796905Y-12647190D01*
X11796905Y-12675762D01*
X11787381Y-12713857D01*
X11777857Y-12732905D01*
X11758809Y-12751952D01*
X11730238Y-12761476D01*
X11682619Y-12761476D01*
X11882619Y-12761476D02*
X11882619Y-12628143D01*
X11882619Y-12666238D02*
X11892143Y-12647190D01*
X11901667Y-12637667D01*
X11920714Y-12628143D01*
X11939762Y-12628143D01*
X12006428Y-12761476D02*
X12006428Y-12628143D01*
X12006428Y-12561476D02*
X11996905Y-12571000D01*
X12006428Y-12580524D01*
X12015952Y-12571000D01*
X12006428Y-12561476D01*
X12006428Y-12580524D01*
X12130238Y-12761476D02*
X12111190Y-12751952D01*
X12101667Y-12732905D01*
X12101667Y-12561476D01*
X12235000Y-12761476D02*
X12215952Y-12751952D01*
X12206428Y-12732905D01*
X12206428Y-12561476D01*
X12463571Y-12761476D02*
X12463571Y-12561476D01*
X12530238Y-12704333D01*
X12596905Y-12561476D01*
X12596905Y-12761476D01*
X12777857Y-12761476D02*
X12777857Y-12656714D01*
X12768333Y-12637667D01*
X12749286Y-12628143D01*
X12711190Y-12628143D01*
X12692143Y-12637667D01*
X12777857Y-12751952D02*
X12758809Y-12761476D01*
X12711190Y-12761476D01*
X12692143Y-12751952D01*
X12682619Y-12732905D01*
X12682619Y-12713857D01*
X12692143Y-12694809D01*
X12711190Y-12685286D01*
X12758809Y-12685286D01*
X12777857Y-12675762D01*
X12873095Y-12628143D02*
X12873095Y-12828143D01*
X12873095Y-12637667D02*
X12892143Y-12628143D01*
X12930238Y-12628143D01*
X12949286Y-12637667D01*
X12958809Y-12647190D01*
X12968333Y-12666238D01*
X12968333Y-12723381D01*
X12958809Y-12742428D01*
X12949286Y-12751952D01*
X12930238Y-12761476D01*
X12892143Y-12761476D01*
X12873095Y-12751952D01*
X13054048Y-12742428D02*
X13063571Y-12751952D01*
X13054048Y-12761476D01*
X13044524Y-12751952D01*
X13054048Y-12742428D01*
X13054048Y-12761476D01*
X13054048Y-12637667D02*
X13063571Y-12647190D01*
X13054048Y-12656714D01*
X13044524Y-12647190D01*
X13054048Y-12637667D01*
X13054048Y-12656714D01*
D12*
X11394520Y-13075760D02*
X11425000Y-13106240D01*
X11425000Y-13075760D02*
X11394520Y-13106240D01*
D11*
X11720714Y-12981476D02*
X11739762Y-12981476D01*
X11758809Y-12991000D01*
X11768333Y-13000524D01*
X11777857Y-13019571D01*
X11787381Y-13057667D01*
X11787381Y-13105286D01*
X11777857Y-13143381D01*
X11768333Y-13162428D01*
X11758809Y-13171952D01*
X11739762Y-13181476D01*
X11720714Y-13181476D01*
X11701667Y-13171952D01*
X11692143Y-13162428D01*
X11682619Y-13143381D01*
X11673095Y-13105286D01*
X11673095Y-13057667D01*
X11682619Y-13019571D01*
X11692143Y-13000524D01*
X11701667Y-12991000D01*
X11720714Y-12981476D01*
X11873095Y-13162428D02*
X11882619Y-13171952D01*
X11873095Y-13181476D01*
X11863571Y-13171952D01*
X11873095Y-13162428D01*
X11873095Y-13181476D01*
X11949286Y-12981476D02*
X12073095Y-12981476D01*
X12006428Y-13057667D01*
X12035000Y-13057667D01*
X12054048Y-13067190D01*
X12063571Y-13076714D01*
X12073095Y-13095762D01*
X12073095Y-13143381D01*
X12063571Y-13162428D01*
X12054048Y-13171952D01*
X12035000Y-13181476D01*
X11977857Y-13181476D01*
X11958809Y-13171952D01*
X11949286Y-13162428D01*
X12196905Y-12981476D02*
X12215952Y-12981476D01*
X12235000Y-12991000D01*
X12244524Y-13000524D01*
X12254048Y-13019571D01*
X12263571Y-13057667D01*
X12263571Y-13105286D01*
X12254048Y-13143381D01*
X12244524Y-13162428D01*
X12235000Y-13171952D01*
X12215952Y-13181476D01*
X12196905Y-13181476D01*
X12177857Y-13171952D01*
X12168333Y-13162428D01*
X12158809Y-13143381D01*
X12149286Y-13105286D01*
X12149286Y-13057667D01*
X12158809Y-13019571D01*
X12168333Y-13000524D01*
X12177857Y-12991000D01*
X12196905Y-12981476D01*
X12444524Y-12981476D02*
X12349286Y-12981476D01*
X12339762Y-13076714D01*
X12349286Y-13067190D01*
X12368333Y-13057667D01*
X12415952Y-13057667D01*
X12435000Y-13067190D01*
X12444524Y-13076714D01*
X12454048Y-13095762D01*
X12454048Y-13143381D01*
X12444524Y-13162428D01*
X12435000Y-13171952D01*
X12415952Y-13181476D01*
X12368333Y-13181476D01*
X12349286Y-13171952D01*
X12339762Y-13162428D01*
X12539762Y-13181476D02*
X12539762Y-13048143D01*
X12539762Y-13067190D02*
X12549286Y-13057667D01*
X12568333Y-13048143D01*
X12596905Y-13048143D01*
X12615952Y-13057667D01*
X12625476Y-13076714D01*
X12625476Y-13181476D01*
X12625476Y-13076714D02*
X12635000Y-13057667D01*
X12654048Y-13048143D01*
X12682619Y-13048143D01*
X12701667Y-13057667D01*
X12711190Y-13076714D01*
X12711190Y-13181476D01*
X12806428Y-13181476D02*
X12806428Y-13048143D01*
X12806428Y-13067190D02*
X12815952Y-13057667D01*
X12835000Y-13048143D01*
X12863571Y-13048143D01*
X12882619Y-13057667D01*
X12892143Y-13076714D01*
X12892143Y-13181476D01*
X12892143Y-13076714D02*
X12901667Y-13057667D01*
X12920714Y-13048143D01*
X12949286Y-13048143D01*
X12968333Y-13057667D01*
X12977857Y-13076714D01*
X12977857Y-13181476D01*
X13368333Y-12971952D02*
X13196905Y-13229095D01*
X13625476Y-12981476D02*
X13644524Y-12981476D01*
X13663571Y-12991000D01*
X13673095Y-13000524D01*
X13682619Y-13019571D01*
X13692143Y-13057667D01*
X13692143Y-13105286D01*
X13682619Y-13143381D01*
X13673095Y-13162428D01*
X13663571Y-13171952D01*
X13644524Y-13181476D01*
X13625476Y-13181476D01*
X13606428Y-13171952D01*
X13596905Y-13162428D01*
X13587381Y-13143381D01*
X13577857Y-13105286D01*
X13577857Y-13057667D01*
X13587381Y-13019571D01*
X13596905Y-13000524D01*
X13606428Y-12991000D01*
X13625476Y-12981476D01*
X13777857Y-13162428D02*
X13787381Y-13171952D01*
X13777857Y-13181476D01*
X13768333Y-13171952D01*
X13777857Y-13162428D01*
X13777857Y-13181476D01*
X13911190Y-12981476D02*
X13930238Y-12981476D01*
X13949286Y-12991000D01*
X13958809Y-13000524D01*
X13968333Y-13019571D01*
X13977857Y-13057667D01*
X13977857Y-13105286D01*
X13968333Y-13143381D01*
X13958809Y-13162428D01*
X13949286Y-13171952D01*
X13930238Y-13181476D01*
X13911190Y-13181476D01*
X13892143Y-13171952D01*
X13882619Y-13162428D01*
X13873095Y-13143381D01*
X13863571Y-13105286D01*
X13863571Y-13057667D01*
X13873095Y-13019571D01*
X13882619Y-13000524D01*
X13892143Y-12991000D01*
X13911190Y-12981476D01*
X14168333Y-13181476D02*
X14054048Y-13181476D01*
X14111190Y-13181476D02*
X14111190Y-12981476D01*
X14092143Y-13010048D01*
X14073095Y-13029095D01*
X14054048Y-13038619D01*
X14244524Y-13000524D02*
X14254048Y-12991000D01*
X14273095Y-12981476D01*
X14320714Y-12981476D01*
X14339762Y-12991000D01*
X14349286Y-13000524D01*
X14358809Y-13019571D01*
X14358809Y-13038619D01*
X14349286Y-13067190D01*
X14235000Y-13181476D01*
X14358809Y-13181476D01*
X14482619Y-12981476D02*
X14501667Y-12981476D01*
X14520714Y-12991000D01*
X14530238Y-13000524D01*
X14539762Y-13019571D01*
X14549286Y-13057667D01*
X14549286Y-13105286D01*
X14539762Y-13143381D01*
X14530238Y-13162428D01*
X14520714Y-13171952D01*
X14501667Y-13181476D01*
X14482619Y-13181476D01*
X14463571Y-13171952D01*
X14454048Y-13162428D01*
X14444524Y-13143381D01*
X14435000Y-13105286D01*
X14435000Y-13057667D01*
X14444524Y-13019571D01*
X14454048Y-13000524D01*
X14463571Y-12991000D01*
X14482619Y-12981476D01*
X14625476Y-12981476D02*
X14625476Y-13019571D01*
X14701667Y-12981476D02*
X14701667Y-13019571D01*
X14996905Y-13257667D02*
X14987381Y-13248143D01*
X14968333Y-13219571D01*
X14958809Y-13200524D01*
X14949286Y-13171952D01*
X14939762Y-13124333D01*
X14939762Y-13086238D01*
X14949286Y-13038619D01*
X14958809Y-13010048D01*
X14968333Y-12991000D01*
X14987381Y-12962428D01*
X14996905Y-12952905D01*
X15177857Y-13181476D02*
X15063571Y-13181476D01*
X15120714Y-13181476D02*
X15120714Y-12981476D01*
X15101667Y-13010048D01*
X15082619Y-13029095D01*
X15063571Y-13038619D01*
X15349286Y-13048143D02*
X15349286Y-13181476D01*
X15301667Y-12971952D02*
X15254048Y-13114809D01*
X15377857Y-13114809D01*
X15492143Y-12981476D02*
X15511190Y-12981476D01*
X15530238Y-12991000D01*
X15539762Y-13000524D01*
X15549286Y-13019571D01*
X15558809Y-13057667D01*
X15558809Y-13105286D01*
X15549286Y-13143381D01*
X15539762Y-13162428D01*
X15530238Y-13171952D01*
X15511190Y-13181476D01*
X15492143Y-13181476D01*
X15473095Y-13171952D01*
X15463571Y-13162428D01*
X15454048Y-13143381D01*
X15444524Y-13105286D01*
X15444524Y-13057667D01*
X15454048Y-13019571D01*
X15463571Y-13000524D01*
X15473095Y-12991000D01*
X15492143Y-12981476D01*
X15796905Y-13181476D02*
X15796905Y-12981476D01*
X15882619Y-13181476D02*
X15882619Y-13076714D01*
X15873095Y-13057667D01*
X15854048Y-13048143D01*
X15825476Y-13048143D01*
X15806428Y-13057667D01*
X15796905Y-13067190D01*
X16006428Y-13181476D02*
X15987381Y-13171952D01*
X15977857Y-13162428D01*
X15968333Y-13143381D01*
X15968333Y-13086238D01*
X15977857Y-13067190D01*
X15987381Y-13057667D01*
X16006428Y-13048143D01*
X16035000Y-13048143D01*
X16054048Y-13057667D01*
X16063571Y-13067190D01*
X16073095Y-13086238D01*
X16073095Y-13143381D01*
X16063571Y-13162428D01*
X16054048Y-13171952D01*
X16035000Y-13181476D01*
X16006428Y-13181476D01*
X16187381Y-13181476D02*
X16168333Y-13171952D01*
X16158809Y-13152905D01*
X16158809Y-12981476D01*
X16339762Y-13171952D02*
X16320714Y-13181476D01*
X16282619Y-13181476D01*
X16263571Y-13171952D01*
X16254048Y-13152905D01*
X16254048Y-13076714D01*
X16263571Y-13057667D01*
X16282619Y-13048143D01*
X16320714Y-13048143D01*
X16339762Y-13057667D01*
X16349286Y-13076714D01*
X16349286Y-13095762D01*
X16254048Y-13114809D01*
X16425476Y-13171952D02*
X16444524Y-13181476D01*
X16482619Y-13181476D01*
X16501667Y-13171952D01*
X16511190Y-13152905D01*
X16511190Y-13143381D01*
X16501667Y-13124333D01*
X16482619Y-13114809D01*
X16454048Y-13114809D01*
X16435000Y-13105286D01*
X16425476Y-13086238D01*
X16425476Y-13076714D01*
X16435000Y-13057667D01*
X16454048Y-13048143D01*
X16482619Y-13048143D01*
X16501667Y-13057667D01*
X16577857Y-13257667D02*
X16587381Y-13248143D01*
X16606428Y-13219571D01*
X16615952Y-13200524D01*
X16625476Y-13171952D01*
X16635000Y-13124333D01*
X16635000Y-13086238D01*
X16625476Y-13038619D01*
X16615952Y-13010048D01*
X16606428Y-12991000D01*
X16587381Y-12962428D01*
X16577857Y-12952905D01*
D13*
X11425000Y-13355000D02*
G75*
G03*
X11425000Y-13355000I-25000J0D01*
G01*
D11*
X11720714Y-13245476D02*
X11739762Y-13245476D01*
X11758809Y-13255000D01*
X11768333Y-13264524D01*
X11777857Y-13283571D01*
X11787381Y-13321667D01*
X11787381Y-13369286D01*
X11777857Y-13407381D01*
X11768333Y-13426428D01*
X11758809Y-13435952D01*
X11739762Y-13445476D01*
X11720714Y-13445476D01*
X11701667Y-13435952D01*
X11692143Y-13426428D01*
X11682619Y-13407381D01*
X11673095Y-13369286D01*
X11673095Y-13321667D01*
X11682619Y-13283571D01*
X11692143Y-13264524D01*
X11701667Y-13255000D01*
X11720714Y-13245476D01*
X11873095Y-13426428D02*
X11882619Y-13435952D01*
X11873095Y-13445476D01*
X11863571Y-13435952D01*
X11873095Y-13426428D01*
X11873095Y-13445476D01*
X12063571Y-13245476D02*
X11968333Y-13245476D01*
X11958809Y-13340714D01*
X11968333Y-13331190D01*
X11987381Y-13321667D01*
X12035000Y-13321667D01*
X12054048Y-13331190D01*
X12063571Y-13340714D01*
X12073095Y-13359762D01*
X12073095Y-13407381D01*
X12063571Y-13426428D01*
X12054048Y-13435952D01*
X12035000Y-13445476D01*
X11987381Y-13445476D01*
X11968333Y-13435952D01*
X11958809Y-13426428D01*
X12196905Y-13245476D02*
X12215952Y-13245476D01*
X12235000Y-13255000D01*
X12244524Y-13264524D01*
X12254048Y-13283571D01*
X12263571Y-13321667D01*
X12263571Y-13369286D01*
X12254048Y-13407381D01*
X12244524Y-13426428D01*
X12235000Y-13435952D01*
X12215952Y-13445476D01*
X12196905Y-13445476D01*
X12177857Y-13435952D01*
X12168333Y-13426428D01*
X12158809Y-13407381D01*
X12149286Y-13369286D01*
X12149286Y-13321667D01*
X12158809Y-13283571D01*
X12168333Y-13264524D01*
X12177857Y-13255000D01*
X12196905Y-13245476D01*
X12387381Y-13245476D02*
X12406428Y-13245476D01*
X12425476Y-13255000D01*
X12435000Y-13264524D01*
X12444524Y-13283571D01*
X12454048Y-13321667D01*
X12454048Y-13369286D01*
X12444524Y-13407381D01*
X12435000Y-13426428D01*
X12425476Y-13435952D01*
X12406428Y-13445476D01*
X12387381Y-13445476D01*
X12368333Y-13435952D01*
X12358809Y-13426428D01*
X12349286Y-13407381D01*
X12339762Y-13369286D01*
X12339762Y-13321667D01*
X12349286Y-13283571D01*
X12358809Y-13264524D01*
X12368333Y-13255000D01*
X12387381Y-13245476D01*
X12539762Y-13445476D02*
X12539762Y-13312143D01*
X12539762Y-13331190D02*
X12549286Y-13321667D01*
X12568333Y-13312143D01*
X12596905Y-13312143D01*
X12615952Y-13321667D01*
X12625476Y-13340714D01*
X12625476Y-13445476D01*
X12625476Y-13340714D02*
X12635000Y-13321667D01*
X12654048Y-13312143D01*
X12682619Y-13312143D01*
X12701667Y-13321667D01*
X12711190Y-13340714D01*
X12711190Y-13445476D01*
X12806428Y-13445476D02*
X12806428Y-13312143D01*
X12806428Y-13331190D02*
X12815952Y-13321667D01*
X12835000Y-13312143D01*
X12863571Y-13312143D01*
X12882619Y-13321667D01*
X12892143Y-13340714D01*
X12892143Y-13445476D01*
X12892143Y-13340714D02*
X12901667Y-13321667D01*
X12920714Y-13312143D01*
X12949286Y-13312143D01*
X12968333Y-13321667D01*
X12977857Y-13340714D01*
X12977857Y-13445476D01*
X13368333Y-13235952D02*
X13196905Y-13493095D01*
X13625476Y-13245476D02*
X13644524Y-13245476D01*
X13663571Y-13255000D01*
X13673095Y-13264524D01*
X13682619Y-13283571D01*
X13692143Y-13321667D01*
X13692143Y-13369286D01*
X13682619Y-13407381D01*
X13673095Y-13426428D01*
X13663571Y-13435952D01*
X13644524Y-13445476D01*
X13625476Y-13445476D01*
X13606428Y-13435952D01*
X13596905Y-13426428D01*
X13587381Y-13407381D01*
X13577857Y-13369286D01*
X13577857Y-13321667D01*
X13587381Y-13283571D01*
X13596905Y-13264524D01*
X13606428Y-13255000D01*
X13625476Y-13245476D01*
X13777857Y-13426428D02*
X13787381Y-13435952D01*
X13777857Y-13445476D01*
X13768333Y-13435952D01*
X13777857Y-13426428D01*
X13777857Y-13445476D01*
X13911190Y-13245476D02*
X13930238Y-13245476D01*
X13949286Y-13255000D01*
X13958809Y-13264524D01*
X13968333Y-13283571D01*
X13977857Y-13321667D01*
X13977857Y-13369286D01*
X13968333Y-13407381D01*
X13958809Y-13426428D01*
X13949286Y-13435952D01*
X13930238Y-13445476D01*
X13911190Y-13445476D01*
X13892143Y-13435952D01*
X13882619Y-13426428D01*
X13873095Y-13407381D01*
X13863571Y-13369286D01*
X13863571Y-13321667D01*
X13873095Y-13283571D01*
X13882619Y-13264524D01*
X13892143Y-13255000D01*
X13911190Y-13245476D01*
X14168333Y-13445476D02*
X14054048Y-13445476D01*
X14111190Y-13445476D02*
X14111190Y-13245476D01*
X14092143Y-13274048D01*
X14073095Y-13293095D01*
X14054048Y-13302619D01*
X14263571Y-13445476D02*
X14301667Y-13445476D01*
X14320714Y-13435952D01*
X14330238Y-13426428D01*
X14349286Y-13397857D01*
X14358809Y-13359762D01*
X14358809Y-13283571D01*
X14349286Y-13264524D01*
X14339762Y-13255000D01*
X14320714Y-13245476D01*
X14282619Y-13245476D01*
X14263571Y-13255000D01*
X14254048Y-13264524D01*
X14244524Y-13283571D01*
X14244524Y-13331190D01*
X14254048Y-13350238D01*
X14263571Y-13359762D01*
X14282619Y-13369286D01*
X14320714Y-13369286D01*
X14339762Y-13359762D01*
X14349286Y-13350238D01*
X14358809Y-13331190D01*
X14425476Y-13245476D02*
X14558809Y-13245476D01*
X14473095Y-13445476D01*
X14625476Y-13245476D02*
X14625476Y-13283571D01*
X14701667Y-13245476D02*
X14701667Y-13283571D01*
X14996905Y-13521667D02*
X14987381Y-13512143D01*
X14968333Y-13483571D01*
X14958809Y-13464524D01*
X14949286Y-13435952D01*
X14939762Y-13388333D01*
X14939762Y-13350238D01*
X14949286Y-13302619D01*
X14958809Y-13274048D01*
X14968333Y-13255000D01*
X14987381Y-13226428D01*
X14996905Y-13216905D01*
X15111190Y-13245476D02*
X15130238Y-13245476D01*
X15149286Y-13255000D01*
X15158809Y-13264524D01*
X15168333Y-13283571D01*
X15177857Y-13321667D01*
X15177857Y-13369286D01*
X15168333Y-13407381D01*
X15158809Y-13426428D01*
X15149286Y-13435952D01*
X15130238Y-13445476D01*
X15111190Y-13445476D01*
X15092143Y-13435952D01*
X15082619Y-13426428D01*
X15073095Y-13407381D01*
X15063571Y-13369286D01*
X15063571Y-13321667D01*
X15073095Y-13283571D01*
X15082619Y-13264524D01*
X15092143Y-13255000D01*
X15111190Y-13245476D01*
X15415952Y-13445476D02*
X15415952Y-13245476D01*
X15501667Y-13445476D02*
X15501667Y-13340714D01*
X15492143Y-13321667D01*
X15473095Y-13312143D01*
X15444524Y-13312143D01*
X15425476Y-13321667D01*
X15415952Y-13331190D01*
X15625476Y-13445476D02*
X15606428Y-13435952D01*
X15596905Y-13426428D01*
X15587381Y-13407381D01*
X15587381Y-13350238D01*
X15596905Y-13331190D01*
X15606428Y-13321667D01*
X15625476Y-13312143D01*
X15654048Y-13312143D01*
X15673095Y-13321667D01*
X15682619Y-13331190D01*
X15692143Y-13350238D01*
X15692143Y-13407381D01*
X15682619Y-13426428D01*
X15673095Y-13435952D01*
X15654048Y-13445476D01*
X15625476Y-13445476D01*
X15806428Y-13445476D02*
X15787381Y-13435952D01*
X15777857Y-13416905D01*
X15777857Y-13245476D01*
X15958809Y-13435952D02*
X15939762Y-13445476D01*
X15901667Y-13445476D01*
X15882619Y-13435952D01*
X15873095Y-13416905D01*
X15873095Y-13340714D01*
X15882619Y-13321667D01*
X15901667Y-13312143D01*
X15939762Y-13312143D01*
X15958809Y-13321667D01*
X15968333Y-13340714D01*
X15968333Y-13359762D01*
X15873095Y-13378809D01*
X16044524Y-13435952D02*
X16063571Y-13445476D01*
X16101667Y-13445476D01*
X16120714Y-13435952D01*
X16130238Y-13416905D01*
X16130238Y-13407381D01*
X16120714Y-13388333D01*
X16101667Y-13378809D01*
X16073095Y-13378809D01*
X16054048Y-13369286D01*
X16044524Y-13350238D01*
X16044524Y-13340714D01*
X16054048Y-13321667D01*
X16073095Y-13312143D01*
X16101667Y-13312143D01*
X16120714Y-13321667D01*
X16368333Y-13369286D02*
X16520714Y-13369286D01*
X16444524Y-13445476D02*
X16444524Y-13293095D01*
X16854048Y-13312143D02*
X16854048Y-13445476D01*
X16806429Y-13235952D02*
X16758809Y-13378809D01*
X16882619Y-13378809D01*
X17101667Y-13435952D02*
X17120714Y-13445476D01*
X17158810Y-13445476D01*
X17177857Y-13435952D01*
X17187381Y-13416905D01*
X17187381Y-13407381D01*
X17177857Y-13388333D01*
X17158810Y-13378809D01*
X17130238Y-13378809D01*
X17111190Y-13369286D01*
X17101667Y-13350238D01*
X17101667Y-13340714D01*
X17111190Y-13321667D01*
X17130238Y-13312143D01*
X17158810Y-13312143D01*
X17177857Y-13321667D01*
X17301667Y-13445476D02*
X17282619Y-13435952D01*
X17273095Y-13416905D01*
X17273095Y-13245476D01*
X17406429Y-13445476D02*
X17387381Y-13435952D01*
X17377857Y-13426428D01*
X17368333Y-13407381D01*
X17368333Y-13350238D01*
X17377857Y-13331190D01*
X17387381Y-13321667D01*
X17406429Y-13312143D01*
X17435000Y-13312143D01*
X17454048Y-13321667D01*
X17463571Y-13331190D01*
X17473095Y-13350238D01*
X17473095Y-13407381D01*
X17463571Y-13426428D01*
X17454048Y-13435952D01*
X17435000Y-13445476D01*
X17406429Y-13445476D01*
X17530238Y-13312143D02*
X17606429Y-13312143D01*
X17558810Y-13245476D02*
X17558810Y-13416905D01*
X17568333Y-13435952D01*
X17587381Y-13445476D01*
X17606429Y-13445476D01*
X17663571Y-13435952D02*
X17682619Y-13445476D01*
X17720714Y-13445476D01*
X17739762Y-13435952D01*
X17749286Y-13416905D01*
X17749286Y-13407381D01*
X17739762Y-13388333D01*
X17720714Y-13378809D01*
X17692143Y-13378809D01*
X17673095Y-13369286D01*
X17663571Y-13350238D01*
X17663571Y-13340714D01*
X17673095Y-13321667D01*
X17692143Y-13312143D01*
X17720714Y-13312143D01*
X17739762Y-13321667D01*
X17815952Y-13521667D02*
X17825476Y-13512143D01*
X17844524Y-13483571D01*
X17854048Y-13464524D01*
X17863571Y-13435952D01*
X17873095Y-13388333D01*
X17873095Y-13350238D01*
X17863571Y-13302619D01*
X17854048Y-13274048D01*
X17844524Y-13255000D01*
X17825476Y-13226428D01*
X17815952Y-13216905D01*
D14*
X11385000Y-13579000D02*
X11385000Y-13659000D01*
X11345000Y-13619000D02*
X11425000Y-13619000D01*
D11*
X11720714Y-13509476D02*
X11739762Y-13509476D01*
X11758809Y-13519000D01*
X11768333Y-13528524D01*
X11777857Y-13547571D01*
X11787381Y-13585667D01*
X11787381Y-13633286D01*
X11777857Y-13671381D01*
X11768333Y-13690428D01*
X11758809Y-13699952D01*
X11739762Y-13709476D01*
X11720714Y-13709476D01*
X11701667Y-13699952D01*
X11692143Y-13690428D01*
X11682619Y-13671381D01*
X11673095Y-13633286D01*
X11673095Y-13585667D01*
X11682619Y-13547571D01*
X11692143Y-13528524D01*
X11701667Y-13519000D01*
X11720714Y-13509476D01*
X11873095Y-13690428D02*
X11882619Y-13699952D01*
X11873095Y-13709476D01*
X11863571Y-13699952D01*
X11873095Y-13690428D01*
X11873095Y-13709476D01*
X11996905Y-13595190D02*
X11977857Y-13585667D01*
X11968333Y-13576143D01*
X11958809Y-13557095D01*
X11958809Y-13547571D01*
X11968333Y-13528524D01*
X11977857Y-13519000D01*
X11996905Y-13509476D01*
X12035000Y-13509476D01*
X12054048Y-13519000D01*
X12063571Y-13528524D01*
X12073095Y-13547571D01*
X12073095Y-13557095D01*
X12063571Y-13576143D01*
X12054048Y-13585667D01*
X12035000Y-13595190D01*
X11996905Y-13595190D01*
X11977857Y-13604714D01*
X11968333Y-13614238D01*
X11958809Y-13633286D01*
X11958809Y-13671381D01*
X11968333Y-13690428D01*
X11977857Y-13699952D01*
X11996905Y-13709476D01*
X12035000Y-13709476D01*
X12054048Y-13699952D01*
X12063571Y-13690428D01*
X12073095Y-13671381D01*
X12073095Y-13633286D01*
X12063571Y-13614238D01*
X12054048Y-13604714D01*
X12035000Y-13595190D01*
X12196905Y-13509476D02*
X12215952Y-13509476D01*
X12235000Y-13519000D01*
X12244524Y-13528524D01*
X12254048Y-13547571D01*
X12263571Y-13585667D01*
X12263571Y-13633286D01*
X12254048Y-13671381D01*
X12244524Y-13690428D01*
X12235000Y-13699952D01*
X12215952Y-13709476D01*
X12196905Y-13709476D01*
X12177857Y-13699952D01*
X12168333Y-13690428D01*
X12158809Y-13671381D01*
X12149286Y-13633286D01*
X12149286Y-13585667D01*
X12158809Y-13547571D01*
X12168333Y-13528524D01*
X12177857Y-13519000D01*
X12196905Y-13509476D01*
X12387381Y-13509476D02*
X12406428Y-13509476D01*
X12425476Y-13519000D01*
X12435000Y-13528524D01*
X12444524Y-13547571D01*
X12454048Y-13585667D01*
X12454048Y-13633286D01*
X12444524Y-13671381D01*
X12435000Y-13690428D01*
X12425476Y-13699952D01*
X12406428Y-13709476D01*
X12387381Y-13709476D01*
X12368333Y-13699952D01*
X12358809Y-13690428D01*
X12349286Y-13671381D01*
X12339762Y-13633286D01*
X12339762Y-13585667D01*
X12349286Y-13547571D01*
X12358809Y-13528524D01*
X12368333Y-13519000D01*
X12387381Y-13509476D01*
X12539762Y-13709476D02*
X12539762Y-13576143D01*
X12539762Y-13595190D02*
X12549286Y-13585667D01*
X12568333Y-13576143D01*
X12596905Y-13576143D01*
X12615952Y-13585667D01*
X12625476Y-13604714D01*
X12625476Y-13709476D01*
X12625476Y-13604714D02*
X12635000Y-13585667D01*
X12654048Y-13576143D01*
X12682619Y-13576143D01*
X12701667Y-13585667D01*
X12711190Y-13604714D01*
X12711190Y-13709476D01*
X12806428Y-13709476D02*
X12806428Y-13576143D01*
X12806428Y-13595190D02*
X12815952Y-13585667D01*
X12835000Y-13576143D01*
X12863571Y-13576143D01*
X12882619Y-13585667D01*
X12892143Y-13604714D01*
X12892143Y-13709476D01*
X12892143Y-13604714D02*
X12901667Y-13585667D01*
X12920714Y-13576143D01*
X12949286Y-13576143D01*
X12968333Y-13585667D01*
X12977857Y-13604714D01*
X12977857Y-13709476D01*
X13368333Y-13499952D02*
X13196905Y-13757095D01*
X13625476Y-13509476D02*
X13644524Y-13509476D01*
X13663571Y-13519000D01*
X13673095Y-13528524D01*
X13682619Y-13547571D01*
X13692143Y-13585667D01*
X13692143Y-13633286D01*
X13682619Y-13671381D01*
X13673095Y-13690428D01*
X13663571Y-13699952D01*
X13644524Y-13709476D01*
X13625476Y-13709476D01*
X13606428Y-13699952D01*
X13596905Y-13690428D01*
X13587381Y-13671381D01*
X13577857Y-13633286D01*
X13577857Y-13585667D01*
X13587381Y-13547571D01*
X13596905Y-13528524D01*
X13606428Y-13519000D01*
X13625476Y-13509476D01*
X13777857Y-13690428D02*
X13787381Y-13699952D01*
X13777857Y-13709476D01*
X13768333Y-13699952D01*
X13777857Y-13690428D01*
X13777857Y-13709476D01*
X13911190Y-13509476D02*
X13930238Y-13509476D01*
X13949286Y-13519000D01*
X13958809Y-13528524D01*
X13968333Y-13547571D01*
X13977857Y-13585667D01*
X13977857Y-13633286D01*
X13968333Y-13671381D01*
X13958809Y-13690428D01*
X13949286Y-13699952D01*
X13930238Y-13709476D01*
X13911190Y-13709476D01*
X13892143Y-13699952D01*
X13882619Y-13690428D01*
X13873095Y-13671381D01*
X13863571Y-13633286D01*
X13863571Y-13585667D01*
X13873095Y-13547571D01*
X13882619Y-13528524D01*
X13892143Y-13519000D01*
X13911190Y-13509476D01*
X14044524Y-13509476D02*
X14168333Y-13509476D01*
X14101667Y-13585667D01*
X14130238Y-13585667D01*
X14149286Y-13595190D01*
X14158809Y-13604714D01*
X14168333Y-13623762D01*
X14168333Y-13671381D01*
X14158809Y-13690428D01*
X14149286Y-13699952D01*
X14130238Y-13709476D01*
X14073095Y-13709476D01*
X14054048Y-13699952D01*
X14044524Y-13690428D01*
X14358809Y-13709476D02*
X14244524Y-13709476D01*
X14301667Y-13709476D02*
X14301667Y-13509476D01*
X14282619Y-13538048D01*
X14263571Y-13557095D01*
X14244524Y-13566619D01*
X14539762Y-13509476D02*
X14444524Y-13509476D01*
X14435000Y-13604714D01*
X14444524Y-13595190D01*
X14463571Y-13585667D01*
X14511190Y-13585667D01*
X14530238Y-13595190D01*
X14539762Y-13604714D01*
X14549286Y-13623762D01*
X14549286Y-13671381D01*
X14539762Y-13690428D01*
X14530238Y-13699952D01*
X14511190Y-13709476D01*
X14463571Y-13709476D01*
X14444524Y-13699952D01*
X14435000Y-13690428D01*
X14625476Y-13509476D02*
X14625476Y-13547571D01*
X14701667Y-13509476D02*
X14701667Y-13547571D01*
X14996905Y-13785667D02*
X14987381Y-13776143D01*
X14968333Y-13747571D01*
X14958809Y-13728524D01*
X14949286Y-13699952D01*
X14939762Y-13652333D01*
X14939762Y-13614238D01*
X14949286Y-13566619D01*
X14958809Y-13538048D01*
X14968333Y-13519000D01*
X14987381Y-13490428D01*
X14996905Y-13480905D01*
X15177857Y-13709476D02*
X15063571Y-13709476D01*
X15120714Y-13709476D02*
X15120714Y-13509476D01*
X15101667Y-13538048D01*
X15082619Y-13557095D01*
X15063571Y-13566619D01*
X15301667Y-13509476D02*
X15320714Y-13509476D01*
X15339762Y-13519000D01*
X15349286Y-13528524D01*
X15358809Y-13547571D01*
X15368333Y-13585667D01*
X15368333Y-13633286D01*
X15358809Y-13671381D01*
X15349286Y-13690428D01*
X15339762Y-13699952D01*
X15320714Y-13709476D01*
X15301667Y-13709476D01*
X15282619Y-13699952D01*
X15273095Y-13690428D01*
X15263571Y-13671381D01*
X15254048Y-13633286D01*
X15254048Y-13585667D01*
X15263571Y-13547571D01*
X15273095Y-13528524D01*
X15282619Y-13519000D01*
X15301667Y-13509476D01*
X15606428Y-13709476D02*
X15606428Y-13509476D01*
X15692143Y-13709476D02*
X15692143Y-13604714D01*
X15682619Y-13585667D01*
X15663571Y-13576143D01*
X15635000Y-13576143D01*
X15615952Y-13585667D01*
X15606428Y-13595190D01*
X15815952Y-13709476D02*
X15796905Y-13699952D01*
X15787381Y-13690428D01*
X15777857Y-13671381D01*
X15777857Y-13614238D01*
X15787381Y-13595190D01*
X15796905Y-13585667D01*
X15815952Y-13576143D01*
X15844524Y-13576143D01*
X15863571Y-13585667D01*
X15873095Y-13595190D01*
X15882619Y-13614238D01*
X15882619Y-13671381D01*
X15873095Y-13690428D01*
X15863571Y-13699952D01*
X15844524Y-13709476D01*
X15815952Y-13709476D01*
X15996905Y-13709476D02*
X15977857Y-13699952D01*
X15968333Y-13680905D01*
X15968333Y-13509476D01*
X16149286Y-13699952D02*
X16130238Y-13709476D01*
X16092143Y-13709476D01*
X16073095Y-13699952D01*
X16063571Y-13680905D01*
X16063571Y-13604714D01*
X16073095Y-13585667D01*
X16092143Y-13576143D01*
X16130238Y-13576143D01*
X16149286Y-13585667D01*
X16158809Y-13604714D01*
X16158809Y-13623762D01*
X16063571Y-13642809D01*
X16235000Y-13699952D02*
X16254048Y-13709476D01*
X16292143Y-13709476D01*
X16311190Y-13699952D01*
X16320714Y-13680905D01*
X16320714Y-13671381D01*
X16311190Y-13652333D01*
X16292143Y-13642809D01*
X16263571Y-13642809D01*
X16244524Y-13633286D01*
X16235000Y-13614238D01*
X16235000Y-13604714D01*
X16244524Y-13585667D01*
X16263571Y-13576143D01*
X16292143Y-13576143D01*
X16311190Y-13585667D01*
X16387381Y-13785667D02*
X16396905Y-13776143D01*
X16415952Y-13747571D01*
X16425476Y-13728524D01*
X16435000Y-13699952D01*
X16444524Y-13652333D01*
X16444524Y-13614238D01*
X16435000Y-13566619D01*
X16425476Y-13538048D01*
X16415952Y-13519000D01*
X16396905Y-13490428D01*
X16387381Y-13480905D01*
D15*
X11400105Y-13943105D02*
X11400105Y-13822895D01*
X11279895Y-13822895D01*
X11279895Y-13943105D01*
X11400105Y-13943105D01*
D11*
X11787381Y-13973476D02*
X11673095Y-13973476D01*
X11730238Y-13973476D02*
X11730238Y-13773476D01*
X11711190Y-13802048D01*
X11692143Y-13821095D01*
X11673095Y-13830619D01*
X11873095Y-13954428D02*
X11882619Y-13963952D01*
X11873095Y-13973476D01*
X11863571Y-13963952D01*
X11873095Y-13954428D01*
X11873095Y-13973476D01*
X11949286Y-13773476D02*
X12082619Y-13773476D01*
X11996905Y-13973476D01*
X12196905Y-13773476D02*
X12215952Y-13773476D01*
X12235000Y-13783000D01*
X12244524Y-13792524D01*
X12254048Y-13811571D01*
X12263571Y-13849667D01*
X12263571Y-13897286D01*
X12254048Y-13935381D01*
X12244524Y-13954428D01*
X12235000Y-13963952D01*
X12215952Y-13973476D01*
X12196905Y-13973476D01*
X12177857Y-13963952D01*
X12168333Y-13954428D01*
X12158809Y-13935381D01*
X12149286Y-13897286D01*
X12149286Y-13849667D01*
X12158809Y-13811571D01*
X12168333Y-13792524D01*
X12177857Y-13783000D01*
X12196905Y-13773476D01*
X12387381Y-13773476D02*
X12406428Y-13773476D01*
X12425476Y-13783000D01*
X12435000Y-13792524D01*
X12444524Y-13811571D01*
X12454048Y-13849667D01*
X12454048Y-13897286D01*
X12444524Y-13935381D01*
X12435000Y-13954428D01*
X12425476Y-13963952D01*
X12406428Y-13973476D01*
X12387381Y-13973476D01*
X12368333Y-13963952D01*
X12358809Y-13954428D01*
X12349286Y-13935381D01*
X12339762Y-13897286D01*
X12339762Y-13849667D01*
X12349286Y-13811571D01*
X12358809Y-13792524D01*
X12368333Y-13783000D01*
X12387381Y-13773476D01*
X12539762Y-13973476D02*
X12539762Y-13840143D01*
X12539762Y-13859190D02*
X12549286Y-13849667D01*
X12568333Y-13840143D01*
X12596905Y-13840143D01*
X12615952Y-13849667D01*
X12625476Y-13868714D01*
X12625476Y-13973476D01*
X12625476Y-13868714D02*
X12635000Y-13849667D01*
X12654048Y-13840143D01*
X12682619Y-13840143D01*
X12701667Y-13849667D01*
X12711190Y-13868714D01*
X12711190Y-13973476D01*
X12806428Y-13973476D02*
X12806428Y-13840143D01*
X12806428Y-13859190D02*
X12815952Y-13849667D01*
X12835000Y-13840143D01*
X12863571Y-13840143D01*
X12882619Y-13849667D01*
X12892143Y-13868714D01*
X12892143Y-13973476D01*
X12892143Y-13868714D02*
X12901667Y-13849667D01*
X12920714Y-13840143D01*
X12949286Y-13840143D01*
X12968333Y-13849667D01*
X12977857Y-13868714D01*
X12977857Y-13973476D01*
X13368333Y-13763952D02*
X13196905Y-14021095D01*
X13625476Y-13773476D02*
X13644524Y-13773476D01*
X13663571Y-13783000D01*
X13673095Y-13792524D01*
X13682619Y-13811571D01*
X13692143Y-13849667D01*
X13692143Y-13897286D01*
X13682619Y-13935381D01*
X13673095Y-13954428D01*
X13663571Y-13963952D01*
X13644524Y-13973476D01*
X13625476Y-13973476D01*
X13606428Y-13963952D01*
X13596905Y-13954428D01*
X13587381Y-13935381D01*
X13577857Y-13897286D01*
X13577857Y-13849667D01*
X13587381Y-13811571D01*
X13596905Y-13792524D01*
X13606428Y-13783000D01*
X13625476Y-13773476D01*
X13777857Y-13954428D02*
X13787381Y-13963952D01*
X13777857Y-13973476D01*
X13768333Y-13963952D01*
X13777857Y-13954428D01*
X13777857Y-13973476D01*
X13911190Y-13773476D02*
X13930238Y-13773476D01*
X13949286Y-13783000D01*
X13958809Y-13792524D01*
X13968333Y-13811571D01*
X13977857Y-13849667D01*
X13977857Y-13897286D01*
X13968333Y-13935381D01*
X13958809Y-13954428D01*
X13949286Y-13963952D01*
X13930238Y-13973476D01*
X13911190Y-13973476D01*
X13892143Y-13963952D01*
X13882619Y-13954428D01*
X13873095Y-13935381D01*
X13863571Y-13897286D01*
X13863571Y-13849667D01*
X13873095Y-13811571D01*
X13882619Y-13792524D01*
X13892143Y-13783000D01*
X13911190Y-13773476D01*
X14149286Y-13773476D02*
X14111190Y-13773476D01*
X14092143Y-13783000D01*
X14082619Y-13792524D01*
X14063571Y-13821095D01*
X14054048Y-13859190D01*
X14054048Y-13935381D01*
X14063571Y-13954428D01*
X14073095Y-13963952D01*
X14092143Y-13973476D01*
X14130238Y-13973476D01*
X14149286Y-13963952D01*
X14158809Y-13954428D01*
X14168333Y-13935381D01*
X14168333Y-13887762D01*
X14158809Y-13868714D01*
X14149286Y-13859190D01*
X14130238Y-13849667D01*
X14092143Y-13849667D01*
X14073095Y-13859190D01*
X14063571Y-13868714D01*
X14054048Y-13887762D01*
X14339762Y-13773476D02*
X14301667Y-13773476D01*
X14282619Y-13783000D01*
X14273095Y-13792524D01*
X14254048Y-13821095D01*
X14244524Y-13859190D01*
X14244524Y-13935381D01*
X14254048Y-13954428D01*
X14263571Y-13963952D01*
X14282619Y-13973476D01*
X14320714Y-13973476D01*
X14339762Y-13963952D01*
X14349286Y-13954428D01*
X14358809Y-13935381D01*
X14358809Y-13887762D01*
X14349286Y-13868714D01*
X14339762Y-13859190D01*
X14320714Y-13849667D01*
X14282619Y-13849667D01*
X14263571Y-13859190D01*
X14254048Y-13868714D01*
X14244524Y-13887762D01*
X14454048Y-13973476D02*
X14492143Y-13973476D01*
X14511190Y-13963952D01*
X14520714Y-13954428D01*
X14539762Y-13925857D01*
X14549286Y-13887762D01*
X14549286Y-13811571D01*
X14539762Y-13792524D01*
X14530238Y-13783000D01*
X14511190Y-13773476D01*
X14473095Y-13773476D01*
X14454048Y-13783000D01*
X14444524Y-13792524D01*
X14435000Y-13811571D01*
X14435000Y-13859190D01*
X14444524Y-13878238D01*
X14454048Y-13887762D01*
X14473095Y-13897286D01*
X14511190Y-13897286D01*
X14530238Y-13887762D01*
X14539762Y-13878238D01*
X14549286Y-13859190D01*
X14625476Y-13773476D02*
X14625476Y-13811571D01*
X14701667Y-13773476D02*
X14701667Y-13811571D01*
X14996905Y-14049667D02*
X14987381Y-14040143D01*
X14968333Y-14011571D01*
X14958809Y-13992524D01*
X14949286Y-13963952D01*
X14939762Y-13916333D01*
X14939762Y-13878238D01*
X14949286Y-13830619D01*
X14958809Y-13802048D01*
X14968333Y-13783000D01*
X14987381Y-13754428D01*
X14996905Y-13744905D01*
X15101667Y-13859190D02*
X15082619Y-13849667D01*
X15073095Y-13840143D01*
X15063571Y-13821095D01*
X15063571Y-13811571D01*
X15073095Y-13792524D01*
X15082619Y-13783000D01*
X15101667Y-13773476D01*
X15139762Y-13773476D01*
X15158809Y-13783000D01*
X15168333Y-13792524D01*
X15177857Y-13811571D01*
X15177857Y-13821095D01*
X15168333Y-13840143D01*
X15158809Y-13849667D01*
X15139762Y-13859190D01*
X15101667Y-13859190D01*
X15082619Y-13868714D01*
X15073095Y-13878238D01*
X15063571Y-13897286D01*
X15063571Y-13935381D01*
X15073095Y-13954428D01*
X15082619Y-13963952D01*
X15101667Y-13973476D01*
X15139762Y-13973476D01*
X15158809Y-13963952D01*
X15168333Y-13954428D01*
X15177857Y-13935381D01*
X15177857Y-13897286D01*
X15168333Y-13878238D01*
X15158809Y-13868714D01*
X15139762Y-13859190D01*
X15415952Y-13973476D02*
X15415952Y-13773476D01*
X15501667Y-13973476D02*
X15501667Y-13868714D01*
X15492143Y-13849667D01*
X15473095Y-13840143D01*
X15444524Y-13840143D01*
X15425476Y-13849667D01*
X15415952Y-13859190D01*
X15625476Y-13973476D02*
X15606428Y-13963952D01*
X15596905Y-13954428D01*
X15587381Y-13935381D01*
X15587381Y-13878238D01*
X15596905Y-13859190D01*
X15606428Y-13849667D01*
X15625476Y-13840143D01*
X15654048Y-13840143D01*
X15673095Y-13849667D01*
X15682619Y-13859190D01*
X15692143Y-13878238D01*
X15692143Y-13935381D01*
X15682619Y-13954428D01*
X15673095Y-13963952D01*
X15654048Y-13973476D01*
X15625476Y-13973476D01*
X15806428Y-13973476D02*
X15787381Y-13963952D01*
X15777857Y-13944905D01*
X15777857Y-13773476D01*
X15958809Y-13963952D02*
X15939762Y-13973476D01*
X15901667Y-13973476D01*
X15882619Y-13963952D01*
X15873095Y-13944905D01*
X15873095Y-13868714D01*
X15882619Y-13849667D01*
X15901667Y-13840143D01*
X15939762Y-13840143D01*
X15958809Y-13849667D01*
X15968333Y-13868714D01*
X15968333Y-13887762D01*
X15873095Y-13906809D01*
X16044524Y-13963952D02*
X16063571Y-13973476D01*
X16101667Y-13973476D01*
X16120714Y-13963952D01*
X16130238Y-13944905D01*
X16130238Y-13935381D01*
X16120714Y-13916333D01*
X16101667Y-13906809D01*
X16073095Y-13906809D01*
X16054048Y-13897286D01*
X16044524Y-13878238D01*
X16044524Y-13868714D01*
X16054048Y-13849667D01*
X16073095Y-13840143D01*
X16101667Y-13840143D01*
X16120714Y-13849667D01*
X16196905Y-14049667D02*
X16206428Y-14040143D01*
X16225476Y-14011571D01*
X16235000Y-13992524D01*
X16244524Y-13963952D01*
X16254048Y-13916333D01*
X16254048Y-13878238D01*
X16244524Y-13830619D01*
X16235000Y-13802048D01*
X16225476Y-13783000D01*
X16206428Y-13754428D01*
X16196905Y-13744905D01*
X11325000Y-14273000D02*
X11425000Y-14173000D01*
X11325000Y-14073000D01*
X11225000Y-14173000D01*
X11325000Y-14273000D01*
X11673095Y-14082524D02*
X11682619Y-14073000D01*
X11701667Y-14063476D01*
X11749286Y-14063476D01*
X11768333Y-14073000D01*
X11777857Y-14082524D01*
X11787381Y-14101571D01*
X11787381Y-14120619D01*
X11777857Y-14149190D01*
X11663571Y-14263476D01*
X11787381Y-14263476D01*
X11873095Y-14244428D02*
X11882619Y-14253952D01*
X11873095Y-14263476D01*
X11863571Y-14253952D01*
X11873095Y-14244428D01*
X11873095Y-14263476D01*
X12006428Y-14063476D02*
X12025476Y-14063476D01*
X12044524Y-14073000D01*
X12054048Y-14082524D01*
X12063571Y-14101571D01*
X12073095Y-14139667D01*
X12073095Y-14187286D01*
X12063571Y-14225381D01*
X12054048Y-14244428D01*
X12044524Y-14253952D01*
X12025476Y-14263476D01*
X12006428Y-14263476D01*
X11987381Y-14253952D01*
X11977857Y-14244428D01*
X11968333Y-14225381D01*
X11958809Y-14187286D01*
X11958809Y-14139667D01*
X11968333Y-14101571D01*
X11977857Y-14082524D01*
X11987381Y-14073000D01*
X12006428Y-14063476D01*
X12196905Y-14063476D02*
X12215952Y-14063476D01*
X12235000Y-14073000D01*
X12244524Y-14082524D01*
X12254048Y-14101571D01*
X12263571Y-14139667D01*
X12263571Y-14187286D01*
X12254048Y-14225381D01*
X12244524Y-14244428D01*
X12235000Y-14253952D01*
X12215952Y-14263476D01*
X12196905Y-14263476D01*
X12177857Y-14253952D01*
X12168333Y-14244428D01*
X12158809Y-14225381D01*
X12149286Y-14187286D01*
X12149286Y-14139667D01*
X12158809Y-14101571D01*
X12168333Y-14082524D01*
X12177857Y-14073000D01*
X12196905Y-14063476D01*
X12387381Y-14063476D02*
X12406428Y-14063476D01*
X12425476Y-14073000D01*
X12435000Y-14082524D01*
X12444524Y-14101571D01*
X12454048Y-14139667D01*
X12454048Y-14187286D01*
X12444524Y-14225381D01*
X12435000Y-14244428D01*
X12425476Y-14253952D01*
X12406428Y-14263476D01*
X12387381Y-14263476D01*
X12368333Y-14253952D01*
X12358809Y-14244428D01*
X12349286Y-14225381D01*
X12339762Y-14187286D01*
X12339762Y-14139667D01*
X12349286Y-14101571D01*
X12358809Y-14082524D01*
X12368333Y-14073000D01*
X12387381Y-14063476D01*
X12539762Y-14263476D02*
X12539762Y-14130143D01*
X12539762Y-14149190D02*
X12549286Y-14139667D01*
X12568333Y-14130143D01*
X12596905Y-14130143D01*
X12615952Y-14139667D01*
X12625476Y-14158714D01*
X12625476Y-14263476D01*
X12625476Y-14158714D02*
X12635000Y-14139667D01*
X12654048Y-14130143D01*
X12682619Y-14130143D01*
X12701667Y-14139667D01*
X12711190Y-14158714D01*
X12711190Y-14263476D01*
X12806428Y-14263476D02*
X12806428Y-14130143D01*
X12806428Y-14149190D02*
X12815952Y-14139667D01*
X12835000Y-14130143D01*
X12863571Y-14130143D01*
X12882619Y-14139667D01*
X12892143Y-14158714D01*
X12892143Y-14263476D01*
X12892143Y-14158714D02*
X12901667Y-14139667D01*
X12920714Y-14130143D01*
X12949286Y-14130143D01*
X12968333Y-14139667D01*
X12977857Y-14158714D01*
X12977857Y-14263476D01*
X13368333Y-14053952D02*
X13196905Y-14311095D01*
X13625476Y-14063476D02*
X13644524Y-14063476D01*
X13663571Y-14073000D01*
X13673095Y-14082524D01*
X13682619Y-14101571D01*
X13692143Y-14139667D01*
X13692143Y-14187286D01*
X13682619Y-14225381D01*
X13673095Y-14244428D01*
X13663571Y-14253952D01*
X13644524Y-14263476D01*
X13625476Y-14263476D01*
X13606428Y-14253952D01*
X13596905Y-14244428D01*
X13587381Y-14225381D01*
X13577857Y-14187286D01*
X13577857Y-14139667D01*
X13587381Y-14101571D01*
X13596905Y-14082524D01*
X13606428Y-14073000D01*
X13625476Y-14063476D01*
X13777857Y-14244428D02*
X13787381Y-14253952D01*
X13777857Y-14263476D01*
X13768333Y-14253952D01*
X13777857Y-14244428D01*
X13777857Y-14263476D01*
X13911190Y-14063476D02*
X13930238Y-14063476D01*
X13949286Y-14073000D01*
X13958809Y-14082524D01*
X13968333Y-14101571D01*
X13977857Y-14139667D01*
X13977857Y-14187286D01*
X13968333Y-14225381D01*
X13958809Y-14244428D01*
X13949286Y-14253952D01*
X13930238Y-14263476D01*
X13911190Y-14263476D01*
X13892143Y-14253952D01*
X13882619Y-14244428D01*
X13873095Y-14225381D01*
X13863571Y-14187286D01*
X13863571Y-14139667D01*
X13873095Y-14101571D01*
X13882619Y-14082524D01*
X13892143Y-14073000D01*
X13911190Y-14063476D01*
X14044524Y-14063476D02*
X14177857Y-14063476D01*
X14092143Y-14263476D01*
X14282619Y-14149190D02*
X14263571Y-14139667D01*
X14254048Y-14130143D01*
X14244524Y-14111095D01*
X14244524Y-14101571D01*
X14254048Y-14082524D01*
X14263571Y-14073000D01*
X14282619Y-14063476D01*
X14320714Y-14063476D01*
X14339762Y-14073000D01*
X14349286Y-14082524D01*
X14358809Y-14101571D01*
X14358809Y-14111095D01*
X14349286Y-14130143D01*
X14339762Y-14139667D01*
X14320714Y-14149190D01*
X14282619Y-14149190D01*
X14263571Y-14158714D01*
X14254048Y-14168238D01*
X14244524Y-14187286D01*
X14244524Y-14225381D01*
X14254048Y-14244428D01*
X14263571Y-14253952D01*
X14282619Y-14263476D01*
X14320714Y-14263476D01*
X14339762Y-14253952D01*
X14349286Y-14244428D01*
X14358809Y-14225381D01*
X14358809Y-14187286D01*
X14349286Y-14168238D01*
X14339762Y-14158714D01*
X14320714Y-14149190D01*
X14425476Y-14063476D02*
X14558809Y-14063476D01*
X14473095Y-14263476D01*
X14625476Y-14063476D02*
X14625476Y-14101571D01*
X14701667Y-14063476D02*
X14701667Y-14101571D01*
X14996905Y-14339667D02*
X14987381Y-14330143D01*
X14968333Y-14301571D01*
X14958809Y-14282524D01*
X14949286Y-14253952D01*
X14939762Y-14206333D01*
X14939762Y-14168238D01*
X14949286Y-14120619D01*
X14958809Y-14092048D01*
X14968333Y-14073000D01*
X14987381Y-14044428D01*
X14996905Y-14034905D01*
X15168333Y-14063476D02*
X15073095Y-14063476D01*
X15063571Y-14158714D01*
X15073095Y-14149190D01*
X15092143Y-14139667D01*
X15139762Y-14139667D01*
X15158809Y-14149190D01*
X15168333Y-14158714D01*
X15177857Y-14177762D01*
X15177857Y-14225381D01*
X15168333Y-14244428D01*
X15158809Y-14253952D01*
X15139762Y-14263476D01*
X15092143Y-14263476D01*
X15073095Y-14253952D01*
X15063571Y-14244428D01*
X15415952Y-14263476D02*
X15415952Y-14063476D01*
X15501667Y-14263476D02*
X15501667Y-14158714D01*
X15492143Y-14139667D01*
X15473095Y-14130143D01*
X15444524Y-14130143D01*
X15425476Y-14139667D01*
X15415952Y-14149190D01*
X15625476Y-14263476D02*
X15606428Y-14253952D01*
X15596905Y-14244428D01*
X15587381Y-14225381D01*
X15587381Y-14168238D01*
X15596905Y-14149190D01*
X15606428Y-14139667D01*
X15625476Y-14130143D01*
X15654048Y-14130143D01*
X15673095Y-14139667D01*
X15682619Y-14149190D01*
X15692143Y-14168238D01*
X15692143Y-14225381D01*
X15682619Y-14244428D01*
X15673095Y-14253952D01*
X15654048Y-14263476D01*
X15625476Y-14263476D01*
X15806428Y-14263476D02*
X15787381Y-14253952D01*
X15777857Y-14234905D01*
X15777857Y-14063476D01*
X15958809Y-14253952D02*
X15939762Y-14263476D01*
X15901667Y-14263476D01*
X15882619Y-14253952D01*
X15873095Y-14234905D01*
X15873095Y-14158714D01*
X15882619Y-14139667D01*
X15901667Y-14130143D01*
X15939762Y-14130143D01*
X15958809Y-14139667D01*
X15968333Y-14158714D01*
X15968333Y-14177762D01*
X15873095Y-14196809D01*
X16044524Y-14253952D02*
X16063571Y-14263476D01*
X16101667Y-14263476D01*
X16120714Y-14253952D01*
X16130238Y-14234905D01*
X16130238Y-14225381D01*
X16120714Y-14206333D01*
X16101667Y-14196809D01*
X16073095Y-14196809D01*
X16054048Y-14187286D01*
X16044524Y-14168238D01*
X16044524Y-14158714D01*
X16054048Y-14139667D01*
X16073095Y-14130143D01*
X16101667Y-14130143D01*
X16120714Y-14139667D01*
X16196905Y-14339667D02*
X16206428Y-14330143D01*
X16225476Y-14301571D01*
X16235000Y-14282524D01*
X16244524Y-14253952D01*
X16254048Y-14206333D01*
X16254048Y-14168238D01*
X16244524Y-14120619D01*
X16235000Y-14092048D01*
X16225476Y-14073000D01*
X16206428Y-14044428D01*
X16196905Y-14034905D01*
X11225000Y-14393000D02*
X11425000Y-14593000D01*
X11425000Y-14393000D02*
X11225000Y-14593000D01*
X11425000Y-14493000D02*
G75*
G03*
X11425000Y-14493000I-100000J0D01*
G01*
X11768333Y-14450143D02*
X11768333Y-14583476D01*
X11720714Y-14373952D02*
X11673095Y-14516809D01*
X11796905Y-14516809D01*
X11873095Y-14564428D02*
X11882619Y-14573952D01*
X11873095Y-14583476D01*
X11863571Y-14573952D01*
X11873095Y-14564428D01*
X11873095Y-14583476D01*
X12063571Y-14383476D02*
X11968333Y-14383476D01*
X11958809Y-14478714D01*
X11968333Y-14469190D01*
X11987381Y-14459667D01*
X12035000Y-14459667D01*
X12054048Y-14469190D01*
X12063571Y-14478714D01*
X12073095Y-14497762D01*
X12073095Y-14545381D01*
X12063571Y-14564428D01*
X12054048Y-14573952D01*
X12035000Y-14583476D01*
X11987381Y-14583476D01*
X11968333Y-14573952D01*
X11958809Y-14564428D01*
X12254048Y-14383476D02*
X12158809Y-14383476D01*
X12149286Y-14478714D01*
X12158809Y-14469190D01*
X12177857Y-14459667D01*
X12225476Y-14459667D01*
X12244524Y-14469190D01*
X12254048Y-14478714D01*
X12263571Y-14497762D01*
X12263571Y-14545381D01*
X12254048Y-14564428D01*
X12244524Y-14573952D01*
X12225476Y-14583476D01*
X12177857Y-14583476D01*
X12158809Y-14573952D01*
X12149286Y-14564428D01*
X12387381Y-14383476D02*
X12406428Y-14383476D01*
X12425476Y-14393000D01*
X12435000Y-14402524D01*
X12444524Y-14421571D01*
X12454048Y-14459667D01*
X12454048Y-14507286D01*
X12444524Y-14545381D01*
X12435000Y-14564428D01*
X12425476Y-14573952D01*
X12406428Y-14583476D01*
X12387381Y-14583476D01*
X12368333Y-14573952D01*
X12358809Y-14564428D01*
X12349286Y-14545381D01*
X12339762Y-14507286D01*
X12339762Y-14459667D01*
X12349286Y-14421571D01*
X12358809Y-14402524D01*
X12368333Y-14393000D01*
X12387381Y-14383476D01*
X12539762Y-14583476D02*
X12539762Y-14450143D01*
X12539762Y-14469190D02*
X12549286Y-14459667D01*
X12568333Y-14450143D01*
X12596905Y-14450143D01*
X12615952Y-14459667D01*
X12625476Y-14478714D01*
X12625476Y-14583476D01*
X12625476Y-14478714D02*
X12635000Y-14459667D01*
X12654048Y-14450143D01*
X12682619Y-14450143D01*
X12701667Y-14459667D01*
X12711190Y-14478714D01*
X12711190Y-14583476D01*
X12806428Y-14583476D02*
X12806428Y-14450143D01*
X12806428Y-14469190D02*
X12815952Y-14459667D01*
X12835000Y-14450143D01*
X12863571Y-14450143D01*
X12882619Y-14459667D01*
X12892143Y-14478714D01*
X12892143Y-14583476D01*
X12892143Y-14478714D02*
X12901667Y-14459667D01*
X12920714Y-14450143D01*
X12949286Y-14450143D01*
X12968333Y-14459667D01*
X12977857Y-14478714D01*
X12977857Y-14583476D01*
X13368333Y-14373952D02*
X13196905Y-14631095D01*
X13625476Y-14383476D02*
X13644524Y-14383476D01*
X13663571Y-14393000D01*
X13673095Y-14402524D01*
X13682619Y-14421571D01*
X13692143Y-14459667D01*
X13692143Y-14507286D01*
X13682619Y-14545381D01*
X13673095Y-14564428D01*
X13663571Y-14573952D01*
X13644524Y-14583476D01*
X13625476Y-14583476D01*
X13606428Y-14573952D01*
X13596905Y-14564428D01*
X13587381Y-14545381D01*
X13577857Y-14507286D01*
X13577857Y-14459667D01*
X13587381Y-14421571D01*
X13596905Y-14402524D01*
X13606428Y-14393000D01*
X13625476Y-14383476D01*
X13777857Y-14564428D02*
X13787381Y-14573952D01*
X13777857Y-14583476D01*
X13768333Y-14573952D01*
X13777857Y-14564428D01*
X13777857Y-14583476D01*
X13977857Y-14583476D02*
X13863571Y-14583476D01*
X13920714Y-14583476D02*
X13920714Y-14383476D01*
X13901667Y-14412048D01*
X13882619Y-14431095D01*
X13863571Y-14440619D01*
X14044524Y-14383476D02*
X14177857Y-14383476D01*
X14092143Y-14583476D01*
X14263571Y-14583476D02*
X14301667Y-14583476D01*
X14320714Y-14573952D01*
X14330238Y-14564428D01*
X14349286Y-14535857D01*
X14358809Y-14497762D01*
X14358809Y-14421571D01*
X14349286Y-14402524D01*
X14339762Y-14393000D01*
X14320714Y-14383476D01*
X14282619Y-14383476D01*
X14263571Y-14393000D01*
X14254048Y-14402524D01*
X14244524Y-14421571D01*
X14244524Y-14469190D01*
X14254048Y-14488238D01*
X14263571Y-14497762D01*
X14282619Y-14507286D01*
X14320714Y-14507286D01*
X14339762Y-14497762D01*
X14349286Y-14488238D01*
X14358809Y-14469190D01*
X14549286Y-14583476D02*
X14435000Y-14583476D01*
X14492143Y-14583476D02*
X14492143Y-14383476D01*
X14473095Y-14412048D01*
X14454048Y-14431095D01*
X14435000Y-14440619D01*
X14625476Y-14383476D02*
X14625476Y-14421571D01*
X14701667Y-14383476D02*
X14701667Y-14421571D01*
X14996905Y-14659667D02*
X14987381Y-14650143D01*
X14968333Y-14621571D01*
X14958809Y-14602524D01*
X14949286Y-14573952D01*
X14939762Y-14526333D01*
X14939762Y-14488238D01*
X14949286Y-14440619D01*
X14958809Y-14412048D01*
X14968333Y-14393000D01*
X14987381Y-14364428D01*
X14996905Y-14354905D01*
X15063571Y-14402524D02*
X15073095Y-14393000D01*
X15092143Y-14383476D01*
X15139762Y-14383476D01*
X15158809Y-14393000D01*
X15168333Y-14402524D01*
X15177857Y-14421571D01*
X15177857Y-14440619D01*
X15168333Y-14469190D01*
X15054048Y-14583476D01*
X15177857Y-14583476D01*
X15415952Y-14583476D02*
X15415952Y-14383476D01*
X15501667Y-14583476D02*
X15501667Y-14478714D01*
X15492143Y-14459667D01*
X15473095Y-14450143D01*
X15444524Y-14450143D01*
X15425476Y-14459667D01*
X15415952Y-14469190D01*
X15625476Y-14583476D02*
X15606428Y-14573952D01*
X15596905Y-14564428D01*
X15587381Y-14545381D01*
X15587381Y-14488238D01*
X15596905Y-14469190D01*
X15606428Y-14459667D01*
X15625476Y-14450143D01*
X15654048Y-14450143D01*
X15673095Y-14459667D01*
X15682619Y-14469190D01*
X15692143Y-14488238D01*
X15692143Y-14545381D01*
X15682619Y-14564428D01*
X15673095Y-14573952D01*
X15654048Y-14583476D01*
X15625476Y-14583476D01*
X15806428Y-14583476D02*
X15787381Y-14573952D01*
X15777857Y-14554905D01*
X15777857Y-14383476D01*
X15958809Y-14573952D02*
X15939762Y-14583476D01*
X15901667Y-14583476D01*
X15882619Y-14573952D01*
X15873095Y-14554905D01*
X15873095Y-14478714D01*
X15882619Y-14459667D01*
X15901667Y-14450143D01*
X15939762Y-14450143D01*
X15958809Y-14459667D01*
X15968333Y-14478714D01*
X15968333Y-14497762D01*
X15873095Y-14516809D01*
X16044524Y-14573952D02*
X16063571Y-14583476D01*
X16101667Y-14583476D01*
X16120714Y-14573952D01*
X16130238Y-14554905D01*
X16130238Y-14545381D01*
X16120714Y-14526333D01*
X16101667Y-14516809D01*
X16073095Y-14516809D01*
X16054048Y-14507286D01*
X16044524Y-14488238D01*
X16044524Y-14478714D01*
X16054048Y-14459667D01*
X16073095Y-14450143D01*
X16101667Y-14450143D01*
X16120714Y-14459667D01*
X16196905Y-14659667D02*
X16206428Y-14650143D01*
X16225476Y-14621571D01*
X16235000Y-14602524D01*
X16244524Y-14573952D01*
X16254048Y-14526333D01*
X16254048Y-14488238D01*
X16244524Y-14440619D01*
X16235000Y-14412048D01*
X16225476Y-14393000D01*
X16206428Y-14364428D01*
X16196905Y-14354905D01*
M02*
