G04 #@! TF.GenerationSoftware,KiCad,Pcbnew,(6.0.7)*
G04 #@! TF.CreationDate,2022-11-10T23:39:13-08:00*
G04 #@! TF.ProjectId,Gimbal,47696d62-616c-42e6-9b69-6361645f7063,rev?*
G04 #@! TF.SameCoordinates,Original*
G04 #@! TF.FileFunction,Legend,Top*
G04 #@! TF.FilePolarity,Positive*
%FSLAX46Y46*%
G04 Gerber Fmt 4.6, Leading zero omitted, Abs format (unit mm)*
G04 Created by KiCad (PCBNEW (6.0.7)) date 2022-11-10 23:39:13*
%MOMM*%
%LPD*%
G01*
G04 APERTURE LIST*
G04 Aperture macros list*
%AMRoundRect*
0 Rectangle with rounded corners*
0 $1 Rounding radius*
0 $2 $3 $4 $5 $6 $7 $8 $9 X,Y pos of 4 corners*
0 Add a 4 corners polygon primitive as box body*
4,1,4,$2,$3,$4,$5,$6,$7,$8,$9,$2,$3,0*
0 Add four circle primitives for the rounded corners*
1,1,$1+$1,$2,$3*
1,1,$1+$1,$4,$5*
1,1,$1+$1,$6,$7*
1,1,$1+$1,$8,$9*
0 Add four rect primitives between the rounded corners*
20,1,$1+$1,$2,$3,$4,$5,0*
20,1,$1+$1,$4,$5,$6,$7,0*
20,1,$1+$1,$6,$7,$8,$9,0*
20,1,$1+$1,$8,$9,$2,$3,0*%
G04 Aperture macros list end*
%ADD10C,0.150000*%
%ADD11C,0.300000*%
%ADD12C,0.100000*%
%ADD13C,0.120000*%
%ADD14C,0.127000*%
%ADD15C,0.200000*%
%ADD16C,0.125000*%
%ADD17O,2.600000X1.300000*%
%ADD18O,2.300000X1.300000*%
%ADD19R,1.000000X0.520000*%
%ADD20R,1.000000X0.270000*%
%ADD21O,0.600000X0.850000*%
%ADD22C,0.600000*%
%ADD23R,2.000000X1.000000*%
%ADD24R,3.600000X2.700000*%
%ADD25RoundRect,0.250000X-0.262500X-0.450000X0.262500X-0.450000X0.262500X0.450000X-0.262500X0.450000X0*%
%ADD26R,1.000000X0.900000*%
%ADD27C,3.600000*%
%ADD28RoundRect,0.250000X-0.475000X0.250000X-0.475000X-0.250000X0.475000X-0.250000X0.475000X0.250000X0*%
%ADD29RoundRect,0.250000X-0.250000X-0.475000X0.250000X-0.475000X0.250000X0.475000X-0.250000X0.475000X0*%
%ADD30R,1.350000X1.350000*%
%ADD31O,1.350000X1.350000*%
%ADD32R,0.800000X4.600000*%
%ADD33R,10.800000X9.400000*%
%ADD34RoundRect,0.250000X0.475000X-0.250000X0.475000X0.250000X-0.475000X0.250000X-0.475000X-0.250000X0*%
%ADD35RoundRect,0.250000X0.262500X0.450000X-0.262500X0.450000X-0.262500X-0.450000X0.262500X-0.450000X0*%
%ADD36R,1.500000X0.900000*%
%ADD37R,0.900000X1.500000*%
%ADD38R,0.900000X0.900000*%
%ADD39RoundRect,0.250000X-1.800000X1.330000X-1.800000X-1.330000X1.800000X-1.330000X1.800000X1.330000X0*%
%ADD40O,4.100000X3.160000*%
%ADD41R,1.220000X0.650000*%
%ADD42RoundRect,0.250000X-0.450000X0.262500X-0.450000X-0.262500X0.450000X-0.262500X0.450000X0.262500X0*%
%ADD43RoundRect,0.243750X-0.456250X0.243750X-0.456250X-0.243750X0.456250X-0.243750X0.456250X0.243750X0*%
%ADD44RoundRect,0.008100X0.421900X0.126900X-0.421900X0.126900X-0.421900X-0.126900X0.421900X-0.126900X0*%
%ADD45RoundRect,0.008100X-0.126900X0.421900X-0.126900X-0.421900X0.126900X-0.421900X0.126900X0.421900X0*%
%ADD46R,2.450000X2.450000*%
%ADD47R,0.250000X0.675000*%
%ADD48R,0.675000X0.250000*%
%ADD49RoundRect,0.250000X0.450000X-0.262500X0.450000X0.262500X-0.450000X0.262500X-0.450000X-0.262500X0*%
%ADD50C,6.000000*%
%ADD51R,6.000000X6.000000*%
%ADD52R,0.450000X0.600000*%
%ADD53R,1.600000X1.600000*%
%ADD54C,1.600000*%
%ADD55R,2.500000X3.300000*%
G04 APERTURE END LIST*
D10*
X180332190Y-65238380D02*
X180665523Y-66238380D01*
X180998857Y-65238380D01*
X181332190Y-66238380D02*
X181332190Y-65571714D01*
X181332190Y-65238380D02*
X181284571Y-65286000D01*
X181332190Y-65333619D01*
X181379809Y-65286000D01*
X181332190Y-65238380D01*
X181332190Y-65333619D01*
X181808380Y-65571714D02*
X181808380Y-66238380D01*
X181808380Y-65666952D02*
X181856000Y-65619333D01*
X181951238Y-65571714D01*
X182094095Y-65571714D01*
X182189333Y-65619333D01*
X182236952Y-65714571D01*
X182236952Y-66238380D01*
D11*
X153901142Y-118630000D02*
X153758285Y-118558571D01*
X153544000Y-118558571D01*
X153329714Y-118630000D01*
X153186857Y-118772857D01*
X153115428Y-118915714D01*
X153044000Y-119201428D01*
X153044000Y-119415714D01*
X153115428Y-119701428D01*
X153186857Y-119844285D01*
X153329714Y-119987142D01*
X153544000Y-120058571D01*
X153686857Y-120058571D01*
X153901142Y-119987142D01*
X153972571Y-119915714D01*
X153972571Y-119415714D01*
X153686857Y-119415714D01*
X154615428Y-120058571D02*
X154615428Y-119058571D01*
X154615428Y-118558571D02*
X154544000Y-118630000D01*
X154615428Y-118701428D01*
X154686857Y-118630000D01*
X154615428Y-118558571D01*
X154615428Y-118701428D01*
X155329714Y-120058571D02*
X155329714Y-119058571D01*
X155329714Y-119201428D02*
X155401142Y-119130000D01*
X155544000Y-119058571D01*
X155758285Y-119058571D01*
X155901142Y-119130000D01*
X155972571Y-119272857D01*
X155972571Y-120058571D01*
X155972571Y-119272857D02*
X156044000Y-119130000D01*
X156186857Y-119058571D01*
X156401142Y-119058571D01*
X156544000Y-119130000D01*
X156615428Y-119272857D01*
X156615428Y-120058571D01*
X157329714Y-120058571D02*
X157329714Y-118558571D01*
X157329714Y-119130000D02*
X157472571Y-119058571D01*
X157758285Y-119058571D01*
X157901142Y-119130000D01*
X157972571Y-119201428D01*
X158044000Y-119344285D01*
X158044000Y-119772857D01*
X157972571Y-119915714D01*
X157901142Y-119987142D01*
X157758285Y-120058571D01*
X157472571Y-120058571D01*
X157329714Y-119987142D01*
X159329714Y-120058571D02*
X159329714Y-119272857D01*
X159258285Y-119130000D01*
X159115428Y-119058571D01*
X158829714Y-119058571D01*
X158686857Y-119130000D01*
X159329714Y-119987142D02*
X159186857Y-120058571D01*
X158829714Y-120058571D01*
X158686857Y-119987142D01*
X158615428Y-119844285D01*
X158615428Y-119701428D01*
X158686857Y-119558571D01*
X158829714Y-119487142D01*
X159186857Y-119487142D01*
X159329714Y-119415714D01*
X160258285Y-120058571D02*
X160115428Y-119987142D01*
X160044000Y-119844285D01*
X160044000Y-118558571D01*
X161044000Y-120058571D02*
X160901142Y-119987142D01*
X160829714Y-119844285D01*
X160829714Y-118558571D01*
X162758285Y-120058571D02*
X162758285Y-118558571D01*
X163329714Y-118558571D01*
X163472571Y-118630000D01*
X163544000Y-118701428D01*
X163615428Y-118844285D01*
X163615428Y-119058571D01*
X163544000Y-119201428D01*
X163472571Y-119272857D01*
X163329714Y-119344285D01*
X162758285Y-119344285D01*
X164258285Y-120058571D02*
X164258285Y-119058571D01*
X164258285Y-119344285D02*
X164329714Y-119201428D01*
X164401142Y-119130000D01*
X164544000Y-119058571D01*
X164686857Y-119058571D01*
X165401142Y-120058571D02*
X165258285Y-119987142D01*
X165186857Y-119915714D01*
X165115428Y-119772857D01*
X165115428Y-119344285D01*
X165186857Y-119201428D01*
X165258285Y-119130000D01*
X165401142Y-119058571D01*
X165615428Y-119058571D01*
X165758285Y-119130000D01*
X165829714Y-119201428D01*
X165901142Y-119344285D01*
X165901142Y-119772857D01*
X165829714Y-119915714D01*
X165758285Y-119987142D01*
X165615428Y-120058571D01*
X165401142Y-120058571D01*
X166544000Y-119058571D02*
X166544000Y-120344285D01*
X166472571Y-120487142D01*
X166329714Y-120558571D01*
X166258285Y-120558571D01*
X166544000Y-118558571D02*
X166472571Y-118630000D01*
X166544000Y-118701428D01*
X166615428Y-118630000D01*
X166544000Y-118558571D01*
X166544000Y-118701428D01*
X167829714Y-119987142D02*
X167686857Y-120058571D01*
X167401142Y-120058571D01*
X167258285Y-119987142D01*
X167186857Y-119844285D01*
X167186857Y-119272857D01*
X167258285Y-119130000D01*
X167401142Y-119058571D01*
X167686857Y-119058571D01*
X167829714Y-119130000D01*
X167901142Y-119272857D01*
X167901142Y-119415714D01*
X167186857Y-119558571D01*
X169186857Y-119987142D02*
X169044000Y-120058571D01*
X168758285Y-120058571D01*
X168615428Y-119987142D01*
X168544000Y-119915714D01*
X168472571Y-119772857D01*
X168472571Y-119344285D01*
X168544000Y-119201428D01*
X168615428Y-119130000D01*
X168758285Y-119058571D01*
X169044000Y-119058571D01*
X169186857Y-119130000D01*
X169615428Y-119058571D02*
X170186857Y-119058571D01*
X169829714Y-118558571D02*
X169829714Y-119844285D01*
X169901142Y-119987142D01*
X170044000Y-120058571D01*
X170186857Y-120058571D01*
D10*
X120538952Y-109672380D02*
X119967523Y-109672380D01*
X120253238Y-109672380D02*
X120253238Y-108672380D01*
X120158000Y-108815238D01*
X120062761Y-108910476D01*
X119967523Y-108958095D01*
X120919904Y-108767619D02*
X120967523Y-108720000D01*
X121062761Y-108672380D01*
X121300857Y-108672380D01*
X121396095Y-108720000D01*
X121443714Y-108767619D01*
X121491333Y-108862857D01*
X121491333Y-108958095D01*
X121443714Y-109100952D01*
X120872285Y-109672380D01*
X121491333Y-109672380D01*
X121777047Y-108672380D02*
X122110380Y-109672380D01*
X122443714Y-108672380D01*
D11*
X129917142Y-117629714D02*
X129845714Y-117701142D01*
X129631428Y-117772571D01*
X129488571Y-117772571D01*
X129274285Y-117701142D01*
X129131428Y-117558285D01*
X129060000Y-117415428D01*
X128988571Y-117129714D01*
X128988571Y-116915428D01*
X129060000Y-116629714D01*
X129131428Y-116486857D01*
X129274285Y-116344000D01*
X129488571Y-116272571D01*
X129631428Y-116272571D01*
X129845714Y-116344000D01*
X129917142Y-116415428D01*
X131274285Y-117772571D02*
X130560000Y-117772571D01*
X130560000Y-116272571D01*
X131774285Y-117772571D02*
X131774285Y-116272571D01*
X132631428Y-117772571D02*
X131988571Y-116915428D01*
X132631428Y-116272571D02*
X131774285Y-117129714D01*
X149439428Y-50462571D02*
X148582285Y-50462571D01*
X149010857Y-50462571D02*
X149010857Y-48962571D01*
X148868000Y-49176857D01*
X148725142Y-49319714D01*
X148582285Y-49391142D01*
X150010857Y-49105428D02*
X150082285Y-49034000D01*
X150225142Y-48962571D01*
X150582285Y-48962571D01*
X150725142Y-49034000D01*
X150796571Y-49105428D01*
X150868000Y-49248285D01*
X150868000Y-49391142D01*
X150796571Y-49605428D01*
X149939428Y-50462571D01*
X150868000Y-50462571D01*
X151296571Y-48962571D02*
X151796571Y-50462571D01*
X152296571Y-48962571D01*
D10*
X120189809Y-106894380D02*
X120808857Y-106894380D01*
X120475523Y-107275333D01*
X120618380Y-107275333D01*
X120713619Y-107322952D01*
X120761238Y-107370571D01*
X120808857Y-107465809D01*
X120808857Y-107703904D01*
X120761238Y-107799142D01*
X120713619Y-107846761D01*
X120618380Y-107894380D01*
X120332666Y-107894380D01*
X120237428Y-107846761D01*
X120189809Y-107799142D01*
X121237428Y-107799142D02*
X121285047Y-107846761D01*
X121237428Y-107894380D01*
X121189809Y-107846761D01*
X121237428Y-107799142D01*
X121237428Y-107894380D01*
X121618380Y-106894380D02*
X122237428Y-106894380D01*
X121904095Y-107275333D01*
X122046952Y-107275333D01*
X122142190Y-107322952D01*
X122189809Y-107370571D01*
X122237428Y-107465809D01*
X122237428Y-107703904D01*
X122189809Y-107799142D01*
X122142190Y-107846761D01*
X122046952Y-107894380D01*
X121761238Y-107894380D01*
X121666000Y-107846761D01*
X121618380Y-107799142D01*
X122523142Y-106894380D02*
X122856476Y-107894380D01*
X123189809Y-106894380D01*
D11*
X143692857Y-117772571D02*
X143692857Y-116272571D01*
X144192857Y-117344000D01*
X144692857Y-116272571D01*
X144692857Y-117772571D01*
X145407142Y-117772571D02*
X145407142Y-116272571D01*
X146050000Y-117701142D02*
X146264285Y-117772571D01*
X146621428Y-117772571D01*
X146764285Y-117701142D01*
X146835714Y-117629714D01*
X146907142Y-117486857D01*
X146907142Y-117344000D01*
X146835714Y-117201142D01*
X146764285Y-117129714D01*
X146621428Y-117058285D01*
X146335714Y-116986857D01*
X146192857Y-116915428D01*
X146121428Y-116844000D01*
X146050000Y-116701142D01*
X146050000Y-116558285D01*
X146121428Y-116415428D01*
X146192857Y-116344000D01*
X146335714Y-116272571D01*
X146692857Y-116272571D01*
X146907142Y-116344000D01*
X147835714Y-116272571D02*
X148121428Y-116272571D01*
X148264285Y-116344000D01*
X148407142Y-116486857D01*
X148478571Y-116772571D01*
X148478571Y-117272571D01*
X148407142Y-117558285D01*
X148264285Y-117701142D01*
X148121428Y-117772571D01*
X147835714Y-117772571D01*
X147692857Y-117701142D01*
X147550000Y-117558285D01*
X147478571Y-117272571D01*
X147478571Y-116772571D01*
X147550000Y-116486857D01*
X147692857Y-116344000D01*
X147835714Y-116272571D01*
X128952857Y-48454571D02*
X129881428Y-48454571D01*
X129381428Y-49026000D01*
X129595714Y-49026000D01*
X129738571Y-49097428D01*
X129810000Y-49168857D01*
X129881428Y-49311714D01*
X129881428Y-49668857D01*
X129810000Y-49811714D01*
X129738571Y-49883142D01*
X129595714Y-49954571D01*
X129167142Y-49954571D01*
X129024285Y-49883142D01*
X128952857Y-49811714D01*
X130310000Y-48454571D02*
X130810000Y-49954571D01*
X131310000Y-48454571D01*
X131667142Y-48454571D02*
X132595714Y-48454571D01*
X132095714Y-49026000D01*
X132310000Y-49026000D01*
X132452857Y-49097428D01*
X132524285Y-49168857D01*
X132595714Y-49311714D01*
X132595714Y-49668857D01*
X132524285Y-49811714D01*
X132452857Y-49883142D01*
X132310000Y-49954571D01*
X131881428Y-49954571D01*
X131738571Y-49883142D01*
X131667142Y-49811714D01*
D10*
X120896000Y-112522095D02*
X120943619Y-112426857D01*
X120943619Y-112284000D01*
X120896000Y-112141142D01*
X120800761Y-112045904D01*
X120705523Y-111998285D01*
X120515047Y-111950666D01*
X120372190Y-111950666D01*
X120181714Y-111998285D01*
X120086476Y-112045904D01*
X119991238Y-112141142D01*
X119943619Y-112284000D01*
X119943619Y-112379238D01*
X119991238Y-112522095D01*
X120038857Y-112569714D01*
X120372190Y-112569714D01*
X120372190Y-112379238D01*
X119943619Y-112998285D02*
X120943619Y-112998285D01*
X119943619Y-113569714D01*
X120943619Y-113569714D01*
X119943619Y-114045904D02*
X120943619Y-114045904D01*
X120943619Y-114284000D01*
X120896000Y-114426857D01*
X120800761Y-114522095D01*
X120705523Y-114569714D01*
X120515047Y-114617333D01*
X120372190Y-114617333D01*
X120181714Y-114569714D01*
X120086476Y-114522095D01*
X119991238Y-114426857D01*
X119943619Y-114284000D01*
X119943619Y-114045904D01*
D11*
X151329714Y-122852571D02*
X151329714Y-121352571D01*
X151686857Y-121352571D01*
X151901142Y-121424000D01*
X152044000Y-121566857D01*
X152115428Y-121709714D01*
X152186857Y-121995428D01*
X152186857Y-122209714D01*
X152115428Y-122495428D01*
X152044000Y-122638285D01*
X151901142Y-122781142D01*
X151686857Y-122852571D01*
X151329714Y-122852571D01*
X152686857Y-121852571D02*
X153044000Y-122852571D01*
X153401142Y-121852571D02*
X153044000Y-122852571D01*
X152901142Y-123209714D01*
X152829714Y-123281142D01*
X152686857Y-123352571D01*
X154186857Y-122852571D02*
X154044000Y-122781142D01*
X153972571Y-122638285D01*
X153972571Y-121352571D01*
X155401142Y-122852571D02*
X155401142Y-122066857D01*
X155329714Y-121924000D01*
X155186857Y-121852571D01*
X154901142Y-121852571D01*
X154758285Y-121924000D01*
X155401142Y-122781142D02*
X155258285Y-122852571D01*
X154901142Y-122852571D01*
X154758285Y-122781142D01*
X154686857Y-122638285D01*
X154686857Y-122495428D01*
X154758285Y-122352571D01*
X154901142Y-122281142D01*
X155258285Y-122281142D01*
X155401142Y-122209714D01*
X156115428Y-121852571D02*
X156115428Y-122852571D01*
X156115428Y-121995428D02*
X156186857Y-121924000D01*
X156329714Y-121852571D01*
X156544000Y-121852571D01*
X156686857Y-121924000D01*
X156758285Y-122066857D01*
X156758285Y-122852571D01*
X157544000Y-122781142D02*
X157544000Y-122852571D01*
X157472571Y-122995428D01*
X157401142Y-123066857D01*
X159829714Y-122066857D02*
X159329714Y-122066857D01*
X159329714Y-122852571D02*
X159329714Y-121352571D01*
X160044000Y-121352571D01*
X160615428Y-122852571D02*
X160615428Y-121852571D01*
X160615428Y-122138285D02*
X160686857Y-121995428D01*
X160758285Y-121924000D01*
X160901142Y-121852571D01*
X161044000Y-121852571D01*
X162186857Y-122852571D02*
X162186857Y-122066857D01*
X162115428Y-121924000D01*
X161972571Y-121852571D01*
X161686857Y-121852571D01*
X161544000Y-121924000D01*
X162186857Y-122781142D02*
X162044000Y-122852571D01*
X161686857Y-122852571D01*
X161544000Y-122781142D01*
X161472571Y-122638285D01*
X161472571Y-122495428D01*
X161544000Y-122352571D01*
X161686857Y-122281142D01*
X162044000Y-122281142D01*
X162186857Y-122209714D01*
X162901142Y-121852571D02*
X162901142Y-122852571D01*
X162901142Y-121995428D02*
X162972571Y-121924000D01*
X163115428Y-121852571D01*
X163329714Y-121852571D01*
X163472571Y-121924000D01*
X163544000Y-122066857D01*
X163544000Y-122852571D01*
X164115428Y-121852571D02*
X164901142Y-121852571D01*
X164115428Y-122852571D01*
X164901142Y-122852571D01*
X165544000Y-122781142D02*
X165544000Y-122852571D01*
X165472571Y-122995428D01*
X165401142Y-123066857D01*
X167329714Y-122852571D02*
X167329714Y-121352571D01*
X167829714Y-122424000D01*
X168329714Y-121352571D01*
X168329714Y-122852571D01*
X169044000Y-122852571D02*
X169044000Y-121852571D01*
X169044000Y-121352571D02*
X168972571Y-121424000D01*
X169044000Y-121495428D01*
X169115428Y-121424000D01*
X169044000Y-121352571D01*
X169044000Y-121495428D01*
X169758285Y-121852571D02*
X169758285Y-122852571D01*
X169758285Y-121995428D02*
X169829714Y-121924000D01*
X169972571Y-121852571D01*
X170186857Y-121852571D01*
X170329714Y-121924000D01*
X170401142Y-122066857D01*
X170401142Y-122852571D01*
X171115428Y-122852571D02*
X171115428Y-121352571D01*
X171758285Y-122852571D02*
X171758285Y-122066857D01*
X171686857Y-121924000D01*
X171544000Y-121852571D01*
X171329714Y-121852571D01*
X171186857Y-121924000D01*
X171115428Y-121995428D01*
X136072857Y-117772571D02*
X136072857Y-116272571D01*
X136572857Y-117344000D01*
X137072857Y-116272571D01*
X137072857Y-117772571D01*
X138072857Y-116272571D02*
X138358571Y-116272571D01*
X138501428Y-116344000D01*
X138644285Y-116486857D01*
X138715714Y-116772571D01*
X138715714Y-117272571D01*
X138644285Y-117558285D01*
X138501428Y-117701142D01*
X138358571Y-117772571D01*
X138072857Y-117772571D01*
X137930000Y-117701142D01*
X137787142Y-117558285D01*
X137715714Y-117272571D01*
X137715714Y-116772571D01*
X137787142Y-116486857D01*
X137930000Y-116344000D01*
X138072857Y-116272571D01*
X139287142Y-117701142D02*
X139501428Y-117772571D01*
X139858571Y-117772571D01*
X140001428Y-117701142D01*
X140072857Y-117629714D01*
X140144285Y-117486857D01*
X140144285Y-117344000D01*
X140072857Y-117201142D01*
X140001428Y-117129714D01*
X139858571Y-117058285D01*
X139572857Y-116986857D01*
X139430000Y-116915428D01*
X139358571Y-116844000D01*
X139287142Y-116701142D01*
X139287142Y-116558285D01*
X139358571Y-116415428D01*
X139430000Y-116344000D01*
X139572857Y-116272571D01*
X139930000Y-116272571D01*
X140144285Y-116344000D01*
X140787142Y-117772571D02*
X140787142Y-116272571D01*
X119679428Y-97714857D02*
X120393714Y-97214857D01*
X119679428Y-96857714D02*
X121179428Y-96857714D01*
X121179428Y-97429142D01*
X121108000Y-97572000D01*
X121036571Y-97643428D01*
X120893714Y-97714857D01*
X120679428Y-97714857D01*
X120536571Y-97643428D01*
X120465142Y-97572000D01*
X120393714Y-97429142D01*
X120393714Y-96857714D01*
X121179428Y-98214857D02*
X119679428Y-99214857D01*
X121179428Y-99214857D02*
X119679428Y-98214857D01*
X121179428Y-100714857D02*
X121179428Y-101572000D01*
X119679428Y-101143428D02*
X121179428Y-101143428D01*
X121179428Y-101929142D02*
X119679428Y-102929142D01*
X121179428Y-102929142D02*
X119679428Y-101929142D01*
D10*
X125577880Y-62182095D02*
X124577880Y-62182095D01*
X124577880Y-61801142D01*
X124625500Y-61705904D01*
X124673119Y-61658285D01*
X124768357Y-61610666D01*
X124911214Y-61610666D01*
X125006452Y-61658285D01*
X125054071Y-61705904D01*
X125101690Y-61801142D01*
X125101690Y-62182095D01*
X125577880Y-60658285D02*
X125577880Y-61229714D01*
X125577880Y-60944000D02*
X124577880Y-60944000D01*
X124720738Y-61039238D01*
X124815976Y-61134476D01*
X124863595Y-61229714D01*
X155694380Y-81700666D02*
X155694380Y-82176857D01*
X154694380Y-82176857D01*
X155694380Y-80843523D02*
X155694380Y-81414952D01*
X155694380Y-81129238D02*
X154694380Y-81129238D01*
X154837238Y-81224476D01*
X154932476Y-81319714D01*
X154980095Y-81414952D01*
X129081333Y-55698380D02*
X128748000Y-55222190D01*
X128509904Y-55698380D02*
X128509904Y-54698380D01*
X128890857Y-54698380D01*
X128986095Y-54746000D01*
X129033714Y-54793619D01*
X129081333Y-54888857D01*
X129081333Y-55031714D01*
X129033714Y-55126952D01*
X128986095Y-55174571D01*
X128890857Y-55222190D01*
X128509904Y-55222190D01*
X130033714Y-55698380D02*
X129462285Y-55698380D01*
X129748000Y-55698380D02*
X129748000Y-54698380D01*
X129652761Y-54841238D01*
X129557523Y-54936476D01*
X129462285Y-54984095D01*
X128793642Y-52142380D02*
X128460309Y-51666190D01*
X128222214Y-52142380D02*
X128222214Y-51142380D01*
X128603166Y-51142380D01*
X128698404Y-51190000D01*
X128746023Y-51237619D01*
X128793642Y-51332857D01*
X128793642Y-51475714D01*
X128746023Y-51570952D01*
X128698404Y-51618571D01*
X128603166Y-51666190D01*
X128222214Y-51666190D01*
X129746023Y-52142380D02*
X129174595Y-52142380D01*
X129460309Y-52142380D02*
X129460309Y-51142380D01*
X129365071Y-51285238D01*
X129269833Y-51380476D01*
X129174595Y-51428095D01*
X130698404Y-52142380D02*
X130126976Y-52142380D01*
X130412690Y-52142380D02*
X130412690Y-51142380D01*
X130317452Y-51285238D01*
X130222214Y-51380476D01*
X130126976Y-51428095D01*
X117296761Y-93027333D02*
X117344380Y-92884476D01*
X117344380Y-92646380D01*
X117296761Y-92551142D01*
X117249142Y-92503523D01*
X117153904Y-92455904D01*
X117058666Y-92455904D01*
X116963428Y-92503523D01*
X116915809Y-92551142D01*
X116868190Y-92646380D01*
X116820571Y-92836857D01*
X116772952Y-92932095D01*
X116725333Y-92979714D01*
X116630095Y-93027333D01*
X116534857Y-93027333D01*
X116439619Y-92979714D01*
X116392000Y-92932095D01*
X116344380Y-92836857D01*
X116344380Y-92598761D01*
X116392000Y-92455904D01*
X116344380Y-92122571D02*
X117344380Y-91884476D01*
X116630095Y-91694000D01*
X117344380Y-91503523D01*
X116344380Y-91265428D01*
X116439619Y-90932095D02*
X116392000Y-90884476D01*
X116344380Y-90789238D01*
X116344380Y-90551142D01*
X116392000Y-90455904D01*
X116439619Y-90408285D01*
X116534857Y-90360666D01*
X116630095Y-90360666D01*
X116772952Y-90408285D01*
X117344380Y-90979714D01*
X117344380Y-90360666D01*
X143772095Y-52030380D02*
X144343523Y-52030380D01*
X144057809Y-53030380D02*
X144057809Y-52030380D01*
X144676857Y-53030380D02*
X144676857Y-52030380D01*
X145057809Y-52030380D01*
X145153047Y-52078000D01*
X145200666Y-52125619D01*
X145248285Y-52220857D01*
X145248285Y-52363714D01*
X145200666Y-52458952D01*
X145153047Y-52506571D01*
X145057809Y-52554190D01*
X144676857Y-52554190D01*
X145629238Y-52125619D02*
X145676857Y-52078000D01*
X145772095Y-52030380D01*
X146010190Y-52030380D01*
X146105428Y-52078000D01*
X146153047Y-52125619D01*
X146200666Y-52220857D01*
X146200666Y-52316095D01*
X146153047Y-52458952D01*
X145581619Y-53030380D01*
X146200666Y-53030380D01*
X139495333Y-65889142D02*
X139447714Y-65936761D01*
X139304857Y-65984380D01*
X139209619Y-65984380D01*
X139066761Y-65936761D01*
X138971523Y-65841523D01*
X138923904Y-65746285D01*
X138876285Y-65555809D01*
X138876285Y-65412952D01*
X138923904Y-65222476D01*
X138971523Y-65127238D01*
X139066761Y-65032000D01*
X139209619Y-64984380D01*
X139304857Y-64984380D01*
X139447714Y-65032000D01*
X139495333Y-65079619D01*
X140066761Y-65412952D02*
X139971523Y-65365333D01*
X139923904Y-65317714D01*
X139876285Y-65222476D01*
X139876285Y-65174857D01*
X139923904Y-65079619D01*
X139971523Y-65032000D01*
X140066761Y-64984380D01*
X140257238Y-64984380D01*
X140352476Y-65032000D01*
X140400095Y-65079619D01*
X140447714Y-65174857D01*
X140447714Y-65222476D01*
X140400095Y-65317714D01*
X140352476Y-65365333D01*
X140257238Y-65412952D01*
X140066761Y-65412952D01*
X139971523Y-65460571D01*
X139923904Y-65508190D01*
X139876285Y-65603428D01*
X139876285Y-65793904D01*
X139923904Y-65889142D01*
X139971523Y-65936761D01*
X140066761Y-65984380D01*
X140257238Y-65984380D01*
X140352476Y-65936761D01*
X140400095Y-65889142D01*
X140447714Y-65793904D01*
X140447714Y-65603428D01*
X140400095Y-65508190D01*
X140352476Y-65460571D01*
X140257238Y-65412952D01*
X156291142Y-97991142D02*
X156243523Y-98038761D01*
X156100666Y-98086380D01*
X156005428Y-98086380D01*
X155862571Y-98038761D01*
X155767333Y-97943523D01*
X155719714Y-97848285D01*
X155672095Y-97657809D01*
X155672095Y-97514952D01*
X155719714Y-97324476D01*
X155767333Y-97229238D01*
X155862571Y-97134000D01*
X156005428Y-97086380D01*
X156100666Y-97086380D01*
X156243523Y-97134000D01*
X156291142Y-97181619D01*
X157243523Y-98086380D02*
X156672095Y-98086380D01*
X156957809Y-98086380D02*
X156957809Y-97086380D01*
X156862571Y-97229238D01*
X156767333Y-97324476D01*
X156672095Y-97372095D01*
X158195904Y-98086380D02*
X157624476Y-98086380D01*
X157910190Y-98086380D02*
X157910190Y-97086380D01*
X157814952Y-97229238D01*
X157719714Y-97324476D01*
X157624476Y-97372095D01*
X139019142Y-71985142D02*
X138971523Y-72032761D01*
X138828666Y-72080380D01*
X138733428Y-72080380D01*
X138590571Y-72032761D01*
X138495333Y-71937523D01*
X138447714Y-71842285D01*
X138400095Y-71651809D01*
X138400095Y-71508952D01*
X138447714Y-71318476D01*
X138495333Y-71223238D01*
X138590571Y-71128000D01*
X138733428Y-71080380D01*
X138828666Y-71080380D01*
X138971523Y-71128000D01*
X139019142Y-71175619D01*
X139971523Y-72080380D02*
X139400095Y-72080380D01*
X139685809Y-72080380D02*
X139685809Y-71080380D01*
X139590571Y-71223238D01*
X139495333Y-71318476D01*
X139400095Y-71366095D01*
X140590571Y-71080380D02*
X140685809Y-71080380D01*
X140781047Y-71128000D01*
X140828666Y-71175619D01*
X140876285Y-71270857D01*
X140923904Y-71461333D01*
X140923904Y-71699428D01*
X140876285Y-71889904D01*
X140828666Y-71985142D01*
X140781047Y-72032761D01*
X140685809Y-72080380D01*
X140590571Y-72080380D01*
X140495333Y-72032761D01*
X140447714Y-71985142D01*
X140400095Y-71889904D01*
X140352476Y-71699428D01*
X140352476Y-71461333D01*
X140400095Y-71270857D01*
X140447714Y-71175619D01*
X140495333Y-71128000D01*
X140590571Y-71080380D01*
X117522666Y-113244380D02*
X117522666Y-113958666D01*
X117475047Y-114101523D01*
X117379809Y-114196761D01*
X117236952Y-114244380D01*
X117141714Y-114244380D01*
X118475047Y-113244380D02*
X117998857Y-113244380D01*
X117951238Y-113720571D01*
X117998857Y-113672952D01*
X118094095Y-113625333D01*
X118332190Y-113625333D01*
X118427428Y-113672952D01*
X118475047Y-113720571D01*
X118522666Y-113815809D01*
X118522666Y-114053904D01*
X118475047Y-114149142D01*
X118427428Y-114196761D01*
X118332190Y-114244380D01*
X118094095Y-114244380D01*
X117998857Y-114196761D01*
X117951238Y-114149142D01*
X156464095Y-53554380D02*
X156464095Y-54363904D01*
X156511714Y-54459142D01*
X156559333Y-54506761D01*
X156654571Y-54554380D01*
X156845047Y-54554380D01*
X156940285Y-54506761D01*
X156987904Y-54459142D01*
X157035523Y-54363904D01*
X157035523Y-53554380D01*
X157416476Y-53554380D02*
X158035523Y-53554380D01*
X157702190Y-53935333D01*
X157845047Y-53935333D01*
X157940285Y-53982952D01*
X157987904Y-54030571D01*
X158035523Y-54125809D01*
X158035523Y-54363904D01*
X157987904Y-54459142D01*
X157940285Y-54506761D01*
X157845047Y-54554380D01*
X157559333Y-54554380D01*
X157464095Y-54506761D01*
X157416476Y-54459142D01*
X126287333Y-108053142D02*
X126239714Y-108100761D01*
X126096857Y-108148380D01*
X126001619Y-108148380D01*
X125858761Y-108100761D01*
X125763523Y-108005523D01*
X125715904Y-107910285D01*
X125668285Y-107719809D01*
X125668285Y-107576952D01*
X125715904Y-107386476D01*
X125763523Y-107291238D01*
X125858761Y-107196000D01*
X126001619Y-107148380D01*
X126096857Y-107148380D01*
X126239714Y-107196000D01*
X126287333Y-107243619D01*
X127144476Y-107481714D02*
X127144476Y-108148380D01*
X126906380Y-107100761D02*
X126668285Y-107815047D01*
X127287333Y-107815047D01*
X161188833Y-117038380D02*
X160855500Y-116562190D01*
X160617404Y-117038380D02*
X160617404Y-116038380D01*
X160998357Y-116038380D01*
X161093595Y-116086000D01*
X161141214Y-116133619D01*
X161188833Y-116228857D01*
X161188833Y-116371714D01*
X161141214Y-116466952D01*
X161093595Y-116514571D01*
X160998357Y-116562190D01*
X160617404Y-116562190D01*
X161522166Y-116038380D02*
X162188833Y-116038380D01*
X161760261Y-117038380D01*
X127724095Y-111212380D02*
X127724095Y-112021904D01*
X127771714Y-112117142D01*
X127819333Y-112164761D01*
X127914571Y-112212380D01*
X128105047Y-112212380D01*
X128200285Y-112164761D01*
X128247904Y-112117142D01*
X128295523Y-112021904D01*
X128295523Y-111212380D01*
X129295523Y-112212380D02*
X128724095Y-112212380D01*
X129009809Y-112212380D02*
X129009809Y-111212380D01*
X128914571Y-111355238D01*
X128819333Y-111450476D01*
X128724095Y-111498095D01*
X135154095Y-112230666D02*
X135630285Y-112230666D01*
X135058857Y-112516380D02*
X135392190Y-111516380D01*
X135725523Y-112516380D01*
X136058857Y-111849714D02*
X136058857Y-112516380D01*
X136058857Y-111944952D02*
X136106476Y-111897333D01*
X136201714Y-111849714D01*
X136344571Y-111849714D01*
X136439809Y-111897333D01*
X136487428Y-111992571D01*
X136487428Y-112516380D01*
X136820761Y-111849714D02*
X137201714Y-111849714D01*
X136963619Y-111516380D02*
X136963619Y-112373523D01*
X137011238Y-112468761D01*
X137106476Y-112516380D01*
X137201714Y-112516380D01*
X137916000Y-112468761D02*
X137820761Y-112516380D01*
X137630285Y-112516380D01*
X137535047Y-112468761D01*
X137487428Y-112373523D01*
X137487428Y-111992571D01*
X137535047Y-111897333D01*
X137630285Y-111849714D01*
X137820761Y-111849714D01*
X137916000Y-111897333D01*
X137963619Y-111992571D01*
X137963619Y-112087809D01*
X137487428Y-112183047D01*
X138392190Y-111849714D02*
X138392190Y-112516380D01*
X138392190Y-111944952D02*
X138439809Y-111897333D01*
X138535047Y-111849714D01*
X138677904Y-111849714D01*
X138773142Y-111897333D01*
X138820761Y-111992571D01*
X138820761Y-112516380D01*
X139296952Y-111849714D02*
X139296952Y-112516380D01*
X139296952Y-111944952D02*
X139344571Y-111897333D01*
X139439809Y-111849714D01*
X139582666Y-111849714D01*
X139677904Y-111897333D01*
X139725523Y-111992571D01*
X139725523Y-112516380D01*
X140630285Y-112516380D02*
X140630285Y-111992571D01*
X140582666Y-111897333D01*
X140487428Y-111849714D01*
X140296952Y-111849714D01*
X140201714Y-111897333D01*
X140630285Y-112468761D02*
X140535047Y-112516380D01*
X140296952Y-112516380D01*
X140201714Y-112468761D01*
X140154095Y-112373523D01*
X140154095Y-112278285D01*
X140201714Y-112183047D01*
X140296952Y-112135428D01*
X140535047Y-112135428D01*
X140630285Y-112087809D01*
X141820761Y-112230666D02*
X142296952Y-112230666D01*
X141725523Y-112516380D02*
X142058857Y-111516380D01*
X142392190Y-112516380D01*
X142725523Y-112516380D02*
X142725523Y-111849714D01*
X142725523Y-112040190D02*
X142773142Y-111944952D01*
X142820761Y-111897333D01*
X142916000Y-111849714D01*
X143011238Y-111849714D01*
X143725523Y-112468761D02*
X143630285Y-112516380D01*
X143439809Y-112516380D01*
X143344571Y-112468761D01*
X143296952Y-112373523D01*
X143296952Y-111992571D01*
X143344571Y-111897333D01*
X143439809Y-111849714D01*
X143630285Y-111849714D01*
X143725523Y-111897333D01*
X143773142Y-111992571D01*
X143773142Y-112087809D01*
X143296952Y-112183047D01*
X144630285Y-112516380D02*
X144630285Y-111992571D01*
X144582666Y-111897333D01*
X144487428Y-111849714D01*
X144296952Y-111849714D01*
X144201714Y-111897333D01*
X144630285Y-112468761D02*
X144535047Y-112516380D01*
X144296952Y-112516380D01*
X144201714Y-112468761D01*
X144154095Y-112373523D01*
X144154095Y-112278285D01*
X144201714Y-112183047D01*
X144296952Y-112135428D01*
X144535047Y-112135428D01*
X144630285Y-112087809D01*
X180879380Y-83899333D02*
X181593666Y-83899333D01*
X181736523Y-83946952D01*
X181831761Y-84042190D01*
X181879380Y-84185047D01*
X181879380Y-84280285D01*
X181212714Y-82994571D02*
X181879380Y-82994571D01*
X180831761Y-83232666D02*
X181546047Y-83470761D01*
X181546047Y-82851714D01*
X117484666Y-102318380D02*
X117484666Y-103032666D01*
X117437047Y-103175523D01*
X117341809Y-103270761D01*
X117198952Y-103318380D01*
X117103714Y-103318380D01*
X118389428Y-102318380D02*
X118198952Y-102318380D01*
X118103714Y-102366000D01*
X118056095Y-102413619D01*
X117960857Y-102556476D01*
X117913238Y-102746952D01*
X117913238Y-103127904D01*
X117960857Y-103223142D01*
X118008476Y-103270761D01*
X118103714Y-103318380D01*
X118294190Y-103318380D01*
X118389428Y-103270761D01*
X118437047Y-103223142D01*
X118484666Y-103127904D01*
X118484666Y-102889809D01*
X118437047Y-102794571D01*
X118389428Y-102746952D01*
X118294190Y-102699333D01*
X118103714Y-102699333D01*
X118008476Y-102746952D01*
X117960857Y-102794571D01*
X117913238Y-102889809D01*
X142710095Y-54152380D02*
X142710095Y-54961904D01*
X142757714Y-55057142D01*
X142805333Y-55104761D01*
X142900571Y-55152380D01*
X143091047Y-55152380D01*
X143186285Y-55104761D01*
X143233904Y-55057142D01*
X143281523Y-54961904D01*
X143281523Y-54152380D01*
X144186285Y-54485714D02*
X144186285Y-55152380D01*
X143948190Y-54104761D02*
X143710095Y-54819047D01*
X144329142Y-54819047D01*
X130048095Y-122902380D02*
X130619523Y-122902380D01*
X130333809Y-123902380D02*
X130333809Y-122902380D01*
X130952857Y-123902380D02*
X130952857Y-122902380D01*
X131333809Y-122902380D01*
X131429047Y-122950000D01*
X131476666Y-122997619D01*
X131524285Y-123092857D01*
X131524285Y-123235714D01*
X131476666Y-123330952D01*
X131429047Y-123378571D01*
X131333809Y-123426190D01*
X130952857Y-123426190D01*
X131857619Y-122902380D02*
X132476666Y-122902380D01*
X132143333Y-123283333D01*
X132286190Y-123283333D01*
X132381428Y-123330952D01*
X132429047Y-123378571D01*
X132476666Y-123473809D01*
X132476666Y-123711904D01*
X132429047Y-123807142D01*
X132381428Y-123854761D01*
X132286190Y-123902380D01*
X132000476Y-123902380D01*
X131905238Y-123854761D01*
X131857619Y-123807142D01*
X130334380Y-83478666D02*
X129858190Y-83812000D01*
X130334380Y-84050095D02*
X129334380Y-84050095D01*
X129334380Y-83669142D01*
X129382000Y-83573904D01*
X129429619Y-83526285D01*
X129524857Y-83478666D01*
X129667714Y-83478666D01*
X129762952Y-83526285D01*
X129810571Y-83573904D01*
X129858190Y-83669142D01*
X129858190Y-84050095D01*
X129334380Y-83145333D02*
X129334380Y-82526285D01*
X129715333Y-82859619D01*
X129715333Y-82716761D01*
X129762952Y-82621523D01*
X129810571Y-82573904D01*
X129905809Y-82526285D01*
X130143904Y-82526285D01*
X130239142Y-82573904D01*
X130286761Y-82621523D01*
X130334380Y-82716761D01*
X130334380Y-83002476D01*
X130286761Y-83097714D01*
X130239142Y-83145333D01*
X134628095Y-52284380D02*
X135199523Y-52284380D01*
X134913809Y-53284380D02*
X134913809Y-52284380D01*
X135532857Y-53284380D02*
X135532857Y-52284380D01*
X135913809Y-52284380D01*
X136009047Y-52332000D01*
X136056666Y-52379619D01*
X136104285Y-52474857D01*
X136104285Y-52617714D01*
X136056666Y-52712952D01*
X136009047Y-52760571D01*
X135913809Y-52808190D01*
X135532857Y-52808190D01*
X137056666Y-53284380D02*
X136485238Y-53284380D01*
X136770952Y-53284380D02*
X136770952Y-52284380D01*
X136675714Y-52427238D01*
X136580476Y-52522476D01*
X136485238Y-52570095D01*
X133881904Y-60142380D02*
X133881904Y-59142380D01*
X134120000Y-59142380D01*
X134262857Y-59190000D01*
X134358095Y-59285238D01*
X134405714Y-59380476D01*
X134453333Y-59570952D01*
X134453333Y-59713809D01*
X134405714Y-59904285D01*
X134358095Y-59999523D01*
X134262857Y-60094761D01*
X134120000Y-60142380D01*
X133881904Y-60142380D01*
X134786666Y-59142380D02*
X135405714Y-59142380D01*
X135072380Y-59523333D01*
X135215238Y-59523333D01*
X135310476Y-59570952D01*
X135358095Y-59618571D01*
X135405714Y-59713809D01*
X135405714Y-59951904D01*
X135358095Y-60047142D01*
X135310476Y-60094761D01*
X135215238Y-60142380D01*
X134929523Y-60142380D01*
X134834285Y-60094761D01*
X134786666Y-60047142D01*
X120559142Y-86786857D02*
X120606761Y-86834476D01*
X120654380Y-86977333D01*
X120654380Y-87072571D01*
X120606761Y-87215428D01*
X120511523Y-87310666D01*
X120416285Y-87358285D01*
X120225809Y-87405904D01*
X120082952Y-87405904D01*
X119892476Y-87358285D01*
X119797238Y-87310666D01*
X119702000Y-87215428D01*
X119654380Y-87072571D01*
X119654380Y-86977333D01*
X119702000Y-86834476D01*
X119749619Y-86786857D01*
X120654380Y-85834476D02*
X120654380Y-86405904D01*
X120654380Y-86120190D02*
X119654380Y-86120190D01*
X119797238Y-86215428D01*
X119892476Y-86310666D01*
X119940095Y-86405904D01*
X120654380Y-85358285D02*
X120654380Y-85167809D01*
X120606761Y-85072571D01*
X120559142Y-85024952D01*
X120416285Y-84929714D01*
X120225809Y-84882095D01*
X119844857Y-84882095D01*
X119749619Y-84929714D01*
X119702000Y-84977333D01*
X119654380Y-85072571D01*
X119654380Y-85263047D01*
X119702000Y-85358285D01*
X119749619Y-85405904D01*
X119844857Y-85453523D01*
X120082952Y-85453523D01*
X120178190Y-85405904D01*
X120225809Y-85358285D01*
X120273428Y-85263047D01*
X120273428Y-85072571D01*
X120225809Y-84977333D01*
X120178190Y-84929714D01*
X120082952Y-84882095D01*
X137668095Y-122902380D02*
X138239523Y-122902380D01*
X137953809Y-123902380D02*
X137953809Y-122902380D01*
X138572857Y-123902380D02*
X138572857Y-122902380D01*
X138953809Y-122902380D01*
X139049047Y-122950000D01*
X139096666Y-122997619D01*
X139144285Y-123092857D01*
X139144285Y-123235714D01*
X139096666Y-123330952D01*
X139049047Y-123378571D01*
X138953809Y-123426190D01*
X138572857Y-123426190D01*
X140001428Y-123235714D02*
X140001428Y-123902380D01*
X139763333Y-122854761D02*
X139525238Y-123569047D01*
X140144285Y-123569047D01*
X158204095Y-90384380D02*
X158204095Y-91193904D01*
X158251714Y-91289142D01*
X158299333Y-91336761D01*
X158394571Y-91384380D01*
X158585047Y-91384380D01*
X158680285Y-91336761D01*
X158727904Y-91289142D01*
X158775523Y-91193904D01*
X158775523Y-90384380D01*
X159680285Y-90384380D02*
X159489809Y-90384380D01*
X159394571Y-90432000D01*
X159346952Y-90479619D01*
X159251714Y-90622476D01*
X159204095Y-90812952D01*
X159204095Y-91193904D01*
X159251714Y-91289142D01*
X159299333Y-91336761D01*
X159394571Y-91384380D01*
X159585047Y-91384380D01*
X159680285Y-91336761D01*
X159727904Y-91289142D01*
X159775523Y-91193904D01*
X159775523Y-90955809D01*
X159727904Y-90860571D01*
X159680285Y-90812952D01*
X159585047Y-90765333D01*
X159394571Y-90765333D01*
X159299333Y-90812952D01*
X159251714Y-90860571D01*
X159204095Y-90955809D01*
X158029095Y-112561380D02*
X158029095Y-113370904D01*
X158076714Y-113466142D01*
X158124333Y-113513761D01*
X158219571Y-113561380D01*
X158410047Y-113561380D01*
X158505285Y-113513761D01*
X158552904Y-113466142D01*
X158600523Y-113370904D01*
X158600523Y-112561380D01*
X159552904Y-112561380D02*
X159076714Y-112561380D01*
X159029095Y-113037571D01*
X159076714Y-112989952D01*
X159171952Y-112942333D01*
X159410047Y-112942333D01*
X159505285Y-112989952D01*
X159552904Y-113037571D01*
X159600523Y-113132809D01*
X159600523Y-113370904D01*
X159552904Y-113466142D01*
X159505285Y-113513761D01*
X159410047Y-113561380D01*
X159171952Y-113561380D01*
X159076714Y-113513761D01*
X159029095Y-113466142D01*
X136955333Y-71985142D02*
X136907714Y-72032761D01*
X136764857Y-72080380D01*
X136669619Y-72080380D01*
X136526761Y-72032761D01*
X136431523Y-71937523D01*
X136383904Y-71842285D01*
X136336285Y-71651809D01*
X136336285Y-71508952D01*
X136383904Y-71318476D01*
X136431523Y-71223238D01*
X136526761Y-71128000D01*
X136669619Y-71080380D01*
X136764857Y-71080380D01*
X136907714Y-71128000D01*
X136955333Y-71175619D01*
X137288666Y-71080380D02*
X137907714Y-71080380D01*
X137574380Y-71461333D01*
X137717238Y-71461333D01*
X137812476Y-71508952D01*
X137860095Y-71556571D01*
X137907714Y-71651809D01*
X137907714Y-71889904D01*
X137860095Y-71985142D01*
X137812476Y-72032761D01*
X137717238Y-72080380D01*
X137431523Y-72080380D01*
X137336285Y-72032761D01*
X137288666Y-71985142D01*
X145115142Y-65889142D02*
X145067523Y-65936761D01*
X144924666Y-65984380D01*
X144829428Y-65984380D01*
X144686571Y-65936761D01*
X144591333Y-65841523D01*
X144543714Y-65746285D01*
X144496095Y-65555809D01*
X144496095Y-65412952D01*
X144543714Y-65222476D01*
X144591333Y-65127238D01*
X144686571Y-65032000D01*
X144829428Y-64984380D01*
X144924666Y-64984380D01*
X145067523Y-65032000D01*
X145115142Y-65079619D01*
X146067523Y-65984380D02*
X145496095Y-65984380D01*
X145781809Y-65984380D02*
X145781809Y-64984380D01*
X145686571Y-65127238D01*
X145591333Y-65222476D01*
X145496095Y-65270095D01*
X146924666Y-65317714D02*
X146924666Y-65984380D01*
X146686571Y-64936761D02*
X146448476Y-65651047D01*
X147067523Y-65651047D01*
X122293142Y-71190380D02*
X121959809Y-70714190D01*
X121721714Y-71190380D02*
X121721714Y-70190380D01*
X122102666Y-70190380D01*
X122197904Y-70238000D01*
X122245523Y-70285619D01*
X122293142Y-70380857D01*
X122293142Y-70523714D01*
X122245523Y-70618952D01*
X122197904Y-70666571D01*
X122102666Y-70714190D01*
X121721714Y-70714190D01*
X123245523Y-71190380D02*
X122674095Y-71190380D01*
X122959809Y-71190380D02*
X122959809Y-70190380D01*
X122864571Y-70333238D01*
X122769333Y-70428476D01*
X122674095Y-70476095D01*
X123864571Y-70190380D02*
X123959809Y-70190380D01*
X124055047Y-70238000D01*
X124102666Y-70285619D01*
X124150285Y-70380857D01*
X124197904Y-70571333D01*
X124197904Y-70809428D01*
X124150285Y-70999904D01*
X124102666Y-71095142D01*
X124055047Y-71142761D01*
X123959809Y-71190380D01*
X123864571Y-71190380D01*
X123769333Y-71142761D01*
X123721714Y-71095142D01*
X123674095Y-70999904D01*
X123626476Y-70809428D01*
X123626476Y-70571333D01*
X123674095Y-70380857D01*
X123721714Y-70285619D01*
X123769333Y-70238000D01*
X123864571Y-70190380D01*
X149515142Y-69730857D02*
X149562761Y-69778476D01*
X149610380Y-69921333D01*
X149610380Y-70016571D01*
X149562761Y-70159428D01*
X149467523Y-70254666D01*
X149372285Y-70302285D01*
X149181809Y-70349904D01*
X149038952Y-70349904D01*
X148848476Y-70302285D01*
X148753238Y-70254666D01*
X148658000Y-70159428D01*
X148610380Y-70016571D01*
X148610380Y-69921333D01*
X148658000Y-69778476D01*
X148705619Y-69730857D01*
X149610380Y-68778476D02*
X149610380Y-69349904D01*
X149610380Y-69064190D02*
X148610380Y-69064190D01*
X148753238Y-69159428D01*
X148848476Y-69254666D01*
X148896095Y-69349904D01*
X148610380Y-67921333D02*
X148610380Y-68111809D01*
X148658000Y-68207047D01*
X148705619Y-68254666D01*
X148848476Y-68349904D01*
X149038952Y-68397523D01*
X149419904Y-68397523D01*
X149515142Y-68349904D01*
X149562761Y-68302285D01*
X149610380Y-68207047D01*
X149610380Y-68016571D01*
X149562761Y-67921333D01*
X149515142Y-67873714D01*
X149419904Y-67826095D01*
X149181809Y-67826095D01*
X149086571Y-67873714D01*
X149038952Y-67921333D01*
X148991333Y-68016571D01*
X148991333Y-68207047D01*
X149038952Y-68302285D01*
X149086571Y-68349904D01*
X149181809Y-68397523D01*
X122515333Y-102719142D02*
X122467714Y-102766761D01*
X122324857Y-102814380D01*
X122229619Y-102814380D01*
X122086761Y-102766761D01*
X121991523Y-102671523D01*
X121943904Y-102576285D01*
X121896285Y-102385809D01*
X121896285Y-102242952D01*
X121943904Y-102052476D01*
X121991523Y-101957238D01*
X122086761Y-101862000D01*
X122229619Y-101814380D01*
X122324857Y-101814380D01*
X122467714Y-101862000D01*
X122515333Y-101909619D01*
X123467714Y-102814380D02*
X122896285Y-102814380D01*
X123182000Y-102814380D02*
X123182000Y-101814380D01*
X123086761Y-101957238D01*
X122991523Y-102052476D01*
X122896285Y-102100095D01*
D12*
X145396809Y-81153047D02*
X144992047Y-81153047D01*
X144944428Y-81176857D01*
X144920619Y-81200666D01*
X144896809Y-81248285D01*
X144896809Y-81343523D01*
X144920619Y-81391142D01*
X144944428Y-81414952D01*
X144992047Y-81438761D01*
X145396809Y-81438761D01*
X145349190Y-81653047D02*
X145373000Y-81676857D01*
X145396809Y-81724476D01*
X145396809Y-81843523D01*
X145373000Y-81891142D01*
X145349190Y-81914952D01*
X145301571Y-81938761D01*
X145253952Y-81938761D01*
X145182523Y-81914952D01*
X144896809Y-81629238D01*
X144896809Y-81938761D01*
D10*
X162340380Y-89725166D02*
X161864190Y-90058500D01*
X162340380Y-90296595D02*
X161340380Y-90296595D01*
X161340380Y-89915642D01*
X161388000Y-89820404D01*
X161435619Y-89772785D01*
X161530857Y-89725166D01*
X161673714Y-89725166D01*
X161768952Y-89772785D01*
X161816571Y-89820404D01*
X161864190Y-89915642D01*
X161864190Y-90296595D01*
X162340380Y-89248976D02*
X162340380Y-89058500D01*
X162292761Y-88963261D01*
X162245142Y-88915642D01*
X162102285Y-88820404D01*
X161911809Y-88772785D01*
X161530857Y-88772785D01*
X161435619Y-88820404D01*
X161388000Y-88868023D01*
X161340380Y-88963261D01*
X161340380Y-89153738D01*
X161388000Y-89248976D01*
X161435619Y-89296595D01*
X161530857Y-89344214D01*
X161768952Y-89344214D01*
X161864190Y-89296595D01*
X161911809Y-89248976D01*
X161959428Y-89153738D01*
X161959428Y-88963261D01*
X161911809Y-88868023D01*
X161864190Y-88820404D01*
X161768952Y-88772785D01*
X125055333Y-81224380D02*
X124722000Y-80748190D01*
X124483904Y-81224380D02*
X124483904Y-80224380D01*
X124864857Y-80224380D01*
X124960095Y-80272000D01*
X125007714Y-80319619D01*
X125055333Y-80414857D01*
X125055333Y-80557714D01*
X125007714Y-80652952D01*
X124960095Y-80700571D01*
X124864857Y-80748190D01*
X124483904Y-80748190D01*
X125960095Y-80224380D02*
X125483904Y-80224380D01*
X125436285Y-80700571D01*
X125483904Y-80652952D01*
X125579142Y-80605333D01*
X125817238Y-80605333D01*
X125912476Y-80652952D01*
X125960095Y-80700571D01*
X126007714Y-80795809D01*
X126007714Y-81033904D01*
X125960095Y-81129142D01*
X125912476Y-81176761D01*
X125817238Y-81224380D01*
X125579142Y-81224380D01*
X125483904Y-81176761D01*
X125436285Y-81129142D01*
X134415333Y-65889142D02*
X134367714Y-65936761D01*
X134224857Y-65984380D01*
X134129619Y-65984380D01*
X133986761Y-65936761D01*
X133891523Y-65841523D01*
X133843904Y-65746285D01*
X133796285Y-65555809D01*
X133796285Y-65412952D01*
X133843904Y-65222476D01*
X133891523Y-65127238D01*
X133986761Y-65032000D01*
X134129619Y-64984380D01*
X134224857Y-64984380D01*
X134367714Y-65032000D01*
X134415333Y-65079619D01*
X134748666Y-64984380D02*
X135415333Y-64984380D01*
X134986761Y-65984380D01*
X165170380Y-100242666D02*
X164694190Y-100576000D01*
X165170380Y-100814095D02*
X164170380Y-100814095D01*
X164170380Y-100433142D01*
X164218000Y-100337904D01*
X164265619Y-100290285D01*
X164360857Y-100242666D01*
X164503714Y-100242666D01*
X164598952Y-100290285D01*
X164646571Y-100337904D01*
X164694190Y-100433142D01*
X164694190Y-100814095D01*
X164170380Y-99385523D02*
X164170380Y-99576000D01*
X164218000Y-99671238D01*
X164265619Y-99718857D01*
X164408476Y-99814095D01*
X164598952Y-99861714D01*
X164979904Y-99861714D01*
X165075142Y-99814095D01*
X165122761Y-99766476D01*
X165170380Y-99671238D01*
X165170380Y-99480761D01*
X165122761Y-99385523D01*
X165075142Y-99337904D01*
X164979904Y-99290285D01*
X164741809Y-99290285D01*
X164646571Y-99337904D01*
X164598952Y-99385523D01*
X164551333Y-99480761D01*
X164551333Y-99671238D01*
X164598952Y-99766476D01*
X164646571Y-99814095D01*
X164741809Y-99861714D01*
X177760380Y-60531333D02*
X178474666Y-60531333D01*
X178617523Y-60578952D01*
X178712761Y-60674190D01*
X178760380Y-60817047D01*
X178760380Y-60912285D01*
X178760380Y-59531333D02*
X178760380Y-60102761D01*
X178760380Y-59817047D02*
X177760380Y-59817047D01*
X177903238Y-59912285D01*
X177998476Y-60007523D01*
X178046095Y-60102761D01*
X180879380Y-101171333D02*
X181593666Y-101171333D01*
X181736523Y-101218952D01*
X181831761Y-101314190D01*
X181879380Y-101457047D01*
X181879380Y-101552285D01*
X180879380Y-100790380D02*
X180879380Y-100171333D01*
X181260333Y-100504666D01*
X181260333Y-100361809D01*
X181307952Y-100266571D01*
X181355571Y-100218952D01*
X181450809Y-100171333D01*
X181688904Y-100171333D01*
X181784142Y-100218952D01*
X181831761Y-100266571D01*
X181879380Y-100361809D01*
X181879380Y-100647523D01*
X181831761Y-100742761D01*
X181784142Y-100790380D01*
X145288095Y-122902380D02*
X145859523Y-122902380D01*
X145573809Y-123902380D02*
X145573809Y-122902380D01*
X146192857Y-123902380D02*
X146192857Y-122902380D01*
X146573809Y-122902380D01*
X146669047Y-122950000D01*
X146716666Y-122997619D01*
X146764285Y-123092857D01*
X146764285Y-123235714D01*
X146716666Y-123330952D01*
X146669047Y-123378571D01*
X146573809Y-123426190D01*
X146192857Y-123426190D01*
X147669047Y-122902380D02*
X147192857Y-122902380D01*
X147145238Y-123378571D01*
X147192857Y-123330952D01*
X147288095Y-123283333D01*
X147526190Y-123283333D01*
X147621428Y-123330952D01*
X147669047Y-123378571D01*
X147716666Y-123473809D01*
X147716666Y-123711904D01*
X147669047Y-123807142D01*
X147621428Y-123854761D01*
X147526190Y-123902380D01*
X147288095Y-123902380D01*
X147192857Y-123854761D01*
X147145238Y-123807142D01*
X166966380Y-66016095D02*
X165966380Y-66016095D01*
X165966380Y-65778000D01*
X166014000Y-65635142D01*
X166109238Y-65539904D01*
X166204476Y-65492285D01*
X166394952Y-65444666D01*
X166537809Y-65444666D01*
X166728285Y-65492285D01*
X166823523Y-65539904D01*
X166918761Y-65635142D01*
X166966380Y-65778000D01*
X166966380Y-66016095D01*
X166966380Y-64492285D02*
X166966380Y-65063714D01*
X166966380Y-64778000D02*
X165966380Y-64778000D01*
X166109238Y-64873238D01*
X166204476Y-64968476D01*
X166252095Y-65063714D01*
X118739142Y-82061142D02*
X118691523Y-82108761D01*
X118548666Y-82156380D01*
X118453428Y-82156380D01*
X118310571Y-82108761D01*
X118215333Y-82013523D01*
X118167714Y-81918285D01*
X118120095Y-81727809D01*
X118120095Y-81584952D01*
X118167714Y-81394476D01*
X118215333Y-81299238D01*
X118310571Y-81204000D01*
X118453428Y-81156380D01*
X118548666Y-81156380D01*
X118691523Y-81204000D01*
X118739142Y-81251619D01*
X119691523Y-82156380D02*
X119120095Y-82156380D01*
X119405809Y-82156380D02*
X119405809Y-81156380D01*
X119310571Y-81299238D01*
X119215333Y-81394476D01*
X119120095Y-81442095D01*
X120262952Y-81584952D02*
X120167714Y-81537333D01*
X120120095Y-81489714D01*
X120072476Y-81394476D01*
X120072476Y-81346857D01*
X120120095Y-81251619D01*
X120167714Y-81204000D01*
X120262952Y-81156380D01*
X120453428Y-81156380D01*
X120548666Y-81204000D01*
X120596285Y-81251619D01*
X120643904Y-81346857D01*
X120643904Y-81394476D01*
X120596285Y-81489714D01*
X120548666Y-81537333D01*
X120453428Y-81584952D01*
X120262952Y-81584952D01*
X120167714Y-81632571D01*
X120120095Y-81680190D01*
X120072476Y-81775428D01*
X120072476Y-81965904D01*
X120120095Y-82061142D01*
X120167714Y-82108761D01*
X120262952Y-82156380D01*
X120453428Y-82156380D01*
X120548666Y-82108761D01*
X120596285Y-82061142D01*
X120643904Y-81965904D01*
X120643904Y-81775428D01*
X120596285Y-81680190D01*
X120548666Y-81632571D01*
X120453428Y-81584952D01*
X142067142Y-65889142D02*
X142019523Y-65936761D01*
X141876666Y-65984380D01*
X141781428Y-65984380D01*
X141638571Y-65936761D01*
X141543333Y-65841523D01*
X141495714Y-65746285D01*
X141448095Y-65555809D01*
X141448095Y-65412952D01*
X141495714Y-65222476D01*
X141543333Y-65127238D01*
X141638571Y-65032000D01*
X141781428Y-64984380D01*
X141876666Y-64984380D01*
X142019523Y-65032000D01*
X142067142Y-65079619D01*
X143019523Y-65984380D02*
X142448095Y-65984380D01*
X142733809Y-65984380D02*
X142733809Y-64984380D01*
X142638571Y-65127238D01*
X142543333Y-65222476D01*
X142448095Y-65270095D01*
X143924285Y-64984380D02*
X143448095Y-64984380D01*
X143400476Y-65460571D01*
X143448095Y-65412952D01*
X143543333Y-65365333D01*
X143781428Y-65365333D01*
X143876666Y-65412952D01*
X143924285Y-65460571D01*
X143971904Y-65555809D01*
X143971904Y-65793904D01*
X143924285Y-65889142D01*
X143876666Y-65936761D01*
X143781428Y-65984380D01*
X143543333Y-65984380D01*
X143448095Y-65936761D01*
X143400476Y-65889142D01*
X157028585Y-116943142D02*
X156980966Y-116990761D01*
X156838109Y-117038380D01*
X156742871Y-117038380D01*
X156600013Y-116990761D01*
X156504775Y-116895523D01*
X156457156Y-116800285D01*
X156409537Y-116609809D01*
X156409537Y-116466952D01*
X156457156Y-116276476D01*
X156504775Y-116181238D01*
X156600013Y-116086000D01*
X156742871Y-116038380D01*
X156838109Y-116038380D01*
X156980966Y-116086000D01*
X157028585Y-116133619D01*
X157885728Y-116038380D02*
X157695252Y-116038380D01*
X157600013Y-116086000D01*
X157552394Y-116133619D01*
X157457156Y-116276476D01*
X157409537Y-116466952D01*
X157409537Y-116847904D01*
X157457156Y-116943142D01*
X157504775Y-116990761D01*
X157600013Y-117038380D01*
X157790490Y-117038380D01*
X157885728Y-116990761D01*
X157933347Y-116943142D01*
X157980966Y-116847904D01*
X157980966Y-116609809D01*
X157933347Y-116514571D01*
X157885728Y-116466952D01*
X157790490Y-116419333D01*
X157600013Y-116419333D01*
X157504775Y-116466952D01*
X157457156Y-116514571D01*
X157409537Y-116609809D01*
X136955333Y-60142380D02*
X136622000Y-59666190D01*
X136383904Y-60142380D02*
X136383904Y-59142380D01*
X136764857Y-59142380D01*
X136860095Y-59190000D01*
X136907714Y-59237619D01*
X136955333Y-59332857D01*
X136955333Y-59475714D01*
X136907714Y-59570952D01*
X136860095Y-59618571D01*
X136764857Y-59666190D01*
X136383904Y-59666190D01*
X137812476Y-59475714D02*
X137812476Y-60142380D01*
X137574380Y-59094761D02*
X137336285Y-59809047D01*
X137955333Y-59809047D01*
X165260380Y-103798666D02*
X164784190Y-104132000D01*
X165260380Y-104370095D02*
X164260380Y-104370095D01*
X164260380Y-103989142D01*
X164308000Y-103893904D01*
X164355619Y-103846285D01*
X164450857Y-103798666D01*
X164593714Y-103798666D01*
X164688952Y-103846285D01*
X164736571Y-103893904D01*
X164784190Y-103989142D01*
X164784190Y-104370095D01*
X164688952Y-103227238D02*
X164641333Y-103322476D01*
X164593714Y-103370095D01*
X164498476Y-103417714D01*
X164450857Y-103417714D01*
X164355619Y-103370095D01*
X164308000Y-103322476D01*
X164260380Y-103227238D01*
X164260380Y-103036761D01*
X164308000Y-102941523D01*
X164355619Y-102893904D01*
X164450857Y-102846285D01*
X164498476Y-102846285D01*
X164593714Y-102893904D01*
X164641333Y-102941523D01*
X164688952Y-103036761D01*
X164688952Y-103227238D01*
X164736571Y-103322476D01*
X164784190Y-103370095D01*
X164879428Y-103417714D01*
X165069904Y-103417714D01*
X165165142Y-103370095D01*
X165212761Y-103322476D01*
X165260380Y-103227238D01*
X165260380Y-103036761D01*
X165212761Y-102941523D01*
X165165142Y-102893904D01*
X165069904Y-102846285D01*
X164879428Y-102846285D01*
X164784190Y-102893904D01*
X164736571Y-102941523D01*
X164688952Y-103036761D01*
X127392761Y-93027333D02*
X127440380Y-92884476D01*
X127440380Y-92646380D01*
X127392761Y-92551142D01*
X127345142Y-92503523D01*
X127249904Y-92455904D01*
X127154666Y-92455904D01*
X127059428Y-92503523D01*
X127011809Y-92551142D01*
X126964190Y-92646380D01*
X126916571Y-92836857D01*
X126868952Y-92932095D01*
X126821333Y-92979714D01*
X126726095Y-93027333D01*
X126630857Y-93027333D01*
X126535619Y-92979714D01*
X126488000Y-92932095D01*
X126440380Y-92836857D01*
X126440380Y-92598761D01*
X126488000Y-92455904D01*
X126440380Y-92122571D02*
X127440380Y-91884476D01*
X126726095Y-91694000D01*
X127440380Y-91503523D01*
X126440380Y-91265428D01*
X127440380Y-90360666D02*
X127440380Y-90932095D01*
X127440380Y-90646380D02*
X126440380Y-90646380D01*
X126583238Y-90741619D01*
X126678476Y-90836857D01*
X126726095Y-90932095D01*
X136955333Y-65889142D02*
X136907714Y-65936761D01*
X136764857Y-65984380D01*
X136669619Y-65984380D01*
X136526761Y-65936761D01*
X136431523Y-65841523D01*
X136383904Y-65746285D01*
X136336285Y-65555809D01*
X136336285Y-65412952D01*
X136383904Y-65222476D01*
X136431523Y-65127238D01*
X136526761Y-65032000D01*
X136669619Y-64984380D01*
X136764857Y-64984380D01*
X136907714Y-65032000D01*
X136955333Y-65079619D01*
X137860095Y-64984380D02*
X137383904Y-64984380D01*
X137336285Y-65460571D01*
X137383904Y-65412952D01*
X137479142Y-65365333D01*
X137717238Y-65365333D01*
X137812476Y-65412952D01*
X137860095Y-65460571D01*
X137907714Y-65555809D01*
X137907714Y-65793904D01*
X137860095Y-65889142D01*
X137812476Y-65936761D01*
X137717238Y-65984380D01*
X137479142Y-65984380D01*
X137383904Y-65936761D01*
X137336285Y-65889142D01*
X150233142Y-65889142D02*
X150185523Y-65936761D01*
X150042666Y-65984380D01*
X149947428Y-65984380D01*
X149804571Y-65936761D01*
X149709333Y-65841523D01*
X149661714Y-65746285D01*
X149614095Y-65555809D01*
X149614095Y-65412952D01*
X149661714Y-65222476D01*
X149709333Y-65127238D01*
X149804571Y-65032000D01*
X149947428Y-64984380D01*
X150042666Y-64984380D01*
X150185523Y-65032000D01*
X150233142Y-65079619D01*
X151185523Y-65984380D02*
X150614095Y-65984380D01*
X150899809Y-65984380D02*
X150899809Y-64984380D01*
X150804571Y-65127238D01*
X150709333Y-65222476D01*
X150614095Y-65270095D01*
X151566476Y-65079619D02*
X151614095Y-65032000D01*
X151709333Y-64984380D01*
X151947428Y-64984380D01*
X152042666Y-65032000D01*
X152090285Y-65079619D01*
X152137904Y-65174857D01*
X152137904Y-65270095D01*
X152090285Y-65412952D01*
X151518857Y-65984380D01*
X152137904Y-65984380D01*
X134415333Y-71985142D02*
X134367714Y-72032761D01*
X134224857Y-72080380D01*
X134129619Y-72080380D01*
X133986761Y-72032761D01*
X133891523Y-71937523D01*
X133843904Y-71842285D01*
X133796285Y-71651809D01*
X133796285Y-71508952D01*
X133843904Y-71318476D01*
X133891523Y-71223238D01*
X133986761Y-71128000D01*
X134129619Y-71080380D01*
X134224857Y-71080380D01*
X134367714Y-71128000D01*
X134415333Y-71175619D01*
X134891523Y-72080380D02*
X135082000Y-72080380D01*
X135177238Y-72032761D01*
X135224857Y-71985142D01*
X135320095Y-71842285D01*
X135367714Y-71651809D01*
X135367714Y-71270857D01*
X135320095Y-71175619D01*
X135272476Y-71128000D01*
X135177238Y-71080380D01*
X134986761Y-71080380D01*
X134891523Y-71128000D01*
X134843904Y-71175619D01*
X134796285Y-71270857D01*
X134796285Y-71508952D01*
X134843904Y-71604190D01*
X134891523Y-71651809D01*
X134986761Y-71699428D01*
X135177238Y-71699428D01*
X135272476Y-71651809D01*
X135320095Y-71604190D01*
X135367714Y-71508952D01*
X147439142Y-60809142D02*
X147391523Y-60856761D01*
X147248666Y-60904380D01*
X147153428Y-60904380D01*
X147010571Y-60856761D01*
X146915333Y-60761523D01*
X146867714Y-60666285D01*
X146820095Y-60475809D01*
X146820095Y-60332952D01*
X146867714Y-60142476D01*
X146915333Y-60047238D01*
X147010571Y-59952000D01*
X147153428Y-59904380D01*
X147248666Y-59904380D01*
X147391523Y-59952000D01*
X147439142Y-59999619D01*
X148391523Y-60904380D02*
X147820095Y-60904380D01*
X148105809Y-60904380D02*
X148105809Y-59904380D01*
X148010571Y-60047238D01*
X147915333Y-60142476D01*
X147820095Y-60190095D01*
X148724857Y-59904380D02*
X149343904Y-59904380D01*
X149010571Y-60285333D01*
X149153428Y-60285333D01*
X149248666Y-60332952D01*
X149296285Y-60380571D01*
X149343904Y-60475809D01*
X149343904Y-60713904D01*
X149296285Y-60809142D01*
X149248666Y-60856761D01*
X149153428Y-60904380D01*
X148867714Y-60904380D01*
X148772476Y-60856761D01*
X148724857Y-60809142D01*
X167166380Y-69508666D02*
X166690190Y-69842000D01*
X167166380Y-70080095D02*
X166166380Y-70080095D01*
X166166380Y-69699142D01*
X166214000Y-69603904D01*
X166261619Y-69556285D01*
X166356857Y-69508666D01*
X166499714Y-69508666D01*
X166594952Y-69556285D01*
X166642571Y-69603904D01*
X166690190Y-69699142D01*
X166690190Y-70080095D01*
X166261619Y-69127714D02*
X166214000Y-69080095D01*
X166166380Y-68984857D01*
X166166380Y-68746761D01*
X166214000Y-68651523D01*
X166261619Y-68603904D01*
X166356857Y-68556285D01*
X166452095Y-68556285D01*
X166594952Y-68603904D01*
X167166380Y-69175333D01*
X167166380Y-68556285D01*
X128819142Y-71561142D02*
X128771523Y-71608761D01*
X128628666Y-71656380D01*
X128533428Y-71656380D01*
X128390571Y-71608761D01*
X128295333Y-71513523D01*
X128247714Y-71418285D01*
X128200095Y-71227809D01*
X128200095Y-71084952D01*
X128247714Y-70894476D01*
X128295333Y-70799238D01*
X128390571Y-70704000D01*
X128533428Y-70656380D01*
X128628666Y-70656380D01*
X128771523Y-70704000D01*
X128819142Y-70751619D01*
X129771523Y-71656380D02*
X129200095Y-71656380D01*
X129485809Y-71656380D02*
X129485809Y-70656380D01*
X129390571Y-70799238D01*
X129295333Y-70894476D01*
X129200095Y-70942095D01*
X130104857Y-70656380D02*
X130771523Y-70656380D01*
X130342952Y-71656380D01*
X166431904Y-46934380D02*
X166431904Y-45934380D01*
X166670000Y-45934380D01*
X166812857Y-45982000D01*
X166908095Y-46077238D01*
X166955714Y-46172476D01*
X167003333Y-46362952D01*
X167003333Y-46505809D01*
X166955714Y-46696285D01*
X166908095Y-46791523D01*
X166812857Y-46886761D01*
X166670000Y-46934380D01*
X166431904Y-46934380D01*
X167384285Y-46029619D02*
X167431904Y-45982000D01*
X167527142Y-45934380D01*
X167765238Y-45934380D01*
X167860476Y-45982000D01*
X167908095Y-46029619D01*
X167955714Y-46124857D01*
X167955714Y-46220095D01*
X167908095Y-46362952D01*
X167336666Y-46934380D01*
X167955714Y-46934380D01*
X126595142Y-86526666D02*
X126642761Y-86574285D01*
X126690380Y-86717142D01*
X126690380Y-86812380D01*
X126642761Y-86955238D01*
X126547523Y-87050476D01*
X126452285Y-87098095D01*
X126261809Y-87145714D01*
X126118952Y-87145714D01*
X125928476Y-87098095D01*
X125833238Y-87050476D01*
X125738000Y-86955238D01*
X125690380Y-86812380D01*
X125690380Y-86717142D01*
X125738000Y-86574285D01*
X125785619Y-86526666D01*
X125785619Y-86145714D02*
X125738000Y-86098095D01*
X125690380Y-86002857D01*
X125690380Y-85764761D01*
X125738000Y-85669523D01*
X125785619Y-85621904D01*
X125880857Y-85574285D01*
X125976095Y-85574285D01*
X126118952Y-85621904D01*
X126690380Y-86193333D01*
X126690380Y-85574285D01*
D13*
X116415500Y-56864000D02*
X116415500Y-66024000D01*
X121340500Y-66024000D02*
X120485500Y-66024000D01*
X117365500Y-56864000D02*
X116415500Y-56864000D01*
X117365500Y-66024000D02*
X116415500Y-66024000D01*
X121340500Y-56864000D02*
X120485500Y-56864000D01*
X166892000Y-76234000D02*
X166892000Y-86834000D01*
X163692000Y-76234000D02*
X166892000Y-76234000D01*
X166892000Y-86834000D02*
X163692000Y-86834000D01*
X156292000Y-86834000D02*
X156292000Y-76234000D01*
X156292000Y-76234000D02*
X159492000Y-76234000D01*
X159492000Y-86834000D02*
X156292000Y-86834000D01*
X129020936Y-57631000D02*
X129475064Y-57631000D01*
X129020936Y-56161000D02*
X129475064Y-56161000D01*
X129209436Y-54075000D02*
X129663564Y-54075000D01*
X129209436Y-52605000D02*
X129663564Y-52605000D01*
X119392000Y-89494000D02*
X119292000Y-89494000D01*
X117792000Y-89494000D02*
X117792000Y-93894000D01*
X119392000Y-93894000D02*
X119292000Y-93894000D01*
X120892000Y-93894000D02*
X120892000Y-89494000D01*
X146880000Y-49530000D02*
G75*
G03*
X146880000Y-49530000I-2100000J0D01*
G01*
X138927000Y-62730748D02*
X138927000Y-63253252D01*
X140397000Y-62730748D02*
X140397000Y-63253252D01*
X156672748Y-100049000D02*
X157195252Y-100049000D01*
X156672748Y-98579000D02*
X157195252Y-98579000D01*
X140292000Y-68760748D02*
X140292000Y-69283252D01*
X138822000Y-68760748D02*
X138822000Y-69283252D01*
X118930000Y-104398000D02*
X116810000Y-104398000D01*
X118930000Y-112518000D02*
X117870000Y-112518000D01*
X116810000Y-110458000D02*
X116810000Y-104398000D01*
X118930000Y-110458000D02*
X116810000Y-110458000D01*
X118930000Y-111458000D02*
X118930000Y-112518000D01*
X118930000Y-110458000D02*
X118930000Y-104398000D01*
X154547000Y-66662000D02*
X155237000Y-66662000D01*
X154547000Y-65162000D02*
X154547000Y-66662000D01*
X155237000Y-66662000D02*
X155237000Y-71787000D01*
X164257000Y-66662000D02*
X164257000Y-67762000D01*
X164947000Y-65162000D02*
X164947000Y-66662000D01*
X164947000Y-66662000D02*
X164257000Y-66662000D01*
X125719000Y-105163252D02*
X125719000Y-104640748D01*
X127189000Y-105163252D02*
X127189000Y-104640748D01*
X161582564Y-115289000D02*
X161128436Y-115289000D01*
X161582564Y-113819000D02*
X161128436Y-113819000D01*
X130916000Y-115064000D02*
X130916000Y-108314000D01*
X148916000Y-115064000D02*
X148916000Y-108314000D01*
X130916000Y-89564000D02*
X131916000Y-89564000D01*
X148916000Y-115064000D02*
X130916000Y-115064000D01*
X130916000Y-109124000D02*
X148916000Y-109124000D01*
X148916000Y-90314000D02*
X148916000Y-89564000D01*
X130916000Y-90314000D02*
X130916000Y-89564000D01*
X148916000Y-89564000D02*
X147916000Y-89564000D01*
X179737000Y-94294000D02*
X179737000Y-95894000D01*
X171107000Y-83214000D02*
X171107000Y-95094000D01*
X171107000Y-83214000D02*
X172777000Y-83214000D01*
X171107000Y-95094000D02*
X170107000Y-95094000D01*
X179737000Y-95894000D02*
X180337000Y-95894000D01*
X171112000Y-81194000D02*
X180337000Y-81194000D01*
X180337000Y-81194000D02*
X180337000Y-97114000D01*
X180337000Y-94294000D02*
X179737000Y-94294000D01*
X179737000Y-86374000D02*
X179737000Y-87974000D01*
X170107000Y-83099000D02*
X171112000Y-83099000D01*
X171112000Y-83099000D02*
X171112000Y-81194000D01*
X179737000Y-90334000D02*
X179737000Y-91934000D01*
X179737000Y-87974000D02*
X180337000Y-87974000D01*
X170107000Y-95209000D02*
X170107000Y-83099000D01*
X179737000Y-84014000D02*
X180337000Y-84014000D01*
X177117000Y-80904000D02*
X173117000Y-80904000D01*
X180337000Y-86374000D02*
X179737000Y-86374000D01*
X172777000Y-95094000D02*
X171107000Y-95094000D01*
X172777000Y-83214000D02*
X172777000Y-95094000D01*
X180337000Y-90334000D02*
X179737000Y-90334000D01*
X179737000Y-91934000D02*
X180337000Y-91934000D01*
X171112000Y-97114000D02*
X171112000Y-95209000D01*
X179737000Y-82414000D02*
X179737000Y-84014000D01*
X180337000Y-82414000D02*
X179737000Y-82414000D01*
X171112000Y-95209000D02*
X170107000Y-95209000D01*
X180337000Y-97114000D02*
X171112000Y-97114000D01*
X170107000Y-83214000D02*
X171107000Y-83214000D01*
X118878000Y-97746000D02*
X116758000Y-97746000D01*
X116758000Y-99806000D02*
X116758000Y-97746000D01*
X118878000Y-100806000D02*
X118878000Y-101866000D01*
X118878000Y-99806000D02*
X116758000Y-99806000D01*
X118878000Y-101866000D02*
X117818000Y-101866000D01*
X118878000Y-99806000D02*
X118878000Y-97746000D01*
X144422000Y-55650000D02*
X144422000Y-56650000D01*
X144422000Y-58700000D02*
X142572000Y-58700000D01*
X144422000Y-57650000D02*
X144422000Y-58700000D01*
X144402000Y-55640000D02*
X141972000Y-55640000D01*
X132910000Y-120650000D02*
G75*
G03*
X132910000Y-120650000I-2100000J0D01*
G01*
X127497000Y-83084936D02*
X127497000Y-83539064D01*
X128967000Y-83084936D02*
X128967000Y-83539064D01*
X137990000Y-49530000D02*
G75*
G03*
X137990000Y-49530000I-2100000J0D01*
G01*
X135580000Y-58150000D02*
X135580000Y-55465000D01*
X133660000Y-55465000D02*
X133660000Y-58150000D01*
X135580000Y-55465000D02*
X133660000Y-55465000D01*
X119257000Y-85882748D02*
X119257000Y-86405252D01*
X117787000Y-85882748D02*
X117787000Y-86405252D01*
X140530000Y-120650000D02*
G75*
G03*
X140530000Y-120650000I-2100000J0D01*
G01*
D14*
X160966000Y-96234000D02*
X160966000Y-95939000D01*
X160966000Y-92234000D02*
X160671000Y-92234000D01*
X160966000Y-96234000D02*
X160671000Y-96234000D01*
X160966000Y-92234000D02*
X160966000Y-92529000D01*
X156966000Y-96234000D02*
X157261000Y-96234000D01*
X156966000Y-92234000D02*
X157261000Y-92234000D01*
X156966000Y-96234000D02*
X156966000Y-95939000D01*
X156966000Y-92234000D02*
X156966000Y-92529000D01*
D15*
X162041000Y-95484000D02*
G75*
G03*
X162041000Y-95484000I-100000J0D01*
G01*
D14*
X156966000Y-111474000D02*
X157261000Y-111474000D01*
X156966000Y-107474000D02*
X157261000Y-107474000D01*
X156966000Y-111474000D02*
X156966000Y-111179000D01*
X156966000Y-107474000D02*
X156966000Y-107769000D01*
X160966000Y-111474000D02*
X160966000Y-111179000D01*
X160966000Y-107474000D02*
X160671000Y-107474000D01*
X160966000Y-107474000D02*
X160966000Y-107769000D01*
X160966000Y-111474000D02*
X160671000Y-111474000D01*
D15*
X162041000Y-110724000D02*
G75*
G03*
X162041000Y-110724000I-100000J0D01*
G01*
D13*
X137857000Y-68760748D02*
X137857000Y-69283252D01*
X136387000Y-68760748D02*
X136387000Y-69283252D01*
X144769000Y-62730748D02*
X144769000Y-63253252D01*
X146239000Y-62730748D02*
X146239000Y-63253252D01*
X123163064Y-68353000D02*
X122708936Y-68353000D01*
X123163064Y-69823000D02*
X122708936Y-69823000D01*
X150103000Y-69349252D02*
X150103000Y-68826748D01*
X151573000Y-69349252D02*
X151573000Y-68826748D01*
X121909000Y-105163252D02*
X121909000Y-104640748D01*
X123379000Y-105163252D02*
X123379000Y-104640748D01*
D16*
X143836000Y-79634000D02*
X138546000Y-79634000D01*
X138546000Y-79634000D02*
X138546000Y-83384000D01*
X138546000Y-83384000D02*
X143836000Y-83384000D01*
X143836000Y-83384000D02*
X143836000Y-79634000D01*
D13*
X162803000Y-89785564D02*
X162803000Y-89331436D01*
X164273000Y-89785564D02*
X164273000Y-89331436D01*
X125411064Y-81815000D02*
X124956936Y-81815000D01*
X125411064Y-83285000D02*
X124956936Y-83285000D01*
X135317000Y-62730748D02*
X135317000Y-63253252D01*
X133847000Y-62730748D02*
X133847000Y-63253252D01*
X162333000Y-99848936D02*
X162333000Y-100303064D01*
X163803000Y-99848936D02*
X163803000Y-100303064D01*
D14*
X173914000Y-77854000D02*
X171464000Y-75054000D01*
X171464000Y-75054000D02*
X171464000Y-62354000D01*
X179564000Y-62354000D02*
X179564000Y-75054000D01*
X179564000Y-75054000D02*
X177114000Y-77854000D01*
X176014000Y-61104000D02*
X175014000Y-61104000D01*
X175514000Y-60604000D02*
X175514000Y-61604000D01*
X171464000Y-62354000D02*
X179564000Y-62354000D01*
X177114000Y-77854000D02*
X173914000Y-77854000D01*
X175514000Y-78604000D02*
X175514000Y-79604000D01*
D13*
X179737000Y-112074000D02*
X179737000Y-113674000D01*
X171112000Y-100879000D02*
X171112000Y-98974000D01*
X170107000Y-100994000D02*
X171107000Y-100994000D01*
X180337000Y-98974000D02*
X180337000Y-114894000D01*
X180337000Y-104154000D02*
X179737000Y-104154000D01*
X170107000Y-100879000D02*
X171112000Y-100879000D01*
X179737000Y-113674000D02*
X180337000Y-113674000D01*
X171112000Y-112989000D02*
X170107000Y-112989000D01*
X171107000Y-100994000D02*
X172777000Y-100994000D01*
X179737000Y-100194000D02*
X179737000Y-101794000D01*
X179737000Y-108114000D02*
X179737000Y-109714000D01*
X179737000Y-109714000D02*
X180337000Y-109714000D01*
X172777000Y-100994000D02*
X172777000Y-112874000D01*
X180337000Y-112074000D02*
X179737000Y-112074000D01*
X171112000Y-98974000D02*
X180337000Y-98974000D01*
X179737000Y-101794000D02*
X180337000Y-101794000D01*
X180337000Y-100194000D02*
X179737000Y-100194000D01*
X171107000Y-100994000D02*
X171107000Y-112874000D01*
X171107000Y-112874000D02*
X170107000Y-112874000D01*
X172777000Y-112874000D02*
X171107000Y-112874000D01*
X177117000Y-98684000D02*
X173117000Y-98684000D01*
X179737000Y-105754000D02*
X180337000Y-105754000D01*
X170107000Y-112989000D02*
X170107000Y-100879000D01*
X179737000Y-104154000D02*
X179737000Y-105754000D01*
X180337000Y-108114000D02*
X179737000Y-108114000D01*
X180337000Y-114894000D02*
X171112000Y-114894000D01*
X171112000Y-114894000D02*
X171112000Y-112989000D01*
X148150000Y-120650000D02*
G75*
G03*
X148150000Y-120650000I-2100000J0D01*
G01*
X169214000Y-66778000D02*
X169214000Y-64228000D01*
X167514000Y-66778000D02*
X167514000Y-64228000D01*
X167514000Y-66778000D02*
X169214000Y-66778000D01*
X118661000Y-80471000D02*
X118661000Y-72437000D01*
X116261000Y-75414000D02*
X116261000Y-73803000D01*
X117701000Y-75414000D02*
X117701000Y-72732000D01*
X119302000Y-80534000D02*
X119302000Y-72374000D01*
X117381000Y-80016000D02*
X117381000Y-77494000D01*
X116581000Y-75414000D02*
X116581000Y-73471000D01*
X118742000Y-80484000D02*
X118742000Y-72424000D01*
X116021000Y-75414000D02*
X116021000Y-74109000D01*
X117141000Y-75414000D02*
X117141000Y-73036000D01*
X115581000Y-78006000D02*
X115581000Y-74902000D01*
X117141000Y-79872000D02*
X117141000Y-77494000D01*
X118461000Y-80430000D02*
X118461000Y-72478000D01*
X117941000Y-80275000D02*
X117941000Y-72633000D01*
X116341000Y-75414000D02*
X116341000Y-73713000D01*
X117061000Y-79819000D02*
X117061000Y-77494000D01*
X118141000Y-80343000D02*
X118141000Y-72565000D01*
X119382000Y-80534000D02*
X119382000Y-72374000D01*
X116341000Y-79195000D02*
X116341000Y-77494000D01*
X117781000Y-80211000D02*
X117781000Y-77494000D01*
X117901000Y-80259000D02*
X117901000Y-77494000D01*
X116701000Y-79544000D02*
X116701000Y-77494000D01*
X116861000Y-79674000D02*
X116861000Y-77494000D01*
X117261000Y-75414000D02*
X117261000Y-72961000D01*
X117261000Y-79947000D02*
X117261000Y-77494000D01*
X118341000Y-80401000D02*
X118341000Y-72507000D01*
X118782000Y-80491000D02*
X118782000Y-72417000D01*
X116061000Y-78854000D02*
X116061000Y-77494000D01*
X116221000Y-79058000D02*
X116221000Y-77494000D01*
X117541000Y-75414000D02*
X117541000Y-72807000D01*
X118862000Y-80502000D02*
X118862000Y-72406000D01*
X117381000Y-75414000D02*
X117381000Y-72892000D01*
X116021000Y-78799000D02*
X116021000Y-77494000D01*
X116461000Y-75414000D02*
X116461000Y-73587000D01*
X116661000Y-75414000D02*
X116661000Y-73399000D01*
X118702000Y-80478000D02*
X118702000Y-72430000D01*
X115901000Y-75414000D02*
X115901000Y-74288000D01*
X116061000Y-75414000D02*
X116061000Y-74054000D01*
X117421000Y-75414000D02*
X117421000Y-72870000D01*
X118181000Y-80356000D02*
X118181000Y-72552000D01*
X123791698Y-78769000D02*
X122991698Y-78769000D01*
X117861000Y-80244000D02*
X117861000Y-77494000D01*
X116661000Y-79509000D02*
X116661000Y-77494000D01*
X116581000Y-79437000D02*
X116581000Y-77494000D01*
X115861000Y-75414000D02*
X115861000Y-74352000D01*
X116181000Y-75414000D02*
X116181000Y-73898000D01*
X116981000Y-79763000D02*
X116981000Y-77494000D01*
X117741000Y-75414000D02*
X117741000Y-72714000D01*
X117301000Y-79971000D02*
X117301000Y-77494000D01*
X117501000Y-75414000D02*
X117501000Y-72827000D01*
X116381000Y-79238000D02*
X116381000Y-77494000D01*
X116141000Y-75414000D02*
X116141000Y-73949000D01*
X117061000Y-75414000D02*
X117061000Y-73089000D01*
X116861000Y-75414000D02*
X116861000Y-73234000D01*
X116901000Y-75414000D02*
X116901000Y-73204000D01*
X115941000Y-75414000D02*
X115941000Y-74226000D01*
X115981000Y-75414000D02*
X115981000Y-74167000D01*
X117541000Y-80101000D02*
X117541000Y-77494000D01*
X117581000Y-80120000D02*
X117581000Y-77494000D01*
X116621000Y-75414000D02*
X116621000Y-73435000D01*
X117621000Y-75414000D02*
X117621000Y-72768000D01*
X117861000Y-75414000D02*
X117861000Y-72664000D01*
X116101000Y-78908000D02*
X116101000Y-77494000D01*
X116221000Y-75414000D02*
X116221000Y-73850000D01*
X118301000Y-80390000D02*
X118301000Y-72518000D01*
X116501000Y-79361000D02*
X116501000Y-77494000D01*
X116621000Y-79473000D02*
X116621000Y-77494000D01*
X117821000Y-80228000D02*
X117821000Y-77494000D01*
X116461000Y-79321000D02*
X116461000Y-77494000D01*
X119222000Y-80531000D02*
X119222000Y-72377000D01*
X117221000Y-79923000D02*
X117221000Y-77494000D01*
X115341000Y-77222000D02*
X115341000Y-75686000D01*
X118381000Y-80411000D02*
X118381000Y-72497000D01*
X118261000Y-80379000D02*
X118261000Y-72529000D01*
X117501000Y-80081000D02*
X117501000Y-77494000D01*
X116941000Y-75414000D02*
X116941000Y-73174000D01*
X116301000Y-79151000D02*
X116301000Y-77494000D01*
X118982000Y-80515000D02*
X118982000Y-72393000D01*
X117661000Y-80158000D02*
X117661000Y-77494000D01*
X116981000Y-75414000D02*
X116981000Y-73145000D01*
X116701000Y-75414000D02*
X116701000Y-73364000D01*
X117301000Y-75414000D02*
X117301000Y-72937000D01*
X116421000Y-75414000D02*
X116421000Y-73628000D01*
X117901000Y-75414000D02*
X117901000Y-72649000D01*
X115661000Y-78185000D02*
X115661000Y-74723000D01*
X117781000Y-75414000D02*
X117781000Y-72697000D01*
X119102000Y-80525000D02*
X119102000Y-72383000D01*
X123391698Y-79169000D02*
X123391698Y-78369000D01*
X119342000Y-80534000D02*
X119342000Y-72374000D01*
X118021000Y-80304000D02*
X118021000Y-72604000D01*
X116381000Y-75414000D02*
X116381000Y-73670000D01*
X115941000Y-78682000D02*
X115941000Y-77494000D01*
X116781000Y-79610000D02*
X116781000Y-77494000D01*
X117461000Y-80060000D02*
X117461000Y-77494000D01*
X116941000Y-79734000D02*
X116941000Y-77494000D01*
X119142000Y-80528000D02*
X119142000Y-72380000D01*
X117101000Y-79846000D02*
X117101000Y-77494000D01*
X119182000Y-80530000D02*
X119182000Y-72378000D01*
X116821000Y-75414000D02*
X116821000Y-73265000D01*
X117021000Y-75414000D02*
X117021000Y-73116000D01*
X115461000Y-77683000D02*
X115461000Y-75225000D01*
X115821000Y-78488000D02*
X115821000Y-74420000D01*
X115741000Y-78344000D02*
X115741000Y-74564000D01*
X118421000Y-80421000D02*
X118421000Y-72487000D01*
X115301000Y-76987000D02*
X115301000Y-75921000D01*
X116781000Y-75414000D02*
X116781000Y-73298000D01*
X118221000Y-80368000D02*
X118221000Y-72540000D01*
X118902000Y-80506000D02*
X118902000Y-72402000D01*
X119022000Y-80519000D02*
X119022000Y-72389000D01*
X116181000Y-79010000D02*
X116181000Y-77494000D01*
X118061000Y-80317000D02*
X118061000Y-72591000D01*
X115541000Y-77907000D02*
X115541000Y-75001000D01*
X117981000Y-80289000D02*
X117981000Y-72619000D01*
X117421000Y-80038000D02*
X117421000Y-77494000D01*
X117741000Y-80194000D02*
X117741000Y-77494000D01*
X115901000Y-78620000D02*
X115901000Y-77494000D01*
X118581000Y-80456000D02*
X118581000Y-72452000D01*
X117341000Y-75414000D02*
X117341000Y-72914000D01*
X115501000Y-77800000D02*
X115501000Y-75108000D01*
X115781000Y-78418000D02*
X115781000Y-74490000D01*
X118822000Y-80496000D02*
X118822000Y-72412000D01*
X118621000Y-80464000D02*
X118621000Y-72444000D01*
X117181000Y-79898000D02*
X117181000Y-77494000D01*
X116901000Y-79704000D02*
X116901000Y-77494000D01*
X115381000Y-77402000D02*
X115381000Y-75506000D01*
X115861000Y-78556000D02*
X115861000Y-77494000D01*
X115421000Y-77552000D02*
X115421000Y-75356000D01*
X115621000Y-78099000D02*
X115621000Y-74809000D01*
X115701000Y-78267000D02*
X115701000Y-74641000D01*
X117661000Y-75414000D02*
X117661000Y-72750000D01*
X116821000Y-79643000D02*
X116821000Y-77494000D01*
X119062000Y-80522000D02*
X119062000Y-72386000D01*
X116741000Y-75414000D02*
X116741000Y-73330000D01*
X117221000Y-75414000D02*
X117221000Y-72985000D01*
X117021000Y-79792000D02*
X117021000Y-77494000D01*
X116741000Y-79578000D02*
X116741000Y-77494000D01*
X118942000Y-80511000D02*
X118942000Y-72397000D01*
X116541000Y-75414000D02*
X116541000Y-73509000D01*
X118101000Y-80331000D02*
X118101000Y-72577000D01*
X117461000Y-75414000D02*
X117461000Y-72848000D01*
X118501000Y-80439000D02*
X118501000Y-72469000D01*
X117181000Y-75414000D02*
X117181000Y-73010000D01*
X116301000Y-75414000D02*
X116301000Y-73757000D01*
X118541000Y-80448000D02*
X118541000Y-72460000D01*
X116421000Y-79280000D02*
X116421000Y-77494000D01*
X116141000Y-78959000D02*
X116141000Y-77494000D01*
X117581000Y-75414000D02*
X117581000Y-72788000D01*
X116541000Y-79399000D02*
X116541000Y-77494000D01*
X117821000Y-75414000D02*
X117821000Y-72680000D01*
X119262000Y-80533000D02*
X119262000Y-72375000D01*
X117341000Y-79994000D02*
X117341000Y-77494000D01*
X116101000Y-75414000D02*
X116101000Y-74000000D01*
X117701000Y-80176000D02*
X117701000Y-77494000D01*
X116261000Y-79105000D02*
X116261000Y-77494000D01*
X116501000Y-75414000D02*
X116501000Y-73547000D01*
X117621000Y-80140000D02*
X117621000Y-77494000D01*
X115981000Y-78741000D02*
X115981000Y-77494000D01*
X117101000Y-75414000D02*
X117101000Y-73062000D01*
X123502000Y-76454000D02*
G75*
G03*
X123502000Y-76454000I-4120000J0D01*
G01*
X141975000Y-62730748D02*
X141975000Y-63253252D01*
X143445000Y-62730748D02*
X143445000Y-63253252D01*
X156672748Y-113819000D02*
X157195252Y-113819000D01*
X156672748Y-115289000D02*
X157195252Y-115289000D01*
X136387000Y-56772436D02*
X136387000Y-57226564D01*
X137857000Y-56772436D02*
X137857000Y-57226564D01*
X162295000Y-104009564D02*
X162295000Y-103555436D01*
X163765000Y-104009564D02*
X163765000Y-103555436D01*
X122872000Y-89494000D02*
X122872000Y-93894000D01*
X124472000Y-89494000D02*
X124372000Y-89494000D01*
X124472000Y-93894000D02*
X124372000Y-93894000D01*
X125972000Y-93894000D02*
X125972000Y-89494000D01*
X137857000Y-62730748D02*
X137857000Y-63253252D01*
X136387000Y-62730748D02*
X136387000Y-63253252D01*
X151573000Y-62730748D02*
X151573000Y-63253252D01*
X150103000Y-62730748D02*
X150103000Y-63253252D01*
X133742000Y-68760748D02*
X133742000Y-69283252D01*
X135212000Y-68760748D02*
X135212000Y-69283252D01*
X147563000Y-62730748D02*
X147563000Y-63253252D01*
X149033000Y-62730748D02*
X149033000Y-63253252D01*
X169099000Y-69569064D02*
X169099000Y-69114936D01*
X167629000Y-69569064D02*
X167629000Y-69114936D01*
X131143000Y-77494000D02*
X131143000Y-80176000D01*
X131783000Y-77494000D02*
X131783000Y-79819000D01*
X133543000Y-75921000D02*
X133543000Y-76987000D01*
X131383000Y-72848000D02*
X131383000Y-75414000D01*
X131903000Y-73174000D02*
X131903000Y-75414000D01*
X133503000Y-75686000D02*
X133503000Y-77222000D01*
X129742000Y-72383000D02*
X129742000Y-80525000D01*
X132823000Y-74109000D02*
X132823000Y-75414000D01*
X131463000Y-77494000D02*
X131463000Y-80016000D01*
X132463000Y-77494000D02*
X132463000Y-79238000D01*
X132903000Y-77494000D02*
X132903000Y-78682000D01*
X132143000Y-73364000D02*
X132143000Y-75414000D01*
X131303000Y-72807000D02*
X131303000Y-75414000D01*
X132503000Y-73713000D02*
X132503000Y-75414000D01*
X132543000Y-77494000D02*
X132543000Y-79151000D01*
X131503000Y-72914000D02*
X131503000Y-75414000D01*
X132263000Y-77494000D02*
X132263000Y-79437000D01*
X131263000Y-77494000D02*
X131263000Y-80120000D01*
X131423000Y-77494000D02*
X131423000Y-80038000D01*
X129622000Y-72377000D02*
X129622000Y-80531000D01*
X131263000Y-72788000D02*
X131263000Y-75414000D01*
X131103000Y-72714000D02*
X131103000Y-75414000D01*
X131463000Y-72892000D02*
X131463000Y-75414000D01*
X132783000Y-77494000D02*
X132783000Y-78854000D01*
X125052302Y-74139000D02*
X125852302Y-74139000D01*
X132143000Y-77494000D02*
X132143000Y-79544000D01*
X130062000Y-72417000D02*
X130062000Y-80491000D01*
X132343000Y-77494000D02*
X132343000Y-79361000D01*
X130102000Y-72424000D02*
X130102000Y-80484000D01*
X130343000Y-72469000D02*
X130343000Y-80439000D01*
X129902000Y-72397000D02*
X129902000Y-80511000D01*
X131663000Y-77494000D02*
X131663000Y-79898000D01*
X132863000Y-74167000D02*
X132863000Y-75414000D01*
X129702000Y-72380000D02*
X129702000Y-80528000D01*
X129862000Y-72393000D02*
X129862000Y-80515000D01*
X132023000Y-77494000D02*
X132023000Y-79643000D01*
X131863000Y-73145000D02*
X131863000Y-75414000D01*
X130583000Y-72529000D02*
X130583000Y-80379000D01*
X132423000Y-77494000D02*
X132423000Y-79280000D01*
X132103000Y-73330000D02*
X132103000Y-75414000D01*
X130863000Y-72619000D02*
X130863000Y-80289000D01*
X133143000Y-74641000D02*
X133143000Y-78267000D01*
X131023000Y-72680000D02*
X131023000Y-75414000D01*
X130543000Y-72518000D02*
X130543000Y-80390000D01*
X129822000Y-72389000D02*
X129822000Y-80519000D01*
X130743000Y-72577000D02*
X130743000Y-80331000D01*
X131663000Y-73010000D02*
X131663000Y-75414000D01*
X131063000Y-77494000D02*
X131063000Y-80211000D01*
X132663000Y-73898000D02*
X132663000Y-75414000D01*
X131743000Y-73062000D02*
X131743000Y-75414000D01*
X132623000Y-73850000D02*
X132623000Y-75414000D01*
X131183000Y-72750000D02*
X131183000Y-75414000D01*
X129662000Y-72378000D02*
X129662000Y-80530000D01*
X131943000Y-77494000D02*
X131943000Y-79704000D01*
X132983000Y-77494000D02*
X132983000Y-78556000D01*
X129782000Y-72386000D02*
X129782000Y-80522000D01*
X131063000Y-72697000D02*
X131063000Y-75414000D01*
X131623000Y-72985000D02*
X131623000Y-75414000D01*
X131183000Y-77494000D02*
X131183000Y-80158000D01*
X132343000Y-73547000D02*
X132343000Y-75414000D01*
X131863000Y-77494000D02*
X131863000Y-79763000D01*
X130663000Y-72552000D02*
X130663000Y-80356000D01*
X133463000Y-75506000D02*
X133463000Y-77402000D01*
X132743000Y-77494000D02*
X132743000Y-78908000D01*
X132943000Y-77494000D02*
X132943000Y-78620000D01*
X132703000Y-73949000D02*
X132703000Y-75414000D01*
X133383000Y-75225000D02*
X133383000Y-77683000D01*
X132863000Y-77494000D02*
X132863000Y-78741000D01*
X131783000Y-73089000D02*
X131783000Y-75414000D01*
X133063000Y-74490000D02*
X133063000Y-78418000D01*
X131623000Y-77494000D02*
X131623000Y-79923000D01*
X131823000Y-73116000D02*
X131823000Y-75414000D01*
X131703000Y-77494000D02*
X131703000Y-79872000D01*
X131103000Y-77494000D02*
X131103000Y-80194000D01*
X125452302Y-73739000D02*
X125452302Y-74539000D01*
X131943000Y-73204000D02*
X131943000Y-75414000D01*
X129542000Y-72374000D02*
X129542000Y-80534000D01*
X132223000Y-73435000D02*
X132223000Y-75414000D01*
X132903000Y-74226000D02*
X132903000Y-75414000D01*
X133423000Y-75356000D02*
X133423000Y-77552000D01*
X129942000Y-72402000D02*
X129942000Y-80506000D01*
X131023000Y-77494000D02*
X131023000Y-80228000D01*
X131143000Y-72732000D02*
X131143000Y-75414000D01*
X131703000Y-73036000D02*
X131703000Y-75414000D01*
X133343000Y-75108000D02*
X133343000Y-77800000D01*
X131543000Y-77494000D02*
X131543000Y-79971000D01*
X132503000Y-77494000D02*
X132503000Y-79195000D01*
X133223000Y-74809000D02*
X133223000Y-78099000D01*
X130703000Y-72565000D02*
X130703000Y-80343000D01*
X132063000Y-73298000D02*
X132063000Y-75414000D01*
X132583000Y-73803000D02*
X132583000Y-75414000D01*
X133263000Y-74902000D02*
X133263000Y-78006000D01*
X129462000Y-72374000D02*
X129462000Y-80534000D01*
X130142000Y-72430000D02*
X130142000Y-80478000D01*
X130903000Y-72633000D02*
X130903000Y-80275000D01*
X131983000Y-73234000D02*
X131983000Y-75414000D01*
X130022000Y-72412000D02*
X130022000Y-80496000D01*
X132783000Y-74054000D02*
X132783000Y-75414000D01*
X130823000Y-72604000D02*
X130823000Y-80304000D01*
X132823000Y-77494000D02*
X132823000Y-78799000D01*
X131503000Y-77494000D02*
X131503000Y-79994000D01*
X130223000Y-72444000D02*
X130223000Y-80464000D01*
X132663000Y-77494000D02*
X132663000Y-79010000D01*
X131743000Y-77494000D02*
X131743000Y-79846000D01*
X132583000Y-77494000D02*
X132583000Y-79105000D01*
X130783000Y-72591000D02*
X130783000Y-80317000D01*
X131423000Y-72870000D02*
X131423000Y-75414000D01*
X131583000Y-72961000D02*
X131583000Y-75414000D01*
X132983000Y-74352000D02*
X132983000Y-75414000D01*
X132623000Y-77494000D02*
X132623000Y-79058000D01*
X130463000Y-72497000D02*
X130463000Y-80411000D01*
X131583000Y-77494000D02*
X131583000Y-79947000D01*
X129982000Y-72406000D02*
X129982000Y-80502000D01*
X132543000Y-73757000D02*
X132543000Y-75414000D01*
X130503000Y-72507000D02*
X130503000Y-80401000D01*
X131223000Y-72768000D02*
X131223000Y-75414000D01*
X131823000Y-77494000D02*
X131823000Y-79792000D01*
X132423000Y-73628000D02*
X132423000Y-75414000D01*
X131303000Y-77494000D02*
X131303000Y-80101000D01*
X132743000Y-74000000D02*
X132743000Y-75414000D01*
X130983000Y-77494000D02*
X130983000Y-80244000D01*
X132183000Y-77494000D02*
X132183000Y-79509000D01*
X130263000Y-72452000D02*
X130263000Y-80456000D01*
X133023000Y-74420000D02*
X133023000Y-78488000D01*
X131903000Y-77494000D02*
X131903000Y-79734000D01*
X132223000Y-77494000D02*
X132223000Y-79473000D01*
X130423000Y-72487000D02*
X130423000Y-80421000D01*
X130943000Y-77494000D02*
X130943000Y-80259000D01*
X132063000Y-77494000D02*
X132063000Y-79610000D01*
X132703000Y-77494000D02*
X132703000Y-78959000D01*
X132183000Y-73399000D02*
X132183000Y-75414000D01*
X132303000Y-77494000D02*
X132303000Y-79399000D01*
X131223000Y-77494000D02*
X131223000Y-80140000D01*
X131383000Y-77494000D02*
X131383000Y-80060000D01*
X132023000Y-73265000D02*
X132023000Y-75414000D01*
X132303000Y-73509000D02*
X132303000Y-75414000D01*
X132463000Y-73670000D02*
X132463000Y-75414000D01*
X130943000Y-72649000D02*
X130943000Y-75414000D01*
X130183000Y-72437000D02*
X130183000Y-80471000D01*
X130983000Y-72664000D02*
X130983000Y-75414000D01*
X133103000Y-74564000D02*
X133103000Y-78344000D01*
X132383000Y-73587000D02*
X132383000Y-75414000D01*
X130623000Y-72540000D02*
X130623000Y-80368000D01*
X129582000Y-72375000D02*
X129582000Y-80533000D01*
X129502000Y-72374000D02*
X129502000Y-80534000D01*
X131983000Y-77494000D02*
X131983000Y-79674000D01*
X130383000Y-72478000D02*
X130383000Y-80430000D01*
X132943000Y-74288000D02*
X132943000Y-75414000D01*
X130303000Y-72460000D02*
X130303000Y-80448000D01*
X132383000Y-77494000D02*
X132383000Y-79321000D01*
X131343000Y-72827000D02*
X131343000Y-75414000D01*
X131543000Y-72937000D02*
X131543000Y-75414000D01*
X133303000Y-75001000D02*
X133303000Y-77907000D01*
X133183000Y-74723000D02*
X133183000Y-78185000D01*
X132103000Y-77494000D02*
X132103000Y-79578000D01*
X132263000Y-73471000D02*
X132263000Y-75414000D01*
X131343000Y-77494000D02*
X131343000Y-80081000D01*
X133582000Y-76454000D02*
G75*
G03*
X133582000Y-76454000I-4120000J0D01*
G01*
X171932000Y-47550000D02*
X171932000Y-54050000D01*
X171932000Y-47550000D02*
X163532000Y-47550000D01*
X171932000Y-54050000D02*
X163532000Y-54050000D01*
X123687000Y-86352748D02*
X123687000Y-86875252D01*
X125157000Y-86352748D02*
X125157000Y-86875252D01*
%LPC*%
D17*
X118975500Y-57124000D03*
D18*
X122800500Y-65764000D03*
D17*
X118975500Y-65764000D03*
D18*
X122800500Y-57124000D03*
D19*
X123175500Y-58344000D03*
X123175500Y-59094000D03*
D20*
X123175500Y-60194000D03*
X123175500Y-60694000D03*
X123175500Y-61694000D03*
X123175500Y-62694000D03*
D19*
X123175500Y-63794000D03*
X123175500Y-64544000D03*
X123175500Y-64544000D03*
X123175500Y-63794000D03*
D20*
X123175500Y-63194000D03*
X123175500Y-62194000D03*
X123175500Y-61194000D03*
X123175500Y-59694000D03*
D19*
X123175500Y-59094000D03*
X123175500Y-58344000D03*
D21*
X122075500Y-64444000D03*
D22*
X122075500Y-58444000D03*
D23*
X118975500Y-62844000D03*
X118975500Y-60044000D03*
D24*
X161592000Y-85684000D03*
X161592000Y-77384000D03*
D25*
X128335500Y-56896000D03*
X130160500Y-56896000D03*
X128524000Y-53340000D03*
X130349000Y-53340000D03*
D26*
X118542000Y-93744000D03*
X118542000Y-89644000D03*
X120142000Y-93744000D03*
X120142000Y-89644000D03*
D27*
X144780000Y-49530000D03*
D28*
X139662000Y-62042000D03*
X139662000Y-63942000D03*
D29*
X155984000Y-99314000D03*
X157884000Y-99314000D03*
D28*
X139557000Y-68072000D03*
X139557000Y-69972000D03*
D30*
X117870000Y-111458000D03*
D31*
X117870000Y-109458000D03*
X117870000Y-107458000D03*
X117870000Y-105458000D03*
D32*
X155937000Y-69487000D03*
X157207000Y-69487000D03*
X158477000Y-69487000D03*
X159747000Y-69487000D03*
X161017000Y-69487000D03*
X162287000Y-69487000D03*
X163557000Y-69487000D03*
D33*
X159747000Y-60337000D03*
D34*
X126454000Y-105852000D03*
X126454000Y-103952000D03*
D35*
X162268000Y-114554000D03*
X160443000Y-114554000D03*
D36*
X148666000Y-107574000D03*
X148666000Y-106304000D03*
X148666000Y-105034000D03*
X148666000Y-103764000D03*
X148666000Y-102494000D03*
X148666000Y-101224000D03*
X148666000Y-99954000D03*
X148666000Y-98684000D03*
X148666000Y-97414000D03*
X148666000Y-96144000D03*
X148666000Y-94874000D03*
X148666000Y-93604000D03*
X148666000Y-92334000D03*
X148666000Y-91064000D03*
D37*
X146901000Y-89814000D03*
X145631000Y-89814000D03*
X144361000Y-89814000D03*
X143091000Y-89814000D03*
X141821000Y-89814000D03*
X140551000Y-89814000D03*
X139281000Y-89814000D03*
X138011000Y-89814000D03*
X136741000Y-89814000D03*
X135471000Y-89814000D03*
X134201000Y-89814000D03*
X132931000Y-89814000D03*
D36*
X131166000Y-91064000D03*
X131166000Y-92334000D03*
X131166000Y-93604000D03*
X131166000Y-94874000D03*
X131166000Y-96144000D03*
X131166000Y-97414000D03*
X131166000Y-98684000D03*
X131166000Y-99954000D03*
X131166000Y-101224000D03*
X131166000Y-102494000D03*
X131166000Y-103764000D03*
X131166000Y-105034000D03*
X131166000Y-106304000D03*
X131166000Y-107574000D03*
D38*
X141416000Y-98454000D03*
X140016000Y-99854000D03*
X142816000Y-98454000D03*
X142816000Y-99854000D03*
X140016000Y-98454000D03*
X140016000Y-101254000D03*
X141416000Y-101254000D03*
X142816000Y-101254000D03*
X141416000Y-99854000D03*
D39*
X175117000Y-83214000D03*
D40*
X175117000Y-87174000D03*
X175117000Y-91134000D03*
X175117000Y-95094000D03*
D30*
X117818000Y-100806000D03*
D31*
X117818000Y-98806000D03*
D41*
X142162000Y-56200000D03*
X142162000Y-58100000D03*
X144782000Y-57150000D03*
D27*
X130810000Y-120650000D03*
D42*
X128232000Y-82399500D03*
X128232000Y-84224500D03*
D27*
X135890000Y-49530000D03*
D43*
X134620000Y-56212500D03*
X134620000Y-58087500D03*
D28*
X118522000Y-85194000D03*
X118522000Y-87094000D03*
D27*
X138430000Y-120650000D03*
D44*
X160901000Y-95484000D03*
X160901000Y-94984000D03*
X160901000Y-94484000D03*
X160901000Y-93984000D03*
X160901000Y-93484000D03*
X160901000Y-92984000D03*
D45*
X160216000Y-92299000D03*
X159716000Y-92299000D03*
X159216000Y-92299000D03*
X158716000Y-92299000D03*
X158216000Y-92299000D03*
X157716000Y-92299000D03*
D44*
X157031000Y-92984000D03*
X157031000Y-93484000D03*
X157031000Y-93984000D03*
X157031000Y-94484000D03*
X157031000Y-94984000D03*
X157031000Y-95484000D03*
D45*
X157716000Y-96169000D03*
X158216000Y-96169000D03*
X158716000Y-96169000D03*
X159216000Y-96169000D03*
X159716000Y-96169000D03*
X160216000Y-96169000D03*
D46*
X158966000Y-94234000D03*
D44*
X160901000Y-110724000D03*
X160901000Y-110224000D03*
X160901000Y-109724000D03*
X160901000Y-109224000D03*
X160901000Y-108724000D03*
X160901000Y-108224000D03*
D45*
X160216000Y-107539000D03*
X159716000Y-107539000D03*
X159216000Y-107539000D03*
X158716000Y-107539000D03*
X158216000Y-107539000D03*
X157716000Y-107539000D03*
D44*
X157031000Y-108224000D03*
X157031000Y-108724000D03*
X157031000Y-109224000D03*
X157031000Y-109724000D03*
X157031000Y-110224000D03*
X157031000Y-110724000D03*
D45*
X157716000Y-111409000D03*
X158216000Y-111409000D03*
X158716000Y-111409000D03*
X159216000Y-111409000D03*
X159716000Y-111409000D03*
X160216000Y-111409000D03*
D46*
X158966000Y-109474000D03*
D28*
X137122000Y-68072000D03*
X137122000Y-69972000D03*
X145504000Y-62042000D03*
X145504000Y-63942000D03*
D35*
X123848500Y-69088000D03*
X122023500Y-69088000D03*
D34*
X150838000Y-70038000D03*
X150838000Y-68138000D03*
X122644000Y-105852000D03*
X122644000Y-103952000D03*
D47*
X142686000Y-82796500D03*
X142186000Y-82796500D03*
X141686000Y-82796500D03*
X141186000Y-82796500D03*
X140686000Y-82796500D03*
X140186000Y-82796500D03*
X139686000Y-82796500D03*
D48*
X139173500Y-81534000D03*
D47*
X139686000Y-80271500D03*
X140186000Y-80271500D03*
X140686000Y-80271500D03*
X141186000Y-80271500D03*
X141686000Y-80271500D03*
X142186000Y-80271500D03*
X142686000Y-80271500D03*
D48*
X143198500Y-81534000D03*
D49*
X163538000Y-90471000D03*
X163538000Y-88646000D03*
D35*
X126096500Y-82550000D03*
X124271500Y-82550000D03*
D28*
X134582000Y-62042000D03*
X134582000Y-63942000D03*
D42*
X163068000Y-99163500D03*
X163068000Y-100988500D03*
D50*
X175514000Y-73704000D03*
D51*
X175514000Y-66504000D03*
D39*
X175117000Y-100994000D03*
D40*
X175117000Y-104954000D03*
X175117000Y-108914000D03*
X175117000Y-112874000D03*
D27*
X146050000Y-120650000D03*
D52*
X168364000Y-66328000D03*
X168364000Y-64228000D03*
D53*
X121882000Y-76454000D03*
D54*
X116882000Y-76454000D03*
D28*
X142710000Y-62042000D03*
X142710000Y-63942000D03*
D29*
X155984000Y-114554000D03*
X157884000Y-114554000D03*
D42*
X137122000Y-56087000D03*
X137122000Y-57912000D03*
D49*
X163030000Y-104695000D03*
X163030000Y-102870000D03*
D26*
X123622000Y-93744000D03*
X123622000Y-89644000D03*
X125222000Y-93744000D03*
X125222000Y-89644000D03*
D28*
X137122000Y-62042000D03*
X137122000Y-63942000D03*
X150838000Y-62042000D03*
X150838000Y-63942000D03*
X134477000Y-68072000D03*
X134477000Y-69972000D03*
X148298000Y-62042000D03*
X148298000Y-63942000D03*
D49*
X168364000Y-70254500D03*
X168364000Y-68429500D03*
D53*
X126962000Y-76454000D03*
D54*
X131962000Y-76454000D03*
D55*
X170532000Y-50800000D03*
X163732000Y-50800000D03*
D28*
X124422000Y-85664000D03*
X124422000Y-87564000D03*
M02*
