G04 #@! TF.GenerationSoftware,KiCad,Pcbnew,(6.0.7)*
G04 #@! TF.CreationDate,2022-11-10T23:39:13-08:00*
G04 #@! TF.ProjectId,Gimbal,47696d62-616c-42e6-9b69-6361645f7063,rev?*
G04 #@! TF.SameCoordinates,Original*
G04 #@! TF.FileFunction,Soldermask,Top*
G04 #@! TF.FilePolarity,Negative*
%FSLAX46Y46*%
G04 Gerber Fmt 4.6, Leading zero omitted, Abs format (unit mm)*
G04 Created by KiCad (PCBNEW (6.0.7)) date 2022-11-10 23:39:13*
%MOMM*%
%LPD*%
G01*
G04 APERTURE LIST*
G04 Aperture macros list*
%AMRoundRect*
0 Rectangle with rounded corners*
0 $1 Rounding radius*
0 $2 $3 $4 $5 $6 $7 $8 $9 X,Y pos of 4 corners*
0 Add a 4 corners polygon primitive as box body*
4,1,4,$2,$3,$4,$5,$6,$7,$8,$9,$2,$3,0*
0 Add four circle primitives for the rounded corners*
1,1,$1+$1,$2,$3*
1,1,$1+$1,$4,$5*
1,1,$1+$1,$6,$7*
1,1,$1+$1,$8,$9*
0 Add four rect primitives between the rounded corners*
20,1,$1+$1,$2,$3,$4,$5,0*
20,1,$1+$1,$4,$5,$6,$7,0*
20,1,$1+$1,$6,$7,$8,$9,0*
20,1,$1+$1,$8,$9,$2,$3,0*%
G04 Aperture macros list end*
%ADD10O,2.600000X1.300000*%
%ADD11O,2.300000X1.300000*%
%ADD12R,1.000000X0.520000*%
%ADD13R,1.000000X0.270000*%
%ADD14O,0.600000X0.850000*%
%ADD15C,0.600000*%
%ADD16R,2.000000X1.000000*%
%ADD17R,3.600000X2.700000*%
%ADD18RoundRect,0.250000X-0.262500X-0.450000X0.262500X-0.450000X0.262500X0.450000X-0.262500X0.450000X0*%
%ADD19R,1.000000X0.900000*%
%ADD20C,3.600000*%
%ADD21RoundRect,0.250000X-0.475000X0.250000X-0.475000X-0.250000X0.475000X-0.250000X0.475000X0.250000X0*%
%ADD22RoundRect,0.250000X-0.250000X-0.475000X0.250000X-0.475000X0.250000X0.475000X-0.250000X0.475000X0*%
%ADD23R,1.350000X1.350000*%
%ADD24O,1.350000X1.350000*%
%ADD25R,0.800000X4.600000*%
%ADD26R,10.800000X9.400000*%
%ADD27RoundRect,0.250000X0.475000X-0.250000X0.475000X0.250000X-0.475000X0.250000X-0.475000X-0.250000X0*%
%ADD28RoundRect,0.250000X0.262500X0.450000X-0.262500X0.450000X-0.262500X-0.450000X0.262500X-0.450000X0*%
%ADD29R,1.500000X0.900000*%
%ADD30R,0.900000X1.500000*%
%ADD31R,0.900000X0.900000*%
%ADD32RoundRect,0.250000X-1.800000X1.330000X-1.800000X-1.330000X1.800000X-1.330000X1.800000X1.330000X0*%
%ADD33O,4.100000X3.160000*%
%ADD34R,1.220000X0.650000*%
%ADD35RoundRect,0.250000X-0.450000X0.262500X-0.450000X-0.262500X0.450000X-0.262500X0.450000X0.262500X0*%
%ADD36RoundRect,0.243750X-0.456250X0.243750X-0.456250X-0.243750X0.456250X-0.243750X0.456250X0.243750X0*%
%ADD37RoundRect,0.008100X0.421900X0.126900X-0.421900X0.126900X-0.421900X-0.126900X0.421900X-0.126900X0*%
%ADD38RoundRect,0.008100X-0.126900X0.421900X-0.126900X-0.421900X0.126900X-0.421900X0.126900X0.421900X0*%
%ADD39R,2.450000X2.450000*%
%ADD40R,0.250000X0.675000*%
%ADD41R,0.675000X0.250000*%
%ADD42RoundRect,0.250000X0.450000X-0.262500X0.450000X0.262500X-0.450000X0.262500X-0.450000X-0.262500X0*%
%ADD43C,6.000000*%
%ADD44R,6.000000X6.000000*%
%ADD45R,0.450000X0.600000*%
%ADD46R,1.600000X1.600000*%
%ADD47C,1.600000*%
%ADD48R,2.500000X3.300000*%
G04 APERTURE END LIST*
D10*
X118975500Y-57124000D03*
D11*
X122800500Y-65764000D03*
D10*
X118975500Y-65764000D03*
D11*
X122800500Y-57124000D03*
D12*
X123175500Y-58344000D03*
X123175500Y-59094000D03*
D13*
X123175500Y-60194000D03*
X123175500Y-60694000D03*
X123175500Y-61694000D03*
X123175500Y-62694000D03*
D12*
X123175500Y-63794000D03*
X123175500Y-64544000D03*
X123175500Y-64544000D03*
X123175500Y-63794000D03*
D13*
X123175500Y-63194000D03*
X123175500Y-62194000D03*
X123175500Y-61194000D03*
X123175500Y-59694000D03*
D12*
X123175500Y-59094000D03*
X123175500Y-58344000D03*
D14*
X122075500Y-64444000D03*
D15*
X122075500Y-58444000D03*
D16*
X118975500Y-62844000D03*
X118975500Y-60044000D03*
D17*
X161592000Y-85684000D03*
X161592000Y-77384000D03*
D18*
X128335500Y-56896000D03*
X130160500Y-56896000D03*
X128524000Y-53340000D03*
X130349000Y-53340000D03*
D19*
X118542000Y-93744000D03*
X118542000Y-89644000D03*
X120142000Y-93744000D03*
X120142000Y-89644000D03*
D20*
X144780000Y-49530000D03*
D21*
X139662000Y-62042000D03*
X139662000Y-63942000D03*
D22*
X155984000Y-99314000D03*
X157884000Y-99314000D03*
D21*
X139557000Y-68072000D03*
X139557000Y-69972000D03*
D23*
X117870000Y-111458000D03*
D24*
X117870000Y-109458000D03*
X117870000Y-107458000D03*
X117870000Y-105458000D03*
D25*
X155937000Y-69487000D03*
X157207000Y-69487000D03*
X158477000Y-69487000D03*
X159747000Y-69487000D03*
X161017000Y-69487000D03*
X162287000Y-69487000D03*
X163557000Y-69487000D03*
D26*
X159747000Y-60337000D03*
D27*
X126454000Y-105852000D03*
X126454000Y-103952000D03*
D28*
X162268000Y-114554000D03*
X160443000Y-114554000D03*
D29*
X148666000Y-107574000D03*
X148666000Y-106304000D03*
X148666000Y-105034000D03*
X148666000Y-103764000D03*
X148666000Y-102494000D03*
X148666000Y-101224000D03*
X148666000Y-99954000D03*
X148666000Y-98684000D03*
X148666000Y-97414000D03*
X148666000Y-96144000D03*
X148666000Y-94874000D03*
X148666000Y-93604000D03*
X148666000Y-92334000D03*
X148666000Y-91064000D03*
D30*
X146901000Y-89814000D03*
X145631000Y-89814000D03*
X144361000Y-89814000D03*
X143091000Y-89814000D03*
X141821000Y-89814000D03*
X140551000Y-89814000D03*
X139281000Y-89814000D03*
X138011000Y-89814000D03*
X136741000Y-89814000D03*
X135471000Y-89814000D03*
X134201000Y-89814000D03*
X132931000Y-89814000D03*
D29*
X131166000Y-91064000D03*
X131166000Y-92334000D03*
X131166000Y-93604000D03*
X131166000Y-94874000D03*
X131166000Y-96144000D03*
X131166000Y-97414000D03*
X131166000Y-98684000D03*
X131166000Y-99954000D03*
X131166000Y-101224000D03*
X131166000Y-102494000D03*
X131166000Y-103764000D03*
X131166000Y-105034000D03*
X131166000Y-106304000D03*
X131166000Y-107574000D03*
D31*
X141416000Y-98454000D03*
X140016000Y-99854000D03*
X142816000Y-98454000D03*
X142816000Y-99854000D03*
X140016000Y-98454000D03*
X140016000Y-101254000D03*
X141416000Y-101254000D03*
X142816000Y-101254000D03*
X141416000Y-99854000D03*
D32*
X175117000Y-83214000D03*
D33*
X175117000Y-87174000D03*
X175117000Y-91134000D03*
X175117000Y-95094000D03*
D23*
X117818000Y-100806000D03*
D24*
X117818000Y-98806000D03*
D34*
X142162000Y-56200000D03*
X142162000Y-58100000D03*
X144782000Y-57150000D03*
D20*
X130810000Y-120650000D03*
D35*
X128232000Y-82399500D03*
X128232000Y-84224500D03*
D20*
X135890000Y-49530000D03*
D36*
X134620000Y-56212500D03*
X134620000Y-58087500D03*
D21*
X118522000Y-85194000D03*
X118522000Y-87094000D03*
D20*
X138430000Y-120650000D03*
D37*
X160901000Y-95484000D03*
X160901000Y-94984000D03*
X160901000Y-94484000D03*
X160901000Y-93984000D03*
X160901000Y-93484000D03*
X160901000Y-92984000D03*
D38*
X160216000Y-92299000D03*
X159716000Y-92299000D03*
X159216000Y-92299000D03*
X158716000Y-92299000D03*
X158216000Y-92299000D03*
X157716000Y-92299000D03*
D37*
X157031000Y-92984000D03*
X157031000Y-93484000D03*
X157031000Y-93984000D03*
X157031000Y-94484000D03*
X157031000Y-94984000D03*
X157031000Y-95484000D03*
D38*
X157716000Y-96169000D03*
X158216000Y-96169000D03*
X158716000Y-96169000D03*
X159216000Y-96169000D03*
X159716000Y-96169000D03*
X160216000Y-96169000D03*
D39*
X158966000Y-94234000D03*
D37*
X160901000Y-110724000D03*
X160901000Y-110224000D03*
X160901000Y-109724000D03*
X160901000Y-109224000D03*
X160901000Y-108724000D03*
X160901000Y-108224000D03*
D38*
X160216000Y-107539000D03*
X159716000Y-107539000D03*
X159216000Y-107539000D03*
X158716000Y-107539000D03*
X158216000Y-107539000D03*
X157716000Y-107539000D03*
D37*
X157031000Y-108224000D03*
X157031000Y-108724000D03*
X157031000Y-109224000D03*
X157031000Y-109724000D03*
X157031000Y-110224000D03*
X157031000Y-110724000D03*
D38*
X157716000Y-111409000D03*
X158216000Y-111409000D03*
X158716000Y-111409000D03*
X159216000Y-111409000D03*
X159716000Y-111409000D03*
X160216000Y-111409000D03*
D39*
X158966000Y-109474000D03*
D21*
X137122000Y-68072000D03*
X137122000Y-69972000D03*
X145504000Y-62042000D03*
X145504000Y-63942000D03*
D28*
X123848500Y-69088000D03*
X122023500Y-69088000D03*
D27*
X150838000Y-70038000D03*
X150838000Y-68138000D03*
X122644000Y-105852000D03*
X122644000Y-103952000D03*
D40*
X142686000Y-82796500D03*
X142186000Y-82796500D03*
X141686000Y-82796500D03*
X141186000Y-82796500D03*
X140686000Y-82796500D03*
X140186000Y-82796500D03*
X139686000Y-82796500D03*
D41*
X139173500Y-81534000D03*
D40*
X139686000Y-80271500D03*
X140186000Y-80271500D03*
X140686000Y-80271500D03*
X141186000Y-80271500D03*
X141686000Y-80271500D03*
X142186000Y-80271500D03*
X142686000Y-80271500D03*
D41*
X143198500Y-81534000D03*
D42*
X163538000Y-90471000D03*
X163538000Y-88646000D03*
D28*
X126096500Y-82550000D03*
X124271500Y-82550000D03*
D21*
X134582000Y-62042000D03*
X134582000Y-63942000D03*
D35*
X163068000Y-99163500D03*
X163068000Y-100988500D03*
D43*
X175514000Y-73704000D03*
D44*
X175514000Y-66504000D03*
D32*
X175117000Y-100994000D03*
D33*
X175117000Y-104954000D03*
X175117000Y-108914000D03*
X175117000Y-112874000D03*
D20*
X146050000Y-120650000D03*
D45*
X168364000Y-66328000D03*
X168364000Y-64228000D03*
D46*
X121882000Y-76454000D03*
D47*
X116882000Y-76454000D03*
D21*
X142710000Y-62042000D03*
X142710000Y-63942000D03*
D22*
X155984000Y-114554000D03*
X157884000Y-114554000D03*
D35*
X137122000Y-56087000D03*
X137122000Y-57912000D03*
D42*
X163030000Y-104695000D03*
X163030000Y-102870000D03*
D19*
X123622000Y-93744000D03*
X123622000Y-89644000D03*
X125222000Y-93744000D03*
X125222000Y-89644000D03*
D21*
X137122000Y-62042000D03*
X137122000Y-63942000D03*
X150838000Y-62042000D03*
X150838000Y-63942000D03*
X134477000Y-68072000D03*
X134477000Y-69972000D03*
X148298000Y-62042000D03*
X148298000Y-63942000D03*
D42*
X168364000Y-70254500D03*
X168364000Y-68429500D03*
D46*
X126962000Y-76454000D03*
D47*
X131962000Y-76454000D03*
D48*
X170532000Y-50800000D03*
X163732000Y-50800000D03*
D21*
X124422000Y-85664000D03*
X124422000Y-87564000D03*
M02*
