M48
; DRILL file {KiCad (6.0.7)} date Thu Nov 10 23:39:33 2022
; FORMAT={-:-/ absolute / metric / decimal}
; #@! TF.CreationDate,2022-11-10T23:39:33-08:00
; #@! TF.GenerationSoftware,Kicad,Pcbnew,(6.0.7)
; #@! TF.FileFunction,Plated,1,2,PTH
FMAT,2
METRIC
; #@! TA.AperFunction,Plated,PTH,ViaDrill
T1C0.305
; #@! TA.AperFunction,Plated,PTH,ComponentDrill
T2C0.600
; #@! TA.AperFunction,Plated,PTH,ComponentDrill
T3C0.800
; #@! TA.AperFunction,Plated,PTH,ComponentDrill
T4C1.700
; #@! TA.AperFunction,Plated,PTH,ComponentDrill
T5C2.000
; #@! TA.AperFunction,Plated,PTH,ComponentDrill
T6C4.550
%
G90
G05
T1
X119.85Y-96.266
X119.85Y-107.442
X119.85Y-110.236
X120.612Y-82.55
X120.612Y-87.122
X123.66Y-95.504
X124.422Y-104.14
X124.422Y-111.506
X124.968Y-58.166
X125.184Y-113.03
X125.222Y-64.008
X125.222Y-67.818
X125.98Y-53.598
X125.984Y-59.69
X126.2Y-63.246
X126.2Y-66.294
X126.2Y-84.074
X126.962Y-61.976
X126.962Y-74.168
X127.216Y-96.266
X127.978Y-61.252
X127.978Y-62.738
X128.232Y-68.072
X128.232Y-81.28
X128.232Y-85.852
X128.232Y-104.902
X128.486Y-105.918
X128.486Y-111.506
X129.248Y-86.614
X129.248Y-91.694
X129.248Y-98.806
X129.248Y-100.838
X129.248Y-106.426
X130.81Y-116.84
X131.534Y-56.896
X131.534Y-81.026
X131.572Y-88.138
X132.334Y-82.042
X132.804Y-54.61
X132.804Y-66.927
X133.566Y-85.598
X133.82Y-81.026
X134.328Y-75.438
X134.582Y-85.598
X134.582Y-88.138
X134.836Y-77.47
X135.598Y-76.2
X135.725Y-82.804
X136.36Y-78.74
X136.36Y-86.868
X137.122Y-81.534
X137.122Y-87.884
X138.138Y-79.502
X138.138Y-87.63
X138.43Y-116.84
X139.662Y-57.15
X139.662Y-60.96
X140.932Y-77.978
X140.97Y-91.44
X141.186Y-68.072
X141.186Y-84.836
X141.694Y-83.566
X141.948Y-75.438
X141.948Y-78.74
X142.456Y-88.138
X142.71Y-83.947
X143.472Y-77.47
X143.472Y-78.994
X143.51Y-116.84
X144.996Y-81.534
X144.996Y-85.598
X146.52Y-78.232
X146.52Y-85.344
X147.028Y-65.278
X148.044Y-86.106
X148.044Y-88.392
X148.806Y-66.294
X150.076Y-84.582
X150.838Y-89.916
X150.838Y-103.632
X151.092Y-106.426
X151.092Y-110.236
X151.346Y-92.202
X152.108Y-105.156
X152.108Y-113.03
X152.362Y-90.424
X152.362Y-98.552
X152.87Y-84.074
X153.124Y-57.15
X153.124Y-77.216
X153.124Y-92.71
X153.378Y-93.726
X153.378Y-99.314
X153.632Y-86.868
X153.632Y-88.392
X154.14Y-109.22
X154.432Y-93.98
X154.825Y-107.528
X154.902Y-71.628
X154.902Y-110.236
X154.902Y-112.522
X155.242Y-77.384
X155.41Y-74.422
X155.664Y-101.346
X155.664Y-107.95
X155.664Y-110.87
X155.918Y-92.964
X155.918Y-94.996
X155.918Y-98.044
X157.188Y-100.838
X157.442Y-105.918
X158.204Y-105.41
X158.712Y-87.63
X159.22Y-90.424
X159.728Y-102.108
X159.728Y-105.918
X160.49Y-88.392
X160.49Y-90.424
X160.998Y-91.44
X160.998Y-92.71
X161.506Y-74.422
X161.506Y-84.074
X162.014Y-93.218
X162.014Y-98.044
X162.268Y-72.39
X162.268Y-75.692
X163.284Y-105.918
X163.284Y-107.95
X163.792Y-110.236
X163.792Y-114.554
X164.554Y-90.424
X165.062Y-101.092
X165.062Y-110.998
X165.354Y-94.946
X165.824Y-104.902
X165.862Y-109.982
X166.332Y-58.674
X166.332Y-74.422
X168.148Y-87.122
X168.618Y-94.234
X169.38Y-83.312
X169.38Y-95.504
T3
X116.882Y-76.454
X117.818Y-98.806
X117.818Y-100.806
X117.87Y-105.458
X117.87Y-107.458
X117.87Y-109.458
X117.87Y-111.458
X121.882Y-76.454
X126.962Y-76.454
X131.962Y-76.454
T4
X175.117Y-83.214
X175.117Y-87.174
X175.117Y-91.134
X175.117Y-95.094
X175.117Y-100.994
X175.117Y-104.954
X175.117Y-108.914
X175.117Y-112.874
T5
X130.81Y-120.65
X135.89Y-49.53
X138.43Y-120.65
X144.78Y-49.53
X146.05Y-120.65
T6
X175.514Y-66.504
X175.514Y-73.704
T2
X119.625Y-57.124G85X118.325Y-57.124
G05
X119.625Y-65.764G85X118.325Y-65.764
G05
X123.3Y-57.124G85X122.3Y-57.124
G05
X123.3Y-65.764G85X122.3Y-65.764
G05
T0
M30
