%TF.GenerationSoftware,KiCad,Pcbnew,(6.0.7)*%
%TF.CreationDate,2022-11-10T23:39:28-08:00*%
%TF.ProjectId,Gimbal,47696d62-616c-42e6-9b69-6361645f7063,rev?*%
%TF.SameCoordinates,Original*%
%TF.FileFunction,Drillmap*%
%TF.FilePolarity,Positive*%
%FSLAX45Y45*%
G04 Gerber Fmt 4.5, Leading zero omitted, Abs format (unit mm)*
G04 Created by KiCad (PCBNEW (6.0.7)) date 2022-11-10 23:39:28*
%MOMM*%
%LPD*%
G01*
G04 APERTURE LIST*
%ADD10C,0.100000*%
%ADD11C,0.200000*%
%ADD12C,0.060000*%
G04 APERTURE END LIST*
D10*
X11684000Y-12446000D02*
X18034000Y-12446000D01*
X11430000Y-12192000D02*
X11430000Y-4826000D01*
X11684000Y-4572000D02*
G75*
G03*
X11430000Y-4826000I0J-254000D01*
G01*
X11430000Y-12192000D02*
G75*
G03*
X11684000Y-12446000I254000J0D01*
G01*
X18288000Y-12192000D02*
X18288000Y-4826000D01*
X18288000Y-4826000D02*
G75*
G03*
X18034000Y-4572000I-254000J0D01*
G01*
X18034000Y-4572000D02*
X11684000Y-4572000D01*
X18034000Y-12446000D02*
G75*
G03*
X18288000Y-12192000I0J254000D01*
G01*
D11*
D12*
X12177550Y-5814400D02*
X12237550Y-5874400D01*
X12237550Y-5814400D02*
X12177550Y-5874400D01*
X12177550Y-6414400D02*
X12237550Y-6474400D01*
X12237550Y-6414400D02*
X12177550Y-6474400D01*
D11*
X12177550Y-6431900D02*
X12177550Y-6456900D01*
X12237550Y-6431900D02*
X12237550Y-6456900D01*
X12177550Y-6456900D02*
G75*
G03*
X12237550Y-6456900I30000J0D01*
G01*
X12237550Y-6431900D02*
G75*
G03*
X12177550Y-6431900I-30000J0D01*
G01*
X11682619Y-12761476D02*
X11682619Y-12561476D01*
X11730238Y-12561476D01*
X11758809Y-12571000D01*
X11777857Y-12590048D01*
X11787381Y-12609095D01*
X11796905Y-12647190D01*
X11796905Y-12675762D01*
X11787381Y-12713857D01*
X11777857Y-12732905D01*
X11758809Y-12751952D01*
X11730238Y-12761476D01*
X11682619Y-12761476D01*
X11882619Y-12761476D02*
X11882619Y-12628143D01*
X11882619Y-12666238D02*
X11892143Y-12647190D01*
X11901667Y-12637667D01*
X11920714Y-12628143D01*
X11939762Y-12628143D01*
X12006428Y-12761476D02*
X12006428Y-12628143D01*
X12006428Y-12561476D02*
X11996905Y-12571000D01*
X12006428Y-12580524D01*
X12015952Y-12571000D01*
X12006428Y-12561476D01*
X12006428Y-12580524D01*
X12130238Y-12761476D02*
X12111190Y-12751952D01*
X12101667Y-12732905D01*
X12101667Y-12561476D01*
X12235000Y-12761476D02*
X12215952Y-12751952D01*
X12206428Y-12732905D01*
X12206428Y-12561476D01*
X12463571Y-12761476D02*
X12463571Y-12561476D01*
X12530238Y-12704333D01*
X12596905Y-12561476D01*
X12596905Y-12761476D01*
X12777857Y-12761476D02*
X12777857Y-12656714D01*
X12768333Y-12637667D01*
X12749286Y-12628143D01*
X12711190Y-12628143D01*
X12692143Y-12637667D01*
X12777857Y-12751952D02*
X12758809Y-12761476D01*
X12711190Y-12761476D01*
X12692143Y-12751952D01*
X12682619Y-12732905D01*
X12682619Y-12713857D01*
X12692143Y-12694809D01*
X12711190Y-12685286D01*
X12758809Y-12685286D01*
X12777857Y-12675762D01*
X12873095Y-12628143D02*
X12873095Y-12828143D01*
X12873095Y-12637667D02*
X12892143Y-12628143D01*
X12930238Y-12628143D01*
X12949286Y-12637667D01*
X12958809Y-12647190D01*
X12968333Y-12666238D01*
X12968333Y-12723381D01*
X12958809Y-12742428D01*
X12949286Y-12751952D01*
X12930238Y-12761476D01*
X12892143Y-12761476D01*
X12873095Y-12751952D01*
X13054048Y-12742428D02*
X13063571Y-12751952D01*
X13054048Y-12761476D01*
X13044524Y-12751952D01*
X13054048Y-12742428D01*
X13054048Y-12761476D01*
X13054048Y-12637667D02*
X13063571Y-12647190D01*
X13054048Y-12656714D01*
X13044524Y-12647190D01*
X13054048Y-12637667D01*
X13054048Y-12656714D01*
D12*
X11365000Y-13061000D02*
X11425000Y-13121000D01*
X11425000Y-13061000D02*
X11365000Y-13121000D01*
D11*
X11720714Y-12981476D02*
X11739762Y-12981476D01*
X11758809Y-12991000D01*
X11768333Y-13000524D01*
X11777857Y-13019571D01*
X11787381Y-13057667D01*
X11787381Y-13105286D01*
X11777857Y-13143381D01*
X11768333Y-13162428D01*
X11758809Y-13171952D01*
X11739762Y-13181476D01*
X11720714Y-13181476D01*
X11701667Y-13171952D01*
X11692143Y-13162428D01*
X11682619Y-13143381D01*
X11673095Y-13105286D01*
X11673095Y-13057667D01*
X11682619Y-13019571D01*
X11692143Y-13000524D01*
X11701667Y-12991000D01*
X11720714Y-12981476D01*
X11873095Y-13162428D02*
X11882619Y-13171952D01*
X11873095Y-13181476D01*
X11863571Y-13171952D01*
X11873095Y-13162428D01*
X11873095Y-13181476D01*
X12054048Y-12981476D02*
X12015952Y-12981476D01*
X11996905Y-12991000D01*
X11987381Y-13000524D01*
X11968333Y-13029095D01*
X11958809Y-13067190D01*
X11958809Y-13143381D01*
X11968333Y-13162428D01*
X11977857Y-13171952D01*
X11996905Y-13181476D01*
X12035000Y-13181476D01*
X12054048Y-13171952D01*
X12063571Y-13162428D01*
X12073095Y-13143381D01*
X12073095Y-13095762D01*
X12063571Y-13076714D01*
X12054048Y-13067190D01*
X12035000Y-13057667D01*
X11996905Y-13057667D01*
X11977857Y-13067190D01*
X11968333Y-13076714D01*
X11958809Y-13095762D01*
X12196905Y-12981476D02*
X12215952Y-12981476D01*
X12235000Y-12991000D01*
X12244524Y-13000524D01*
X12254048Y-13019571D01*
X12263571Y-13057667D01*
X12263571Y-13105286D01*
X12254048Y-13143381D01*
X12244524Y-13162428D01*
X12235000Y-13171952D01*
X12215952Y-13181476D01*
X12196905Y-13181476D01*
X12177857Y-13171952D01*
X12168333Y-13162428D01*
X12158809Y-13143381D01*
X12149286Y-13105286D01*
X12149286Y-13057667D01*
X12158809Y-13019571D01*
X12168333Y-13000524D01*
X12177857Y-12991000D01*
X12196905Y-12981476D01*
X12387381Y-12981476D02*
X12406428Y-12981476D01*
X12425476Y-12991000D01*
X12435000Y-13000524D01*
X12444524Y-13019571D01*
X12454048Y-13057667D01*
X12454048Y-13105286D01*
X12444524Y-13143381D01*
X12435000Y-13162428D01*
X12425476Y-13171952D01*
X12406428Y-13181476D01*
X12387381Y-13181476D01*
X12368333Y-13171952D01*
X12358809Y-13162428D01*
X12349286Y-13143381D01*
X12339762Y-13105286D01*
X12339762Y-13057667D01*
X12349286Y-13019571D01*
X12358809Y-13000524D01*
X12368333Y-12991000D01*
X12387381Y-12981476D01*
X12539762Y-13181476D02*
X12539762Y-13048143D01*
X12539762Y-13067190D02*
X12549286Y-13057667D01*
X12568333Y-13048143D01*
X12596905Y-13048143D01*
X12615952Y-13057667D01*
X12625476Y-13076714D01*
X12625476Y-13181476D01*
X12625476Y-13076714D02*
X12635000Y-13057667D01*
X12654048Y-13048143D01*
X12682619Y-13048143D01*
X12701667Y-13057667D01*
X12711190Y-13076714D01*
X12711190Y-13181476D01*
X12806428Y-13181476D02*
X12806428Y-13048143D01*
X12806428Y-13067190D02*
X12815952Y-13057667D01*
X12835000Y-13048143D01*
X12863571Y-13048143D01*
X12882619Y-13057667D01*
X12892143Y-13076714D01*
X12892143Y-13181476D01*
X12892143Y-13076714D02*
X12901667Y-13057667D01*
X12920714Y-13048143D01*
X12949286Y-13048143D01*
X12968333Y-13057667D01*
X12977857Y-13076714D01*
X12977857Y-13181476D01*
X13368333Y-12971952D02*
X13196905Y-13229095D01*
X13625476Y-12981476D02*
X13644524Y-12981476D01*
X13663571Y-12991000D01*
X13673095Y-13000524D01*
X13682619Y-13019571D01*
X13692143Y-13057667D01*
X13692143Y-13105286D01*
X13682619Y-13143381D01*
X13673095Y-13162428D01*
X13663571Y-13171952D01*
X13644524Y-13181476D01*
X13625476Y-13181476D01*
X13606428Y-13171952D01*
X13596905Y-13162428D01*
X13587381Y-13143381D01*
X13577857Y-13105286D01*
X13577857Y-13057667D01*
X13587381Y-13019571D01*
X13596905Y-13000524D01*
X13606428Y-12991000D01*
X13625476Y-12981476D01*
X13777857Y-13162428D02*
X13787381Y-13171952D01*
X13777857Y-13181476D01*
X13768333Y-13171952D01*
X13777857Y-13162428D01*
X13777857Y-13181476D01*
X13911190Y-12981476D02*
X13930238Y-12981476D01*
X13949286Y-12991000D01*
X13958809Y-13000524D01*
X13968333Y-13019571D01*
X13977857Y-13057667D01*
X13977857Y-13105286D01*
X13968333Y-13143381D01*
X13958809Y-13162428D01*
X13949286Y-13171952D01*
X13930238Y-13181476D01*
X13911190Y-13181476D01*
X13892143Y-13171952D01*
X13882619Y-13162428D01*
X13873095Y-13143381D01*
X13863571Y-13105286D01*
X13863571Y-13057667D01*
X13873095Y-13019571D01*
X13882619Y-13000524D01*
X13892143Y-12991000D01*
X13911190Y-12981476D01*
X14054048Y-13000524D02*
X14063571Y-12991000D01*
X14082619Y-12981476D01*
X14130238Y-12981476D01*
X14149286Y-12991000D01*
X14158809Y-13000524D01*
X14168333Y-13019571D01*
X14168333Y-13038619D01*
X14158809Y-13067190D01*
X14044524Y-13181476D01*
X14168333Y-13181476D01*
X14235000Y-12981476D02*
X14358809Y-12981476D01*
X14292143Y-13057667D01*
X14320714Y-13057667D01*
X14339762Y-13067190D01*
X14349286Y-13076714D01*
X14358809Y-13095762D01*
X14358809Y-13143381D01*
X14349286Y-13162428D01*
X14339762Y-13171952D01*
X14320714Y-13181476D01*
X14263571Y-13181476D01*
X14244524Y-13171952D01*
X14235000Y-13162428D01*
X14530238Y-12981476D02*
X14492143Y-12981476D01*
X14473095Y-12991000D01*
X14463571Y-13000524D01*
X14444524Y-13029095D01*
X14435000Y-13067190D01*
X14435000Y-13143381D01*
X14444524Y-13162428D01*
X14454048Y-13171952D01*
X14473095Y-13181476D01*
X14511190Y-13181476D01*
X14530238Y-13171952D01*
X14539762Y-13162428D01*
X14549286Y-13143381D01*
X14549286Y-13095762D01*
X14539762Y-13076714D01*
X14530238Y-13067190D01*
X14511190Y-13057667D01*
X14473095Y-13057667D01*
X14454048Y-13067190D01*
X14444524Y-13076714D01*
X14435000Y-13095762D01*
X14625476Y-12981476D02*
X14625476Y-13019571D01*
X14701667Y-12981476D02*
X14701667Y-13019571D01*
X14996905Y-13257667D02*
X14987381Y-13248143D01*
X14968333Y-13219571D01*
X14958809Y-13200524D01*
X14949286Y-13171952D01*
X14939762Y-13124333D01*
X14939762Y-13086238D01*
X14949286Y-13038619D01*
X14958809Y-13010048D01*
X14968333Y-12991000D01*
X14987381Y-12962428D01*
X14996905Y-12952905D01*
X15177857Y-13181476D02*
X15063571Y-13181476D01*
X15120714Y-13181476D02*
X15120714Y-12981476D01*
X15101667Y-13010048D01*
X15082619Y-13029095D01*
X15063571Y-13038619D01*
X15415952Y-13181476D02*
X15415952Y-12981476D01*
X15501667Y-13181476D02*
X15501667Y-13076714D01*
X15492143Y-13057667D01*
X15473095Y-13048143D01*
X15444524Y-13048143D01*
X15425476Y-13057667D01*
X15415952Y-13067190D01*
X15625476Y-13181476D02*
X15606428Y-13171952D01*
X15596905Y-13162428D01*
X15587381Y-13143381D01*
X15587381Y-13086238D01*
X15596905Y-13067190D01*
X15606428Y-13057667D01*
X15625476Y-13048143D01*
X15654048Y-13048143D01*
X15673095Y-13057667D01*
X15682619Y-13067190D01*
X15692143Y-13086238D01*
X15692143Y-13143381D01*
X15682619Y-13162428D01*
X15673095Y-13171952D01*
X15654048Y-13181476D01*
X15625476Y-13181476D01*
X15806428Y-13181476D02*
X15787381Y-13171952D01*
X15777857Y-13152905D01*
X15777857Y-12981476D01*
X15958809Y-13171952D02*
X15939762Y-13181476D01*
X15901667Y-13181476D01*
X15882619Y-13171952D01*
X15873095Y-13152905D01*
X15873095Y-13076714D01*
X15882619Y-13057667D01*
X15901667Y-13048143D01*
X15939762Y-13048143D01*
X15958809Y-13057667D01*
X15968333Y-13076714D01*
X15968333Y-13095762D01*
X15873095Y-13114809D01*
X16044524Y-13171952D02*
X16063571Y-13181476D01*
X16101667Y-13181476D01*
X16120714Y-13171952D01*
X16130238Y-13152905D01*
X16130238Y-13143381D01*
X16120714Y-13124333D01*
X16101667Y-13114809D01*
X16073095Y-13114809D01*
X16054048Y-13105286D01*
X16044524Y-13086238D01*
X16044524Y-13076714D01*
X16054048Y-13057667D01*
X16073095Y-13048143D01*
X16101667Y-13048143D01*
X16120714Y-13057667D01*
X16368333Y-13105286D02*
X16520714Y-13105286D01*
X16444524Y-13181476D02*
X16444524Y-13029095D01*
X16873095Y-13181476D02*
X16758809Y-13181476D01*
X16815952Y-13181476D02*
X16815952Y-12981476D01*
X16796905Y-13010048D01*
X16777857Y-13029095D01*
X16758809Y-13038619D01*
X17101667Y-13171952D02*
X17120714Y-13181476D01*
X17158810Y-13181476D01*
X17177857Y-13171952D01*
X17187381Y-13152905D01*
X17187381Y-13143381D01*
X17177857Y-13124333D01*
X17158810Y-13114809D01*
X17130238Y-13114809D01*
X17111190Y-13105286D01*
X17101667Y-13086238D01*
X17101667Y-13076714D01*
X17111190Y-13057667D01*
X17130238Y-13048143D01*
X17158810Y-13048143D01*
X17177857Y-13057667D01*
X17301667Y-13181476D02*
X17282619Y-13171952D01*
X17273095Y-13152905D01*
X17273095Y-12981476D01*
X17406429Y-13181476D02*
X17387381Y-13171952D01*
X17377857Y-13162428D01*
X17368333Y-13143381D01*
X17368333Y-13086238D01*
X17377857Y-13067190D01*
X17387381Y-13057667D01*
X17406429Y-13048143D01*
X17435000Y-13048143D01*
X17454048Y-13057667D01*
X17463571Y-13067190D01*
X17473095Y-13086238D01*
X17473095Y-13143381D01*
X17463571Y-13162428D01*
X17454048Y-13171952D01*
X17435000Y-13181476D01*
X17406429Y-13181476D01*
X17530238Y-13048143D02*
X17606429Y-13048143D01*
X17558810Y-12981476D02*
X17558810Y-13152905D01*
X17568333Y-13171952D01*
X17587381Y-13181476D01*
X17606429Y-13181476D01*
X17654048Y-13257667D02*
X17663571Y-13248143D01*
X17682619Y-13219571D01*
X17692143Y-13200524D01*
X17701667Y-13171952D01*
X17711190Y-13124333D01*
X17711190Y-13086238D01*
X17701667Y-13038619D01*
X17692143Y-13010048D01*
X17682619Y-12991000D01*
X17663571Y-12962428D01*
X17654048Y-12952905D01*
X18015952Y-13257667D02*
X18006429Y-13248143D01*
X17987381Y-13219571D01*
X17977857Y-13200524D01*
X17968333Y-13171952D01*
X17958810Y-13124333D01*
X17958810Y-13086238D01*
X17968333Y-13038619D01*
X17977857Y-13010048D01*
X17987381Y-12991000D01*
X18006429Y-12962428D01*
X18015952Y-12952905D01*
X18092143Y-13048143D02*
X18092143Y-13181476D01*
X18092143Y-13067190D02*
X18101667Y-13057667D01*
X18120714Y-13048143D01*
X18149286Y-13048143D01*
X18168333Y-13057667D01*
X18177857Y-13076714D01*
X18177857Y-13181476D01*
X18301667Y-13181476D02*
X18282619Y-13171952D01*
X18273095Y-13162428D01*
X18263571Y-13143381D01*
X18263571Y-13086238D01*
X18273095Y-13067190D01*
X18282619Y-13057667D01*
X18301667Y-13048143D01*
X18330238Y-13048143D01*
X18349286Y-13057667D01*
X18358810Y-13067190D01*
X18368333Y-13086238D01*
X18368333Y-13143381D01*
X18358810Y-13162428D01*
X18349286Y-13171952D01*
X18330238Y-13181476D01*
X18301667Y-13181476D01*
X18425476Y-13048143D02*
X18501667Y-13048143D01*
X18454048Y-12981476D02*
X18454048Y-13152905D01*
X18463571Y-13171952D01*
X18482619Y-13181476D01*
X18501667Y-13181476D01*
X18720714Y-13048143D02*
X18720714Y-13248143D01*
X18720714Y-13057667D02*
X18739762Y-13048143D01*
X18777857Y-13048143D01*
X18796905Y-13057667D01*
X18806429Y-13067190D01*
X18815952Y-13086238D01*
X18815952Y-13143381D01*
X18806429Y-13162428D01*
X18796905Y-13171952D01*
X18777857Y-13181476D01*
X18739762Y-13181476D01*
X18720714Y-13171952D01*
X18930238Y-13181476D02*
X18911190Y-13171952D01*
X18901667Y-13152905D01*
X18901667Y-12981476D01*
X19092143Y-13181476D02*
X19092143Y-13076714D01*
X19082619Y-13057667D01*
X19063571Y-13048143D01*
X19025476Y-13048143D01*
X19006429Y-13057667D01*
X19092143Y-13171952D02*
X19073095Y-13181476D01*
X19025476Y-13181476D01*
X19006429Y-13171952D01*
X18996905Y-13152905D01*
X18996905Y-13133857D01*
X19006429Y-13114809D01*
X19025476Y-13105286D01*
X19073095Y-13105286D01*
X19092143Y-13095762D01*
X19158810Y-13048143D02*
X19235000Y-13048143D01*
X19187381Y-12981476D02*
X19187381Y-13152905D01*
X19196905Y-13171952D01*
X19215952Y-13181476D01*
X19235000Y-13181476D01*
X19377857Y-13171952D02*
X19358810Y-13181476D01*
X19320714Y-13181476D01*
X19301667Y-13171952D01*
X19292143Y-13152905D01*
X19292143Y-13076714D01*
X19301667Y-13057667D01*
X19320714Y-13048143D01*
X19358810Y-13048143D01*
X19377857Y-13057667D01*
X19387381Y-13076714D01*
X19387381Y-13095762D01*
X19292143Y-13114809D01*
X19558810Y-13181476D02*
X19558810Y-12981476D01*
X19558810Y-13171952D02*
X19539762Y-13181476D01*
X19501667Y-13181476D01*
X19482619Y-13171952D01*
X19473095Y-13162428D01*
X19463571Y-13143381D01*
X19463571Y-13086238D01*
X19473095Y-13067190D01*
X19482619Y-13057667D01*
X19501667Y-13048143D01*
X19539762Y-13048143D01*
X19558810Y-13057667D01*
X19635000Y-13257667D02*
X19644524Y-13248143D01*
X19663571Y-13219571D01*
X19673095Y-13200524D01*
X19682619Y-13171952D01*
X19692143Y-13124333D01*
X19692143Y-13086238D01*
X19682619Y-13038619D01*
X19673095Y-13010048D01*
X19663571Y-12991000D01*
X19644524Y-12962428D01*
X19635000Y-12952905D01*
M02*
